<?xml version="1.0" encoding="UTF-8" standalone="no"?>
<!-- Created with Inkscape (http://www.inkscape.org/) -->

<svg
   xmlns:dc="http://purl.org/dc/elements/1.1/"
   xmlns:cc="http://creativecommons.org/ns#"
   xmlns:rdf="http://www.w3.org/1999/02/22-rdf-syntax-ns#"
   xmlns:svg="http://www.w3.org/2000/svg"
   xmlns="http://www.w3.org/2000/svg"
   xmlns:sodipodi="http://sodipodi.sourceforge.net/DTD/sodipodi-0.dtd"
   xmlns:inkscape="http://www.inkscape.org/namespaces/inkscape"
   version="1.1"
   id="svg2"
   xml:space="preserve"
   width="694.57806"
   height="276.25519"
   viewBox="0 0 694.57806 276.25519"
   sodipodi:docname="slide5.svg"
   inkscape:version="0.92.4 5da689c313, 2019-01-14"><metadata
     id="metadata8"><rdf:RDF><cc:Work
         rdf:about=""><dc:format>image/svg+xml</dc:format><dc:type
           rdf:resource="http://purl.org/dc/dcmitype/StillImage" /><dc:title></dc:title></cc:Work></rdf:RDF></metadata><defs
     id="defs6"><clipPath
       clipPathUnits="userSpaceOnUse"
       id="clipPath20"><path
         d="M 0,0 H 365760 V 205740 H 0 Z"
         id="path18"
         inkscape:connector-curvature="0" /></clipPath></defs><sodipodi:namedview
     pagecolor="#ffffff"
     bordercolor="#666666"
     borderopacity="1"
     objecttolerance="10"
     gridtolerance="10"
     guidetolerance="10"
     inkscape:pageopacity="0"
     inkscape:pageshadow="2"
     inkscape:window-width="1920"
     inkscape:window-height="983"
     id="namedview4"
     showgrid="false"
     fit-margin-top="0"
     fit-margin-left="0"
     fit-margin-right="0"
     fit-margin-bottom="0"
     inkscape:zoom="0.43703704"
     inkscape:cx="503.05173"
     inkscape:cy="233.22336"
     inkscape:window-x="0"
     inkscape:window-y="27"
     inkscape:window-maximized="1"
     inkscape:current-layer="g10" /><g
     id="g10"
     inkscape:groupmode="layer"
     inkscape:label="mlr3Pipelines_graphics"
     transform="matrix(1.3333333,0,0,-1.3333333,-84.490643,302.73522)"><g
       id="g28"
       transform="matrix(0.0019685,0,0,-0.0019685,0,405)"><g
         id="g30"><path
           inkscape:connector-curvature="0"
           id="path32"
           style="fill:#efefef;fill-opacity:1;fill-rule:evenodd;stroke:none"
           d="m 218967.5,154589 v -5430 h -11448 v -10860 h 11448 v -5430 l 10860,10860 z" /></g><path
         inkscape:connector-curvature="0"
         id="path34"
         style="fill:none;stroke:#cccccc;stroke-width:381;stroke-linecap:butt;stroke-linejoin:round;stroke-miterlimit:8;stroke-dasharray:none;stroke-opacity:1"
         d="m 218967.5,154589 v -5430 h -11448 v -10860 h 11448 v -5430 l 10860,10860 z" /></g><g
       id="g36"
       transform="matrix(0.0019685,0,0,-0.0019685,0,405)"><g
         id="g38"><path
           inkscape:connector-curvature="0"
           id="path40"
           style="fill:#f3f3f3;fill-opacity:1;fill-rule:evenodd;stroke:none"
           d="m 235555.28,185280.8 v 0 c 0,5622.37 4557.83,10180.2 10180.2,10180.2 h 40719.58 v 0 c 2699.97,0 5289.34,-1072.55 7198.5,-2981.72 1909.16,-1909.16 2981.72,-4498.53 2981.72,-7198.48 v -83103.6 c 0,-5622.364 -4557.84,-10180.2 -10180.22,-10180.2 h -40719.58 c -5622.37,0 -10180.2,4557.836 -10180.2,10180.2 z" /></g><path
         inkscape:connector-curvature="0"
         id="path42"
         style="fill:none;stroke:#595959;stroke-width:381;stroke-linecap:butt;stroke-linejoin:round;stroke-miterlimit:8;stroke-dasharray:none;stroke-opacity:1"
         d="m 235555.28,185280.8 v 0 c 0,5622.37 4557.83,10180.2 10180.2,10180.2 h 40719.58 v 0 c 2699.97,0 5289.34,-1072.55 7198.5,-2981.72 1909.16,-1909.16 2981.72,-4498.53 2981.72,-7198.48 v -83103.6 c 0,-5622.364 -4557.84,-10180.2 -10180.22,-10180.2 h -40719.58 c -5622.37,0 -10180.2,4557.836 -10180.2,10180.2 z" /></g><g
       id="g44"
       transform="matrix(0.0019685,0,0,-0.0019685,0,405)"><g
         id="g46"><g
           id="g48"><path
             inkscape:connector-curvature="0"
             id="path50"
             style="fill:#000000;fill-opacity:0;fill-rule:evenodd;stroke:none"
             d="m 32191,138014 h 63408 v 10392 H 32191 Z" /></g></g></g><g
       transform="matrix(0.7499985,0,0,-0.7499985,0,405)"
       id="g52"><g
         transform="translate(84.490814,362.24146)"
         id="g54"><g
           id="g56"><text
             id="text60"
             style="font-variant:normal;font-weight:bold;font-size:24px;font-family:'Source Code Pro';-inkscape-font-specification:SourceCodePro-Bold;writing-mode:lr-tb;fill:#000000;fill-opacity:1;fill-rule:nonzero;stroke:none"
             transform="translate(9,22.177794)"><tspan
               id="tspan58"
               sodipodi:role="line"
               y="0"
               x="0 14.4 28.799999 43.200001 57.599998 72 86.400002 100.8 115.2 129.60001">greplicate</tspan></text>
</g></g></g><g
       transform="matrix(0.7499985,0,0,-0.7499985,0,405)"
       id="g62" /><g
       id="g64"
       transform="matrix(0.0019685,0,0,-0.0019685,0,405)"><g
         id="g66"><path
           inkscape:connector-curvature="0"
           id="path68"
           style="fill:#f3f3f3;fill-opacity:1;fill-rule:evenodd;stroke:none"
           d="m 163198.72,133143.1 v 0 c 0,-2599.11 -2106.99,-4706.1 -4706.1,-4706.1 h -51667.81 c -1248.13,0 -2445.14,495.82 -3327.71,1378.38 -882.56,882.56 -1378.38,2079.57 -1378.38,3327.72 v 18823.8 c 0,2599.12 2106.99,4706.1 4706.09,4706.1 h 51667.81 c 2599.11,0 4706.1,-2106.98 4706.1,-4706.1 z" /></g><path
         inkscape:connector-curvature="0"
         id="path70"
         style="fill:none;stroke:#595959;stroke-width:381;stroke-linecap:butt;stroke-linejoin:round;stroke-miterlimit:8;stroke-dasharray:none;stroke-opacity:1"
         d="m 163198.72,133143.1 v 0 c 0,-2599.11 -2106.99,-4706.1 -4706.1,-4706.1 h -51667.81 c -1248.13,0 -2445.14,495.82 -3327.71,1378.38 -882.56,882.56 -1378.38,2079.57 -1378.38,3327.72 v 18823.8 c 0,2599.12 2106.99,4706.1 4706.09,4706.1 h 51667.81 c 2599.11,0 4706.1,-2106.98 4706.1,-4706.1 z" /></g><g
       id="g72"
       transform="matrix(0.0019685,0,0,-0.0019685,0,405)"><g
         id="g74"><path
           inkscape:connector-curvature="0"
           id="path76"
           style="fill:#d0e0e3;fill-opacity:1;fill-rule:evenodd;stroke:none"
           d="m 154107.84,136358.06 v 0 c 0,-1644.73 -1333.31,-2978.06 -2978.04,-2978.06 h -11911.9 v 0 c -789.82,0 -1547.3,313.77 -2105.79,872.25 -558.5,558.5 -872.27,1315.98 -872.27,2105.81 v 12463.88 c 0,1644.73 1333.33,2978.06 2978.06,2978.06 h 11911.9 c 1644.73,0 2978.04,-1333.33 2978.04,-2978.06 z" /></g><path
         inkscape:connector-curvature="0"
         id="path78"
         style="fill:none;stroke:#000000;stroke-width:762;stroke-linecap:butt;stroke-linejoin:round;stroke-miterlimit:8;stroke-dasharray:none;stroke-opacity:1"
         d="m 154107.84,136358.06 v 0 c 0,-1644.73 -1333.31,-2978.06 -2978.04,-2978.06 h -11911.9 v 0 c -789.82,0 -1547.3,313.77 -2105.79,872.25 -558.5,558.5 -872.27,1315.98 -872.27,2105.81 v 12463.88 c 0,1644.73 1333.33,2978.06 2978.06,2978.06 h 11911.9 c 1644.73,0 2978.04,-1333.33 2978.04,-2978.06 z" /></g><g
       id="g80"
       transform="matrix(0.0019685,0,0,-0.0019685,0,405)"><g
         id="g82"><path
           inkscape:connector-curvature="0"
           id="path84"
           style="fill:#eeeeee;fill-opacity:1;fill-rule:evenodd;stroke:none"
           d="m 137130.39,139539.5 h -5197.33 c -717.61,0 -1299.34,1365.75 -1299.34,3050.5 0,1684.75 581.73,3050.5 1299.34,3050.5 h 5197.33 v 0 c 717.59,0 1299.33,-1365.75 1299.33,-3050.5 0,-1684.75 -581.74,-3050.5 -1299.33,-3050.5 z" /></g><g
         id="g86"><g
           id="g88"><path
             inkscape:connector-curvature="0"
             id="path90"
             style="fill:#000000;fill-opacity:0;fill-rule:evenodd;stroke:none"
             d="m 131933.06,145640.5 c 717.6,0 1299.33,-1365.75 1299.33,-3050.5 0,-1684.75 -581.73,-3050.5 -1299.33,-3050.5" /></g></g><g
         id="g92"><g
           id="g94"><path
             inkscape:connector-curvature="0"
             id="path96"
             style="fill:#000000;fill-opacity:0;fill-rule:evenodd;stroke:none"
             d="m 137130.39,139539.5 h -5197.33 c -717.61,0 -1299.34,1365.75 -1299.34,3050.5 0,1684.75 581.73,3050.5 1299.34,3050.5 h 5197.33 v 0 c 717.59,0 1299.33,-1365.75 1299.33,-3050.5 0,-1684.75 -581.74,-3050.5 -1299.33,-3050.5 z" /></g></g><path
         inkscape:connector-curvature="0"
         id="path98"
         style="fill:none;stroke:#595959;stroke-width:381;stroke-linecap:butt;stroke-linejoin:round;stroke-miterlimit:8;stroke-dasharray:none;stroke-opacity:1"
         d="m 131933.06,145640.5 c 717.6,0 1299.33,-1365.75 1299.33,-3050.5 0,-1684.75 -581.73,-3050.5 -1299.33,-3050.5" /><path
         inkscape:connector-curvature="0"
         id="path100"
         style="fill:none;stroke:#595959;stroke-width:381;stroke-linecap:butt;stroke-linejoin:round;stroke-miterlimit:8;stroke-dasharray:none;stroke-opacity:1"
         d="m 137130.39,139539.5 h -5197.33 c -717.61,0 -1299.34,1365.75 -1299.34,3050.5 0,1684.75 581.73,3050.5 1299.34,3050.5 h 5197.33 v 0 c 717.59,0 1299.33,-1365.75 1299.33,-3050.5 0,-1684.75 -581.74,-3050.5 -1299.33,-3050.5 z" /></g><g
       id="g102"
       transform="matrix(0.0019685,0,0,-0.0019685,0,405)"><g
         id="g104"><path
           inkscape:connector-curvature="0"
           id="path106"
           style="fill:#eeeeee;fill-opacity:1;fill-rule:evenodd;stroke:none"
           d="m 153461.06,139016.5 h 5197.33 c 717.59,0 1299.33,1365.75 1299.33,3050.5 0,1684.75 -581.74,3050.5 -1299.33,3050.5 h -5197.33 v 0 c -717.61,0 -1299.34,-1365.75 -1299.34,-3050.5 0,-1684.75 581.73,-3050.5 1299.34,-3050.5 z" /></g><g
         id="g108"><g
           id="g110"><path
             inkscape:connector-curvature="0"
             id="path112"
             style="fill:#000000;fill-opacity:0;fill-rule:evenodd;stroke:none"
             d="m 158658.39,145117.5 c -717.61,0 -1299.33,-1365.75 -1299.33,-3050.5 0,-1684.75 581.72,-3050.5 1299.33,-3050.5" /></g></g><g
         id="g114"><g
           id="g116"><path
             inkscape:connector-curvature="0"
             id="path118"
             style="fill:#000000;fill-opacity:0;fill-rule:evenodd;stroke:none"
             d="m 153461.06,139016.5 h 5197.33 c 717.59,0 1299.33,1365.75 1299.33,3050.5 0,1684.75 -581.74,3050.5 -1299.33,3050.5 h -5197.33 v 0 c -717.61,0 -1299.34,-1365.75 -1299.34,-3050.5 0,-1684.75 581.73,-3050.5 1299.34,-3050.5 z" /></g></g><path
         inkscape:connector-curvature="0"
         id="path120"
         style="fill:none;stroke:#595959;stroke-width:381;stroke-linecap:butt;stroke-linejoin:round;stroke-miterlimit:8;stroke-dasharray:none;stroke-opacity:1"
         d="m 158658.39,145117.5 c -717.61,0 -1299.33,-1365.75 -1299.33,-3050.5 0,-1684.75 581.72,-3050.5 1299.33,-3050.5" /><path
         inkscape:connector-curvature="0"
         id="path122"
         style="fill:none;stroke:#595959;stroke-width:381;stroke-linecap:butt;stroke-linejoin:round;stroke-miterlimit:8;stroke-dasharray:none;stroke-opacity:1"
         d="m 153461.06,139016.5 h 5197.33 c 717.59,0 1299.33,1365.75 1299.33,3050.5 0,1684.75 -581.74,3050.5 -1299.33,3050.5 h -5197.33 v 0 c -717.61,0 -1299.34,-1365.75 -1299.34,-3050.5 0,-1684.75 581.73,-3050.5 1299.34,-3050.5 z" /></g><g
       id="g124"
       transform="matrix(0.0019685,0,0,-0.0019685,0,405)"><g
         id="g126"><path
           inkscape:connector-curvature="0"
           id="path128"
           style="fill:#d0e0e3;fill-opacity:1;fill-rule:evenodd;stroke:none"
           d="m 127845.72,136358.06 v 0 c 0,-1644.73 -1333.32,-2978.06 -2978.06,-2978.06 h -11911.88 v 0 c -789.83,0 -1547.31,313.77 -2105.8,872.25 -558.5,558.5 -872.26,1315.98 -872.26,2105.81 v 12463.88 c 0,1644.73 1333.33,2978.06 2978.06,2978.06 h 11911.88 c 1644.74,0 2978.06,-1333.33 2978.06,-2978.06 z" /></g><path
         inkscape:connector-curvature="0"
         id="path130"
         style="fill:none;stroke:#000000;stroke-width:762;stroke-linecap:butt;stroke-linejoin:round;stroke-miterlimit:8;stroke-dasharray:none;stroke-opacity:1"
         d="m 127845.72,136358.06 v 0 c 0,-1644.73 -1333.32,-2978.06 -2978.06,-2978.06 h -11911.88 v 0 c -789.83,0 -1547.31,313.77 -2105.8,872.25 -558.5,558.5 -872.26,1315.98 -872.26,2105.81 v 12463.88 c 0,1644.73 1333.33,2978.06 2978.06,2978.06 h 11911.88 c 1644.74,0 2978.06,-1333.33 2978.06,-2978.06 z" /></g><g
       id="g132"
       transform="matrix(0.0019685,0,0,-0.0019685,0,405)"><g
         id="g134"><path
           inkscape:connector-curvature="0"
           id="path136"
           style="fill:#eeeeee;fill-opacity:1;fill-rule:evenodd;stroke:none"
           d="m 111172.39,139016.5 h -5197.33 c -717.61,0 -1299.34,1365.75 -1299.34,3050.5 0,1684.75 581.73,3050.5 1299.34,3050.5 h 5197.33 v 0 c 717.6,0 1299.33,-1365.75 1299.33,-3050.5 0,-1684.75 -581.73,-3050.5 -1299.33,-3050.5 z" /></g><g
         id="g138"><g
           id="g140"><path
             inkscape:connector-curvature="0"
             id="path142"
             style="fill:#000000;fill-opacity:0;fill-rule:evenodd;stroke:none"
             d="m 105975.06,145117.5 c 717.6,0 1299.33,-1365.75 1299.33,-3050.5 0,-1684.75 -581.73,-3050.5 -1299.33,-3050.5" /></g></g><g
         id="g144"><g
           id="g146"><path
             inkscape:connector-curvature="0"
             id="path148"
             style="fill:#000000;fill-opacity:0;fill-rule:evenodd;stroke:none"
             d="m 111172.39,139016.5 h -5197.33 c -717.61,0 -1299.34,1365.75 -1299.34,3050.5 0,1684.75 581.73,3050.5 1299.34,3050.5 h 5197.33 v 0 c 717.6,0 1299.33,-1365.75 1299.33,-3050.5 0,-1684.75 -581.73,-3050.5 -1299.33,-3050.5 z" /></g></g><path
         inkscape:connector-curvature="0"
         id="path150"
         style="fill:none;stroke:#595959;stroke-width:381;stroke-linecap:butt;stroke-linejoin:round;stroke-miterlimit:8;stroke-dasharray:none;stroke-opacity:1"
         d="m 105975.06,145117.5 c 717.6,0 1299.33,-1365.75 1299.33,-3050.5 0,-1684.75 -581.73,-3050.5 -1299.33,-3050.5" /><path
         inkscape:connector-curvature="0"
         id="path152"
         style="fill:none;stroke:#595959;stroke-width:381;stroke-linecap:butt;stroke-linejoin:round;stroke-miterlimit:8;stroke-dasharray:none;stroke-opacity:1"
         d="m 111172.39,139016.5 h -5197.33 c -717.61,0 -1299.34,1365.75 -1299.34,3050.5 0,1684.75 581.73,3050.5 1299.34,3050.5 h 5197.33 v 0 c 717.6,0 1299.33,-1365.75 1299.33,-3050.5 0,-1684.75 -581.73,-3050.5 -1299.33,-3050.5 z" /></g><g
       id="g154"
       transform="matrix(0.0019685,0,0,-0.0019685,0,405)"><g
         id="g156"><path
           inkscape:connector-curvature="0"
           id="path158"
           style="fill:#eeeeee;fill-opacity:1;fill-rule:evenodd;stroke:none"
           d="m 126955.06,139539.5 h 5197.33 c 717.59,0 1299.33,1365.75 1299.33,3050.5 0,1684.75 -581.74,3050.5 -1299.33,3050.5 h -5197.33 v 0 c -717.61,0 -1299.34,-1365.75 -1299.34,-3050.5 0,-1684.75 581.73,-3050.5 1299.34,-3050.5 z" /></g><g
         id="g160"><g
           id="g162"><path
             inkscape:connector-curvature="0"
             id="path164"
             style="fill:#000000;fill-opacity:0;fill-rule:evenodd;stroke:none"
             d="m 132152.39,145640.5 c -717.61,0 -1299.33,-1365.75 -1299.33,-3050.5 0,-1684.75 581.72,-3050.5 1299.33,-3050.5" /></g></g><g
         id="g166"><g
           id="g168"><path
             inkscape:connector-curvature="0"
             id="path170"
             style="fill:#000000;fill-opacity:0;fill-rule:evenodd;stroke:none"
             d="m 126955.06,139539.5 h 5197.33 c 717.59,0 1299.33,1365.75 1299.33,3050.5 0,1684.75 -581.74,3050.5 -1299.33,3050.5 h -5197.33 v 0 c -717.61,0 -1299.34,-1365.75 -1299.34,-3050.5 0,-1684.75 581.73,-3050.5 1299.34,-3050.5 z" /></g></g><path
         inkscape:connector-curvature="0"
         id="path172"
         style="fill:none;stroke:#595959;stroke-width:381;stroke-linecap:butt;stroke-linejoin:round;stroke-miterlimit:8;stroke-dasharray:none;stroke-opacity:1"
         d="m 132152.39,145640.5 c -717.61,0 -1299.33,-1365.75 -1299.33,-3050.5 0,-1684.75 581.72,-3050.5 1299.33,-3050.5" /><path
         inkscape:connector-curvature="0"
         id="path174"
         style="fill:none;stroke:#595959;stroke-width:381;stroke-linecap:butt;stroke-linejoin:round;stroke-miterlimit:8;stroke-dasharray:none;stroke-opacity:1"
         d="m 126955.06,139539.5 h 5197.33 c 717.59,0 1299.33,1365.75 1299.33,3050.5 0,1684.75 -581.74,3050.5 -1299.33,3050.5 h -5197.33 v 0 c -717.61,0 -1299.34,-1365.75 -1299.34,-3050.5 0,-1684.75 581.73,-3050.5 1299.34,-3050.5 z" /></g><g
       id="g176"
       transform="matrix(0.0019685,0,0,-0.0019685,0,405)"><g
         id="g178"><path
           inkscape:connector-curvature="0"
           id="path180"
           style="fill:#efefef;fill-opacity:1;fill-rule:evenodd;stroke:none"
           d="m 135388.72,139675 h -6144 v 5808 h 6144 z" /></g></g><g
       id="g182"
       transform="matrix(0.0019685,0,0,-0.0019685,0,405)"><g
         id="g184"><path
           inkscape:connector-curvature="0"
           id="path186"
           style="fill:#d0e0e3;fill-opacity:1;fill-rule:evenodd;stroke:none"
           d="m 287886.12,103058.06 v 0 c 0,-1644.74 -1333.32,-2978.06 -2978.06,-2978.06 H 272996.2 v 0 c -789.86,0 -1547.32,313.76 -2105.82,872.25 -558.5,558.5 -872.26,1315.98 -872.26,2105.81 v 12463.88 c 0,1644.74 1333.32,2978.06 2978.08,2978.06 h 11911.86 c 1644.74,0 2978.06,-1333.32 2978.06,-2978.06 z" /></g><path
         inkscape:connector-curvature="0"
         id="path188"
         style="fill:none;stroke:#000000;stroke-width:762;stroke-linecap:butt;stroke-linejoin:round;stroke-miterlimit:8;stroke-dasharray:none;stroke-opacity:1"
         d="m 287886.12,103058.06 v 0 c 0,-1644.74 -1333.32,-2978.06 -2978.06,-2978.06 H 272996.2 v 0 c -789.86,0 -1547.32,313.76 -2105.82,872.25 -558.5,558.5 -872.26,1315.98 -872.26,2105.81 v 12463.88 c 0,1644.74 1333.32,2978.06 2978.08,2978.06 h 11911.86 c 1644.74,0 2978.06,-1333.32 2978.06,-2978.06 z" /></g><g
       id="g190"
       transform="matrix(0.0019685,0,0,-0.0019685,0,405)"><g
         id="g192"><path
           inkscape:connector-curvature="0"
           id="path194"
           style="fill:#eeeeee;fill-opacity:1;fill-rule:evenodd;stroke:none"
           d="m 270908.66,106239.5 h -5197.32 c -717.62,0 -1299.34,1365.76 -1299.34,3050.5 0,1684.74 581.72,3050.5 1299.34,3050.5 h 5197.32 v 0 c 717.62,0 1299.34,-1365.76 1299.34,-3050.5 0,-1684.74 -581.72,-3050.5 -1299.34,-3050.5 z" /></g><g
         id="g196"><g
           id="g198"><path
             inkscape:connector-curvature="0"
             id="path200"
             style="fill:#000000;fill-opacity:0;fill-rule:evenodd;stroke:none"
             d="m 265711.34,112340.5 c 717.6,0 1299.32,-1365.76 1299.32,-3050.5 0,-1684.74 -581.72,-3050.5 -1299.32,-3050.5" /></g></g><g
         id="g202"><g
           id="g204"><path
             inkscape:connector-curvature="0"
             id="path206"
             style="fill:#000000;fill-opacity:0;fill-rule:evenodd;stroke:none"
             d="m 270908.66,106239.5 h -5197.32 c -717.62,0 -1299.34,1365.76 -1299.34,3050.5 0,1684.74 581.72,3050.5 1299.34,3050.5 h 5197.32 v 0 c 717.62,0 1299.34,-1365.76 1299.34,-3050.5 0,-1684.74 -581.72,-3050.5 -1299.34,-3050.5 z" /></g></g><path
         inkscape:connector-curvature="0"
         id="path208"
         style="fill:none;stroke:#595959;stroke-width:381;stroke-linecap:butt;stroke-linejoin:round;stroke-miterlimit:8;stroke-dasharray:none;stroke-opacity:1"
         d="m 265711.34,112340.5 c 717.6,0 1299.32,-1365.76 1299.32,-3050.5 0,-1684.74 -581.72,-3050.5 -1299.32,-3050.5" /><path
         inkscape:connector-curvature="0"
         id="path210"
         style="fill:none;stroke:#595959;stroke-width:381;stroke-linecap:butt;stroke-linejoin:round;stroke-miterlimit:8;stroke-dasharray:none;stroke-opacity:1"
         d="m 270908.66,106239.5 h -5197.32 c -717.62,0 -1299.34,1365.76 -1299.34,3050.5 0,1684.74 581.72,3050.5 1299.34,3050.5 h 5197.32 v 0 c 717.62,0 1299.34,-1365.76 1299.34,-3050.5 0,-1684.74 -581.72,-3050.5 -1299.34,-3050.5 z" /></g><g
       id="g212"
       transform="matrix(0.0019685,0,0,-0.0019685,0,405)"><g
         id="g214"><path
           inkscape:connector-curvature="0"
           id="path216"
           style="fill:#eeeeee;fill-opacity:1;fill-rule:evenodd;stroke:none"
           d="m 287239.34,105716.5 h 5197.32 c 717.62,0 1299.34,1365.76 1299.34,3050.5 0,1684.74 -581.72,3050.5 -1299.34,3050.5 h -5197.32 v 0 c -717.62,0 -1299.34,-1365.76 -1299.34,-3050.5 0,-1684.74 581.72,-3050.5 1299.34,-3050.5 z" /></g><g
         id="g218"><g
           id="g220"><path
             inkscape:connector-curvature="0"
             id="path222"
             style="fill:#000000;fill-opacity:0;fill-rule:evenodd;stroke:none"
             d="m 292436.66,111817.5 c -717.6,0 -1299.32,-1365.76 -1299.32,-3050.5 0,-1684.74 581.72,-3050.5 1299.32,-3050.5" /></g></g><g
         id="g224"><g
           id="g226"><path
             inkscape:connector-curvature="0"
             id="path228"
             style="fill:#000000;fill-opacity:0;fill-rule:evenodd;stroke:none"
             d="m 287239.34,105716.5 h 5197.32 c 717.62,0 1299.34,1365.76 1299.34,3050.5 0,1684.74 -581.72,3050.5 -1299.34,3050.5 h -5197.32 v 0 c -717.62,0 -1299.34,-1365.76 -1299.34,-3050.5 0,-1684.74 581.72,-3050.5 1299.34,-3050.5 z" /></g></g><path
         inkscape:connector-curvature="0"
         id="path230"
         style="fill:none;stroke:#595959;stroke-width:381;stroke-linecap:butt;stroke-linejoin:round;stroke-miterlimit:8;stroke-dasharray:none;stroke-opacity:1"
         d="m 292436.66,111817.5 c -717.6,0 -1299.32,-1365.76 -1299.32,-3050.5 0,-1684.74 581.72,-3050.5 1299.32,-3050.5" /><path
         inkscape:connector-curvature="0"
         id="path232"
         style="fill:none;stroke:#595959;stroke-width:381;stroke-linecap:butt;stroke-linejoin:round;stroke-miterlimit:8;stroke-dasharray:none;stroke-opacity:1"
         d="m 287239.34,105716.5 h 5197.32 c 717.62,0 1299.34,1365.76 1299.34,3050.5 0,1684.74 -581.72,3050.5 -1299.34,3050.5 h -5197.32 v 0 c -717.62,0 -1299.34,-1365.76 -1299.34,-3050.5 0,-1684.74 581.72,-3050.5 1299.34,-3050.5 z" /></g><g
       id="g234"
       transform="matrix(0.0019685,0,0,-0.0019685,0,405)"><g
         id="g236"><path
           inkscape:connector-curvature="0"
           id="path238"
           style="fill:#d0e0e3;fill-opacity:1;fill-rule:evenodd;stroke:none"
           d="m 261624,103058.06 v 0 c 0,-1644.74 -1333.33,-2978.06 -2978.06,-2978.06 h -11911.88 v 0 c -789.83,0 -1547.31,313.76 -2105.81,872.25 -558.48,558.5 -872.25,1315.98 -872.25,2105.81 v 12463.88 c 0,1644.74 1333.33,2978.06 2978.06,2978.06 h 11911.88 c 1644.73,0 2978.06,-1333.32 2978.06,-2978.06 z" /></g><path
         inkscape:connector-curvature="0"
         id="path240"
         style="fill:none;stroke:#000000;stroke-width:762;stroke-linecap:butt;stroke-linejoin:round;stroke-miterlimit:8;stroke-dasharray:none;stroke-opacity:1"
         d="m 261624,103058.06 v 0 c 0,-1644.74 -1333.33,-2978.06 -2978.06,-2978.06 h -11911.88 v 0 c -789.83,0 -1547.31,313.76 -2105.81,872.25 -558.48,558.5 -872.25,1315.98 -872.25,2105.81 v 12463.88 c 0,1644.74 1333.33,2978.06 2978.06,2978.06 h 11911.88 c 1644.73,0 2978.06,-1333.32 2978.06,-2978.06 z" /></g><g
       id="g242"
       transform="matrix(0.0019685,0,0,-0.0019685,0,405)"><g
         id="g244"><path
           inkscape:connector-curvature="0"
           id="path246"
           style="fill:#eeeeee;fill-opacity:1;fill-rule:evenodd;stroke:none"
           d="m 244950.67,105716.5 h -5197.34 c -717.6,0 -1299.33,1365.76 -1299.33,3050.5 0,1684.74 581.73,3050.5 1299.33,3050.5 h 5197.34 v 0 c 717.6,0 1299.33,-1365.76 1299.33,-3050.5 0,-1684.74 -581.73,-3050.5 -1299.33,-3050.5 z" /></g><g
         id="g248"><g
           id="g250"><path
             inkscape:connector-curvature="0"
             id="path252"
             style="fill:#000000;fill-opacity:0;fill-rule:evenodd;stroke:none"
             d="m 239753.33,111817.5 c 717.61,0 1299.34,-1365.76 1299.34,-3050.5 0,-1684.74 -581.73,-3050.5 -1299.34,-3050.5" /></g></g><g
         id="g254"><g
           id="g256"><path
             inkscape:connector-curvature="0"
             id="path258"
             style="fill:#000000;fill-opacity:0;fill-rule:evenodd;stroke:none"
             d="m 244950.67,105716.5 h -5197.34 c -717.6,0 -1299.33,1365.76 -1299.33,3050.5 0,1684.74 581.73,3050.5 1299.33,3050.5 h 5197.34 v 0 c 717.6,0 1299.33,-1365.76 1299.33,-3050.5 0,-1684.74 -581.73,-3050.5 -1299.33,-3050.5 z" /></g></g><path
         inkscape:connector-curvature="0"
         id="path260"
         style="fill:none;stroke:#595959;stroke-width:381;stroke-linecap:butt;stroke-linejoin:round;stroke-miterlimit:8;stroke-dasharray:none;stroke-opacity:1"
         d="m 239753.33,111817.5 c 717.61,0 1299.34,-1365.76 1299.34,-3050.5 0,-1684.74 -581.73,-3050.5 -1299.34,-3050.5" /><path
         inkscape:connector-curvature="0"
         id="path262"
         style="fill:none;stroke:#595959;stroke-width:381;stroke-linecap:butt;stroke-linejoin:round;stroke-miterlimit:8;stroke-dasharray:none;stroke-opacity:1"
         d="m 244950.67,105716.5 h -5197.34 c -717.6,0 -1299.33,1365.76 -1299.33,3050.5 0,1684.74 581.73,3050.5 1299.33,3050.5 h 5197.34 v 0 c 717.6,0 1299.33,-1365.76 1299.33,-3050.5 0,-1684.74 -581.73,-3050.5 -1299.33,-3050.5 z" /></g><g
       id="g264"
       transform="matrix(0.0019685,0,0,-0.0019685,0,405)"><g
         id="g266"><path
           inkscape:connector-curvature="0"
           id="path268"
           style="fill:#eeeeee;fill-opacity:1;fill-rule:evenodd;stroke:none"
           d="m 260733.33,106239.5 h 5197.33 c 717.62,0 1299.34,1365.76 1299.34,3050.5 0,1684.74 -581.72,3050.5 -1299.34,3050.5 h -5197.33 v 0 c -717.6,0 -1299.33,-1365.76 -1299.33,-3050.5 0,-1684.74 581.73,-3050.5 1299.33,-3050.5 z" /></g><g
         id="g270"><g
           id="g272"><path
             inkscape:connector-curvature="0"
             id="path274"
             style="fill:#000000;fill-opacity:0;fill-rule:evenodd;stroke:none"
             d="m 265930.66,112340.5 c -717.6,0 -1299.32,-1365.76 -1299.32,-3050.5 0,-1684.74 581.72,-3050.5 1299.32,-3050.5" /></g></g><g
         id="g276"><g
           id="g278"><path
             inkscape:connector-curvature="0"
             id="path280"
             style="fill:#000000;fill-opacity:0;fill-rule:evenodd;stroke:none"
             d="m 260733.33,106239.5 h 5197.33 c 717.62,0 1299.34,1365.76 1299.34,3050.5 0,1684.74 -581.72,3050.5 -1299.34,3050.5 h -5197.33 v 0 c -717.6,0 -1299.33,-1365.76 -1299.33,-3050.5 0,-1684.74 581.73,-3050.5 1299.33,-3050.5 z" /></g></g><path
         inkscape:connector-curvature="0"
         id="path282"
         style="fill:none;stroke:#595959;stroke-width:381;stroke-linecap:butt;stroke-linejoin:round;stroke-miterlimit:8;stroke-dasharray:none;stroke-opacity:1"
         d="m 265930.66,112340.5 c -717.6,0 -1299.32,-1365.76 -1299.32,-3050.5 0,-1684.74 581.72,-3050.5 1299.32,-3050.5" /><path
         inkscape:connector-curvature="0"
         id="path284"
         style="fill:none;stroke:#595959;stroke-width:381;stroke-linecap:butt;stroke-linejoin:round;stroke-miterlimit:8;stroke-dasharray:none;stroke-opacity:1"
         d="m 260733.33,106239.5 h 5197.33 c 717.62,0 1299.34,1365.76 1299.34,3050.5 0,1684.74 -581.72,3050.5 -1299.34,3050.5 h -5197.33 v 0 c -717.6,0 -1299.33,-1365.76 -1299.33,-3050.5 0,-1684.74 581.73,-3050.5 1299.33,-3050.5 z" /></g><g
       id="g286"
       transform="matrix(0.0019685,0,0,-0.0019685,0,405)"><g
         id="g288"><path
           inkscape:connector-curvature="0"
           id="path290"
           style="fill:#efefef;fill-opacity:1;fill-rule:evenodd;stroke:none"
           d="m 269167,106375 h -6144 v 5808 h 6144 z" /></g></g><g
       id="g292"
       transform="matrix(0.0019685,0,0,-0.0019685,0,405)"><g
         id="g294"><path
           inkscape:connector-curvature="0"
           id="path296"
           style="fill:#d0e0e3;fill-opacity:1;fill-rule:evenodd;stroke:none"
           d="m 287886.12,128033.06 v 0 c 0,-1644.74 -1333.32,-2978.06 -2978.06,-2978.06 H 272996.2 v 0 c -789.86,0 -1547.32,313.76 -2105.82,872.25 -558.5,558.5 -872.26,1315.98 -872.26,2105.81 v 12463.88 c 0,1644.73 1333.32,2978.06 2978.08,2978.06 h 11911.86 c 1644.74,0 2978.06,-1333.33 2978.06,-2978.06 z" /></g><path
         inkscape:connector-curvature="0"
         id="path298"
         style="fill:none;stroke:#000000;stroke-width:762;stroke-linecap:butt;stroke-linejoin:round;stroke-miterlimit:8;stroke-dasharray:none;stroke-opacity:1"
         d="m 287886.12,128033.06 v 0 c 0,-1644.74 -1333.32,-2978.06 -2978.06,-2978.06 H 272996.2 v 0 c -789.86,0 -1547.32,313.76 -2105.82,872.25 -558.5,558.5 -872.26,1315.98 -872.26,2105.81 v 12463.88 c 0,1644.73 1333.32,2978.06 2978.08,2978.06 h 11911.86 c 1644.74,0 2978.06,-1333.33 2978.06,-2978.06 z" /></g><g
       id="g300"
       transform="matrix(0.0019685,0,0,-0.0019685,0,405)"><g
         id="g302"><path
           inkscape:connector-curvature="0"
           id="path304"
           style="fill:#eeeeee;fill-opacity:1;fill-rule:evenodd;stroke:none"
           d="m 270908.66,131214.5 h -5197.32 c -717.62,0 -1299.34,1365.75 -1299.34,3050.5 0,1684.75 581.72,3050.5 1299.34,3050.5 h 5197.32 v 0 c 717.62,0 1299.34,-1365.75 1299.34,-3050.5 0,-1684.75 -581.72,-3050.5 -1299.34,-3050.5 z" /></g><g
         id="g306"><g
           id="g308"><path
             inkscape:connector-curvature="0"
             id="path310"
             style="fill:#000000;fill-opacity:0;fill-rule:evenodd;stroke:none"
             d="m 265711.34,137315.5 c 717.6,0 1299.32,-1365.75 1299.32,-3050.5 0,-1684.75 -581.72,-3050.5 -1299.32,-3050.5" /></g></g><g
         id="g312"><g
           id="g314"><path
             inkscape:connector-curvature="0"
             id="path316"
             style="fill:#000000;fill-opacity:0;fill-rule:evenodd;stroke:none"
             d="m 270908.66,131214.5 h -5197.32 c -717.62,0 -1299.34,1365.75 -1299.34,3050.5 0,1684.75 581.72,3050.5 1299.34,3050.5 h 5197.32 v 0 c 717.62,0 1299.34,-1365.75 1299.34,-3050.5 0,-1684.75 -581.72,-3050.5 -1299.34,-3050.5 z" /></g></g><path
         inkscape:connector-curvature="0"
         id="path318"
         style="fill:none;stroke:#595959;stroke-width:381;stroke-linecap:butt;stroke-linejoin:round;stroke-miterlimit:8;stroke-dasharray:none;stroke-opacity:1"
         d="m 265711.34,137315.5 c 717.6,0 1299.32,-1365.75 1299.32,-3050.5 0,-1684.75 -581.72,-3050.5 -1299.32,-3050.5" /><path
         inkscape:connector-curvature="0"
         id="path320"
         style="fill:none;stroke:#595959;stroke-width:381;stroke-linecap:butt;stroke-linejoin:round;stroke-miterlimit:8;stroke-dasharray:none;stroke-opacity:1"
         d="m 270908.66,131214.5 h -5197.32 c -717.62,0 -1299.34,1365.75 -1299.34,3050.5 0,1684.75 581.72,3050.5 1299.34,3050.5 h 5197.32 v 0 c 717.62,0 1299.34,-1365.75 1299.34,-3050.5 0,-1684.75 -581.72,-3050.5 -1299.34,-3050.5 z" /></g><g
       id="g322"
       transform="matrix(0.0019685,0,0,-0.0019685,0,405)"><g
         id="g324"><path
           inkscape:connector-curvature="0"
           id="path326"
           style="fill:#eeeeee;fill-opacity:1;fill-rule:evenodd;stroke:none"
           d="m 287239.34,130691.5 h 5197.32 c 717.62,0 1299.34,1365.75 1299.34,3050.5 0,1684.75 -581.72,3050.5 -1299.34,3050.5 h -5197.32 v 0 c -717.62,0 -1299.34,-1365.75 -1299.34,-3050.5 0,-1684.75 581.72,-3050.5 1299.34,-3050.5 z" /></g><g
         id="g328"><g
           id="g330"><path
             inkscape:connector-curvature="0"
             id="path332"
             style="fill:#000000;fill-opacity:0;fill-rule:evenodd;stroke:none"
             d="m 292436.66,136792.5 c -717.6,0 -1299.32,-1365.75 -1299.32,-3050.5 0,-1684.75 581.72,-3050.5 1299.32,-3050.5" /></g></g><g
         id="g334"><g
           id="g336"><path
             inkscape:connector-curvature="0"
             id="path338"
             style="fill:#000000;fill-opacity:0;fill-rule:evenodd;stroke:none"
             d="m 287239.34,130691.5 h 5197.32 c 717.62,0 1299.34,1365.75 1299.34,3050.5 0,1684.75 -581.72,3050.5 -1299.34,3050.5 h -5197.32 v 0 c -717.62,0 -1299.34,-1365.75 -1299.34,-3050.5 0,-1684.75 581.72,-3050.5 1299.34,-3050.5 z" /></g></g><path
         inkscape:connector-curvature="0"
         id="path340"
         style="fill:none;stroke:#595959;stroke-width:381;stroke-linecap:butt;stroke-linejoin:round;stroke-miterlimit:8;stroke-dasharray:none;stroke-opacity:1"
         d="m 292436.66,136792.5 c -717.6,0 -1299.32,-1365.75 -1299.32,-3050.5 0,-1684.75 581.72,-3050.5 1299.32,-3050.5" /><path
         inkscape:connector-curvature="0"
         id="path342"
         style="fill:none;stroke:#595959;stroke-width:381;stroke-linecap:butt;stroke-linejoin:round;stroke-miterlimit:8;stroke-dasharray:none;stroke-opacity:1"
         d="m 287239.34,130691.5 h 5197.32 c 717.62,0 1299.34,1365.75 1299.34,3050.5 0,1684.75 -581.72,3050.5 -1299.34,3050.5 h -5197.32 v 0 c -717.62,0 -1299.34,-1365.75 -1299.34,-3050.5 0,-1684.75 581.72,-3050.5 1299.34,-3050.5 z" /></g><g
       id="g344"
       transform="matrix(0.0019685,0,0,-0.0019685,0,405)"><g
         id="g346"><path
           inkscape:connector-curvature="0"
           id="path348"
           style="fill:#d0e0e3;fill-opacity:1;fill-rule:evenodd;stroke:none"
           d="m 261624,128033.06 v 0 c 0,-1644.74 -1333.33,-2978.06 -2978.06,-2978.06 h -11911.88 v 0 c -789.83,0 -1547.31,313.76 -2105.81,872.25 -558.48,558.5 -872.25,1315.98 -872.25,2105.81 v 12463.88 c 0,1644.73 1333.33,2978.06 2978.06,2978.06 h 11911.88 c 1644.73,0 2978.06,-1333.33 2978.06,-2978.06 z" /></g><path
         inkscape:connector-curvature="0"
         id="path350"
         style="fill:none;stroke:#000000;stroke-width:762;stroke-linecap:butt;stroke-linejoin:round;stroke-miterlimit:8;stroke-dasharray:none;stroke-opacity:1"
         d="m 261624,128033.06 v 0 c 0,-1644.74 -1333.33,-2978.06 -2978.06,-2978.06 h -11911.88 v 0 c -789.83,0 -1547.31,313.76 -2105.81,872.25 -558.48,558.5 -872.25,1315.98 -872.25,2105.81 v 12463.88 c 0,1644.73 1333.33,2978.06 2978.06,2978.06 h 11911.88 c 1644.73,0 2978.06,-1333.33 2978.06,-2978.06 z" /></g><g
       id="g352"
       transform="matrix(0.0019685,0,0,-0.0019685,0,405)"><g
         id="g354"><path
           inkscape:connector-curvature="0"
           id="path356"
           style="fill:#eeeeee;fill-opacity:1;fill-rule:evenodd;stroke:none"
           d="m 244950.67,130691.5 h -5197.34 c -717.6,0 -1299.33,1365.75 -1299.33,3050.5 0,1684.75 581.73,3050.5 1299.33,3050.5 h 5197.34 v 0 c 717.6,0 1299.33,-1365.75 1299.33,-3050.5 0,-1684.75 -581.73,-3050.5 -1299.33,-3050.5 z" /></g><g
         id="g358"><g
           id="g360"><path
             inkscape:connector-curvature="0"
             id="path362"
             style="fill:#000000;fill-opacity:0;fill-rule:evenodd;stroke:none"
             d="m 239753.33,136792.5 c 717.61,0 1299.34,-1365.75 1299.34,-3050.5 0,-1684.75 -581.73,-3050.5 -1299.34,-3050.5" /></g></g><g
         id="g364"><g
           id="g366"><path
             inkscape:connector-curvature="0"
             id="path368"
             style="fill:#000000;fill-opacity:0;fill-rule:evenodd;stroke:none"
             d="m 244950.67,130691.5 h -5197.34 c -717.6,0 -1299.33,1365.75 -1299.33,3050.5 0,1684.75 581.73,3050.5 1299.33,3050.5 h 5197.34 v 0 c 717.6,0 1299.33,-1365.75 1299.33,-3050.5 0,-1684.75 -581.73,-3050.5 -1299.33,-3050.5 z" /></g></g><path
         inkscape:connector-curvature="0"
         id="path370"
         style="fill:none;stroke:#595959;stroke-width:381;stroke-linecap:butt;stroke-linejoin:round;stroke-miterlimit:8;stroke-dasharray:none;stroke-opacity:1"
         d="m 239753.33,136792.5 c 717.61,0 1299.34,-1365.75 1299.34,-3050.5 0,-1684.75 -581.73,-3050.5 -1299.34,-3050.5" /><path
         inkscape:connector-curvature="0"
         id="path372"
         style="fill:none;stroke:#595959;stroke-width:381;stroke-linecap:butt;stroke-linejoin:round;stroke-miterlimit:8;stroke-dasharray:none;stroke-opacity:1"
         d="m 244950.67,130691.5 h -5197.34 c -717.6,0 -1299.33,1365.75 -1299.33,3050.5 0,1684.75 581.73,3050.5 1299.33,3050.5 h 5197.34 v 0 c 717.6,0 1299.33,-1365.75 1299.33,-3050.5 0,-1684.75 -581.73,-3050.5 -1299.33,-3050.5 z" /></g><g
       id="g374"
       transform="matrix(0.0019685,0,0,-0.0019685,0,405)"><g
         id="g376"><path
           inkscape:connector-curvature="0"
           id="path378"
           style="fill:#eeeeee;fill-opacity:1;fill-rule:evenodd;stroke:none"
           d="m 260733.33,131214.5 h 5197.33 c 717.62,0 1299.34,1365.75 1299.34,3050.5 0,1684.75 -581.72,3050.5 -1299.34,3050.5 h -5197.33 v 0 c -717.6,0 -1299.33,-1365.75 -1299.33,-3050.5 0,-1684.75 581.73,-3050.5 1299.33,-3050.5 z" /></g><g
         id="g380"><g
           id="g382"><path
             inkscape:connector-curvature="0"
             id="path384"
             style="fill:#000000;fill-opacity:0;fill-rule:evenodd;stroke:none"
             d="m 265930.66,137315.5 c -717.6,0 -1299.32,-1365.75 -1299.32,-3050.5 0,-1684.75 581.72,-3050.5 1299.32,-3050.5" /></g></g><g
         id="g386"><g
           id="g388"><path
             inkscape:connector-curvature="0"
             id="path390"
             style="fill:#000000;fill-opacity:0;fill-rule:evenodd;stroke:none"
             d="m 260733.33,131214.5 h 5197.33 c 717.62,0 1299.34,1365.75 1299.34,3050.5 0,1684.75 -581.72,3050.5 -1299.34,3050.5 h -5197.33 v 0 c -717.6,0 -1299.33,-1365.75 -1299.33,-3050.5 0,-1684.75 581.73,-3050.5 1299.33,-3050.5 z" /></g></g><path
         inkscape:connector-curvature="0"
         id="path392"
         style="fill:none;stroke:#595959;stroke-width:381;stroke-linecap:butt;stroke-linejoin:round;stroke-miterlimit:8;stroke-dasharray:none;stroke-opacity:1"
         d="m 265930.66,137315.5 c -717.6,0 -1299.32,-1365.75 -1299.32,-3050.5 0,-1684.75 581.72,-3050.5 1299.32,-3050.5" /><path
         inkscape:connector-curvature="0"
         id="path394"
         style="fill:none;stroke:#595959;stroke-width:381;stroke-linecap:butt;stroke-linejoin:round;stroke-miterlimit:8;stroke-dasharray:none;stroke-opacity:1"
         d="m 260733.33,131214.5 h 5197.33 c 717.62,0 1299.34,1365.75 1299.34,3050.5 0,1684.75 -581.72,3050.5 -1299.34,3050.5 h -5197.33 v 0 c -717.6,0 -1299.33,-1365.75 -1299.33,-3050.5 0,-1684.75 581.73,-3050.5 1299.33,-3050.5 z" /></g><g
       id="g396"
       transform="matrix(0.0019685,0,0,-0.0019685,0,405)"><g
         id="g398"><path
           inkscape:connector-curvature="0"
           id="path400"
           style="fill:#efefef;fill-opacity:1;fill-rule:evenodd;stroke:none"
           d="m 269167,131350 h -6144 v 5808 h 6144 z" /></g></g><g
       id="g402"
       transform="matrix(0.0019685,0,0,-0.0019685,0,405)"><g
         id="g404"><path
           inkscape:connector-curvature="0"
           id="path406"
           style="fill:#d0e0e3;fill-opacity:1;fill-rule:evenodd;stroke:none"
           d="m 287886.12,153008.06 v 0 c 0,-1644.73 -1333.32,-2978.06 -2978.06,-2978.06 H 272996.2 v 0 c -789.86,0 -1547.32,313.77 -2105.82,872.25 -558.5,558.5 -872.26,1315.98 -872.26,2105.81 v 12463.88 c 0,1644.73 1333.32,2978.06 2978.08,2978.06 h 11911.86 c 1644.74,0 2978.06,-1333.33 2978.06,-2978.06 z" /></g><path
         inkscape:connector-curvature="0"
         id="path408"
         style="fill:none;stroke:#000000;stroke-width:762;stroke-linecap:butt;stroke-linejoin:round;stroke-miterlimit:8;stroke-dasharray:none;stroke-opacity:1"
         d="m 287886.12,153008.06 v 0 c 0,-1644.73 -1333.32,-2978.06 -2978.06,-2978.06 H 272996.2 v 0 c -789.86,0 -1547.32,313.77 -2105.82,872.25 -558.5,558.5 -872.26,1315.98 -872.26,2105.81 v 12463.88 c 0,1644.73 1333.32,2978.06 2978.08,2978.06 h 11911.86 c 1644.74,0 2978.06,-1333.33 2978.06,-2978.06 z" /></g><g
       id="g410"
       transform="matrix(0.0019685,0,0,-0.0019685,0,405)"><g
         id="g412"><path
           inkscape:connector-curvature="0"
           id="path414"
           style="fill:#eeeeee;fill-opacity:1;fill-rule:evenodd;stroke:none"
           d="m 270908.66,156189.5 h -5197.32 c -717.62,0 -1299.34,1365.75 -1299.34,3050.5 0,1684.75 581.72,3050.5 1299.34,3050.5 h 5197.32 v 0 c 717.62,0 1299.34,-1365.75 1299.34,-3050.5 0,-1684.75 -581.72,-3050.5 -1299.34,-3050.5 z" /></g><g
         id="g416"><g
           id="g418"><path
             inkscape:connector-curvature="0"
             id="path420"
             style="fill:#000000;fill-opacity:0;fill-rule:evenodd;stroke:none"
             d="m 265711.34,162290.5 c 717.6,0 1299.32,-1365.75 1299.32,-3050.5 0,-1684.75 -581.72,-3050.5 -1299.32,-3050.5" /></g></g><g
         id="g422"><g
           id="g424"><path
             inkscape:connector-curvature="0"
             id="path426"
             style="fill:#000000;fill-opacity:0;fill-rule:evenodd;stroke:none"
             d="m 270908.66,156189.5 h -5197.32 c -717.62,0 -1299.34,1365.75 -1299.34,3050.5 0,1684.75 581.72,3050.5 1299.34,3050.5 h 5197.32 v 0 c 717.62,0 1299.34,-1365.75 1299.34,-3050.5 0,-1684.75 -581.72,-3050.5 -1299.34,-3050.5 z" /></g></g><path
         inkscape:connector-curvature="0"
         id="path428"
         style="fill:none;stroke:#595959;stroke-width:381;stroke-linecap:butt;stroke-linejoin:round;stroke-miterlimit:8;stroke-dasharray:none;stroke-opacity:1"
         d="m 265711.34,162290.5 c 717.6,0 1299.32,-1365.75 1299.32,-3050.5 0,-1684.75 -581.72,-3050.5 -1299.32,-3050.5" /><path
         inkscape:connector-curvature="0"
         id="path430"
         style="fill:none;stroke:#595959;stroke-width:381;stroke-linecap:butt;stroke-linejoin:round;stroke-miterlimit:8;stroke-dasharray:none;stroke-opacity:1"
         d="m 270908.66,156189.5 h -5197.32 c -717.62,0 -1299.34,1365.75 -1299.34,3050.5 0,1684.75 581.72,3050.5 1299.34,3050.5 h 5197.32 v 0 c 717.62,0 1299.34,-1365.75 1299.34,-3050.5 0,-1684.75 -581.72,-3050.5 -1299.34,-3050.5 z" /></g><g
       id="g432"
       transform="matrix(0.0019685,0,0,-0.0019685,0,405)"><g
         id="g434"><path
           inkscape:connector-curvature="0"
           id="path436"
           style="fill:#eeeeee;fill-opacity:1;fill-rule:evenodd;stroke:none"
           d="m 287239.34,155666.5 h 5197.32 c 717.62,0 1299.34,1365.75 1299.34,3050.5 0,1684.75 -581.72,3050.5 -1299.34,3050.5 h -5197.32 v 0 c -717.62,0 -1299.34,-1365.75 -1299.34,-3050.5 0,-1684.75 581.72,-3050.5 1299.34,-3050.5 z" /></g><g
         id="g438"><g
           id="g440"><path
             inkscape:connector-curvature="0"
             id="path442"
             style="fill:#000000;fill-opacity:0;fill-rule:evenodd;stroke:none"
             d="m 292436.66,161767.5 c -717.6,0 -1299.32,-1365.75 -1299.32,-3050.5 0,-1684.75 581.72,-3050.5 1299.32,-3050.5" /></g></g><g
         id="g444"><g
           id="g446"><path
             inkscape:connector-curvature="0"
             id="path448"
             style="fill:#000000;fill-opacity:0;fill-rule:evenodd;stroke:none"
             d="m 287239.34,155666.5 h 5197.32 c 717.62,0 1299.34,1365.75 1299.34,3050.5 0,1684.75 -581.72,3050.5 -1299.34,3050.5 h -5197.32 v 0 c -717.62,0 -1299.34,-1365.75 -1299.34,-3050.5 0,-1684.75 581.72,-3050.5 1299.34,-3050.5 z" /></g></g><path
         inkscape:connector-curvature="0"
         id="path450"
         style="fill:none;stroke:#595959;stroke-width:381;stroke-linecap:butt;stroke-linejoin:round;stroke-miterlimit:8;stroke-dasharray:none;stroke-opacity:1"
         d="m 292436.66,161767.5 c -717.6,0 -1299.32,-1365.75 -1299.32,-3050.5 0,-1684.75 581.72,-3050.5 1299.32,-3050.5" /><path
         inkscape:connector-curvature="0"
         id="path452"
         style="fill:none;stroke:#595959;stroke-width:381;stroke-linecap:butt;stroke-linejoin:round;stroke-miterlimit:8;stroke-dasharray:none;stroke-opacity:1"
         d="m 287239.34,155666.5 h 5197.32 c 717.62,0 1299.34,1365.75 1299.34,3050.5 0,1684.75 -581.72,3050.5 -1299.34,3050.5 h -5197.32 v 0 c -717.62,0 -1299.34,-1365.75 -1299.34,-3050.5 0,-1684.75 581.72,-3050.5 1299.34,-3050.5 z" /></g><g
       id="g454"
       transform="matrix(0.0019685,0,0,-0.0019685,0,405)"><g
         id="g456"><path
           inkscape:connector-curvature="0"
           id="path458"
           style="fill:#d0e0e3;fill-opacity:1;fill-rule:evenodd;stroke:none"
           d="m 261624,153008.06 v 0 c 0,-1644.73 -1333.33,-2978.06 -2978.06,-2978.06 h -11911.88 v 0 c -789.83,0 -1547.31,313.77 -2105.81,872.25 -558.48,558.5 -872.25,1315.98 -872.25,2105.81 v 12463.88 c 0,1644.73 1333.33,2978.06 2978.06,2978.06 h 11911.88 c 1644.73,0 2978.06,-1333.33 2978.06,-2978.06 z" /></g><path
         inkscape:connector-curvature="0"
         id="path460"
         style="fill:none;stroke:#000000;stroke-width:762;stroke-linecap:butt;stroke-linejoin:round;stroke-miterlimit:8;stroke-dasharray:none;stroke-opacity:1"
         d="m 261624,153008.06 v 0 c 0,-1644.73 -1333.33,-2978.06 -2978.06,-2978.06 h -11911.88 v 0 c -789.83,0 -1547.31,313.77 -2105.81,872.25 -558.48,558.5 -872.25,1315.98 -872.25,2105.81 v 12463.88 c 0,1644.73 1333.33,2978.06 2978.06,2978.06 h 11911.88 c 1644.73,0 2978.06,-1333.33 2978.06,-2978.06 z" /></g><g
       id="g462"
       transform="matrix(0.0019685,0,0,-0.0019685,0,405)"><g
         id="g464"><path
           inkscape:connector-curvature="0"
           id="path466"
           style="fill:#eeeeee;fill-opacity:1;fill-rule:evenodd;stroke:none"
           d="m 244950.67,155666.5 h -5197.34 c -717.6,0 -1299.33,1365.75 -1299.33,3050.5 0,1684.75 581.73,3050.5 1299.33,3050.5 h 5197.34 v 0 c 717.6,0 1299.33,-1365.75 1299.33,-3050.5 0,-1684.75 -581.73,-3050.5 -1299.33,-3050.5 z" /></g><g
         id="g468"><g
           id="g470"><path
             inkscape:connector-curvature="0"
             id="path472"
             style="fill:#000000;fill-opacity:0;fill-rule:evenodd;stroke:none"
             d="m 239753.33,161767.5 c 717.61,0 1299.34,-1365.75 1299.34,-3050.5 0,-1684.75 -581.73,-3050.5 -1299.34,-3050.5" /></g></g><g
         id="g474"><g
           id="g476"><path
             inkscape:connector-curvature="0"
             id="path478"
             style="fill:#000000;fill-opacity:0;fill-rule:evenodd;stroke:none"
             d="m 244950.67,155666.5 h -5197.34 c -717.6,0 -1299.33,1365.75 -1299.33,3050.5 0,1684.75 581.73,3050.5 1299.33,3050.5 h 5197.34 v 0 c 717.6,0 1299.33,-1365.75 1299.33,-3050.5 0,-1684.75 -581.73,-3050.5 -1299.33,-3050.5 z" /></g></g><path
         inkscape:connector-curvature="0"
         id="path480"
         style="fill:none;stroke:#595959;stroke-width:381;stroke-linecap:butt;stroke-linejoin:round;stroke-miterlimit:8;stroke-dasharray:none;stroke-opacity:1"
         d="m 239753.33,161767.5 c 717.61,0 1299.34,-1365.75 1299.34,-3050.5 0,-1684.75 -581.73,-3050.5 -1299.34,-3050.5" /><path
         inkscape:connector-curvature="0"
         id="path482"
         style="fill:none;stroke:#595959;stroke-width:381;stroke-linecap:butt;stroke-linejoin:round;stroke-miterlimit:8;stroke-dasharray:none;stroke-opacity:1"
         d="m 244950.67,155666.5 h -5197.34 c -717.6,0 -1299.33,1365.75 -1299.33,3050.5 0,1684.75 581.73,3050.5 1299.33,3050.5 h 5197.34 v 0 c 717.6,0 1299.33,-1365.75 1299.33,-3050.5 0,-1684.75 -581.73,-3050.5 -1299.33,-3050.5 z" /></g><g
       id="g484"
       transform="matrix(0.0019685,0,0,-0.0019685,0,405)"><g
         id="g486"><path
           inkscape:connector-curvature="0"
           id="path488"
           style="fill:#eeeeee;fill-opacity:1;fill-rule:evenodd;stroke:none"
           d="m 260733.33,156189.5 h 5197.33 c 717.62,0 1299.34,1365.75 1299.34,3050.5 0,1684.75 -581.72,3050.5 -1299.34,3050.5 h -5197.33 v 0 c -717.6,0 -1299.33,-1365.75 -1299.33,-3050.5 0,-1684.75 581.73,-3050.5 1299.33,-3050.5 z" /></g><g
         id="g490"><g
           id="g492"><path
             inkscape:connector-curvature="0"
             id="path494"
             style="fill:#000000;fill-opacity:0;fill-rule:evenodd;stroke:none"
             d="m 265930.66,162290.5 c -717.6,0 -1299.32,-1365.75 -1299.32,-3050.5 0,-1684.75 581.72,-3050.5 1299.32,-3050.5" /></g></g><g
         id="g496"><g
           id="g498"><path
             inkscape:connector-curvature="0"
             id="path500"
             style="fill:#000000;fill-opacity:0;fill-rule:evenodd;stroke:none"
             d="m 260733.33,156189.5 h 5197.33 c 717.62,0 1299.34,1365.75 1299.34,3050.5 0,1684.75 -581.72,3050.5 -1299.34,3050.5 h -5197.33 v 0 c -717.6,0 -1299.33,-1365.75 -1299.33,-3050.5 0,-1684.75 581.73,-3050.5 1299.33,-3050.5 z" /></g></g><path
         inkscape:connector-curvature="0"
         id="path502"
         style="fill:none;stroke:#595959;stroke-width:381;stroke-linecap:butt;stroke-linejoin:round;stroke-miterlimit:8;stroke-dasharray:none;stroke-opacity:1"
         d="m 265930.66,162290.5 c -717.6,0 -1299.32,-1365.75 -1299.32,-3050.5 0,-1684.75 581.72,-3050.5 1299.32,-3050.5" /><path
         inkscape:connector-curvature="0"
         id="path504"
         style="fill:none;stroke:#595959;stroke-width:381;stroke-linecap:butt;stroke-linejoin:round;stroke-miterlimit:8;stroke-dasharray:none;stroke-opacity:1"
         d="m 260733.33,156189.5 h 5197.33 c 717.62,0 1299.34,1365.75 1299.34,3050.5 0,1684.75 -581.72,3050.5 -1299.34,3050.5 h -5197.33 v 0 c -717.6,0 -1299.33,-1365.75 -1299.33,-3050.5 0,-1684.75 581.73,-3050.5 1299.33,-3050.5 z" /></g><g
       id="g506"
       transform="matrix(0.0019685,0,0,-0.0019685,0,405)"><g
         id="g508"><path
           inkscape:connector-curvature="0"
           id="path510"
           style="fill:#efefef;fill-opacity:1;fill-rule:evenodd;stroke:none"
           d="m 269167,156325 h -6144 v 5808 h 6144 z" /></g></g><g
       id="g512"
       transform="matrix(0.0019685,0,0,-0.0019685,0,405)"><g
         id="g514"><g
           id="g516"><path
             inkscape:connector-curvature="0"
             id="path518"
             style="fill:#000000;fill-opacity:0;fill-rule:evenodd;stroke:none"
             d="m 263095,175069 h -96" /></g></g><path
         inkscape:connector-curvature="0"
         id="path520"
         style="fill:none;stroke:#595959;stroke-width:1524;stroke-linecap:butt;stroke-linejoin:round;stroke-miterlimit:8;stroke-dasharray:1524, 4572;stroke-dashoffset:0;stroke-opacity:1"
         d="m 263095,175069 h -96" /><path
         inkscape:connector-curvature="0"
         id="path522"
         style="fill:#595959;fill-opacity:1;fill-rule:nonzero;stroke:#595959;stroke-width:1524;stroke-linecap:butt;stroke-linejoin:miter;stroke-miterlimit:10;stroke-dasharray:none;stroke-opacity:1"
         d="m 268012.97,175069 c 0,1384.56 -1122.44,2506.98 -2507,2506.98 -1384.57,0 -2506.97,-1122.42 -2506.97,-2506.98 0,-1384.56 1122.4,-2506.98 2506.97,-2506.98 1384.56,0 2507,1122.42 2507,2506.98 z" /></g><g
       id="g524"
       transform="matrix(0.0019685,0,0,-0.0019685,0,405)"><g
         id="g526"><g
           id="g528"><path
             inkscape:connector-curvature="0"
             id="path530"
             style="fill:#000000;fill-opacity:0;fill-rule:evenodd;stroke:none"
             d="m 263095,188880 h -96" /></g></g><path
         inkscape:connector-curvature="0"
         id="path532"
         style="fill:none;stroke:#595959;stroke-width:1524;stroke-linecap:butt;stroke-linejoin:round;stroke-miterlimit:8;stroke-dasharray:1524, 4572;stroke-dashoffset:0;stroke-opacity:1"
         d="m 263095,188880 h -96" /><path
         inkscape:connector-curvature="0"
         id="path534"
         style="fill:#595959;fill-opacity:1;fill-rule:nonzero;stroke:#595959;stroke-width:1524;stroke-linecap:butt;stroke-linejoin:miter;stroke-miterlimit:10;stroke-dasharray:none;stroke-opacity:1"
         d="m 268012.97,188880 c 0,1384.56 -1122.44,2506.98 -2507,2506.98 -1384.57,0 -2506.97,-1122.42 -2506.97,-2506.98 0,-1384.56 1122.4,-2506.98 2506.97,-2506.98 1384.56,0 2507,1122.42 2507,2506.98 z" /></g><g
       id="g536"
       transform="matrix(0.0019685,0,0,-0.0019685,0,405)"><g
         id="g538"><g
           id="g540"><path
             inkscape:connector-curvature="0"
             id="path542"
             style="fill:#000000;fill-opacity:0;fill-rule:evenodd;stroke:none"
             d="m 263095,182023 h -96" /></g></g><path
         inkscape:connector-curvature="0"
         id="path544"
         style="fill:none;stroke:#595959;stroke-width:1524;stroke-linecap:butt;stroke-linejoin:round;stroke-miterlimit:8;stroke-dasharray:1524, 4572;stroke-dashoffset:0;stroke-opacity:1"
         d="m 263095,182023 h -96" /><path
         inkscape:connector-curvature="0"
         id="path546"
         style="fill:#595959;fill-opacity:1;fill-rule:nonzero;stroke:#595959;stroke-width:1524;stroke-linecap:butt;stroke-linejoin:miter;stroke-miterlimit:10;stroke-dasharray:none;stroke-opacity:1"
         d="m 268012.97,182023 c 0,1384.56 -1122.44,2506.98 -2507,2506.98 -1384.57,0 -2506.97,-1122.42 -2506.97,-2506.98 0,-1384.56 1122.4,-2506.98 2506.97,-2506.98 1384.56,0 2507,1122.42 2507,2506.98 z" /></g><g
       id="g548"
       transform="matrix(0.0019685,0,0,-0.0019685,0,405)"><g
         id="g550"><g
           id="g552"><path
             inkscape:connector-curvature="0"
             id="path554"
             style="fill:#000000;fill-opacity:0;fill-rule:evenodd;stroke:none"
             d="m 157369,137203 h 54120 v 10392 h -54120 z" /></g></g></g><g
       transform="matrix(0.7499985,0,0,-0.7499985,0,405)"
       id="g556"><g
         transform="translate(413.042,360.11285)"
         id="g558"><g
           id="g560"><text
             id="text564"
             style="font-variant:normal;font-weight:bold;font-size:64px;font-family:'Source Code Pro';-inkscape-font-specification:SourceCodePro-Bold;writing-mode:lr-tb;fill:#000000;fill-opacity:1;fill-rule:nonzero;stroke:none"
             transform="translate(13.423721,36.577793)"><tspan
               id="tspan562"
               sodipodi:role="line"
               y="0"
               x="0 38.400002 76.800003">,N)</tspan></text>
</g></g></g><g
       transform="matrix(0.7499985,0,0,-0.7499985,0,405)"
       id="g566" /><g
       id="g568"
       transform="matrix(0.0019685,0,0,-0.0019685,0,405)"><g
         id="g570"><g
           id="g572"><path
             inkscape:connector-curvature="0"
             id="path574"
             style="fill:#000000;fill-opacity:0;fill-rule:evenodd;stroke:none"
             d="m 69031.266,137394 h 54120.004 v 10392 H 69031.266 Z" /></g></g></g><g
       transform="matrix(0.7499985,0,0,-0.7499985,0,405)"
       id="g576"><g
         transform="translate(181.18443,360.61417)"
         id="g578"><g
           id="g580"><text
             id="text584"
             style="font-variant:normal;font-weight:bold;font-size:64px;font-family:'Source Code Pro';-inkscape-font-specification:SourceCodePro-Bold;writing-mode:lr-tb;fill:#000000;fill-opacity:1;fill-rule:nonzero;stroke:none"
             transform="translate(51.823654,36.577793)"><tspan
               id="tspan582"
               y="0"
               x="0">(</tspan></text>
</g></g></g><g
       transform="matrix(0.7499985,0,0,-0.7499985,0,405)"
       id="g586" /><g
       id="g588"
       transform="matrix(0.0019685,0,0,-0.0019685,0,405)"><g
         id="g590"><path
           inkscape:connector-curvature="0"
           id="path592"
           style="fill:#6aa84f;fill-opacity:1;fill-rule:evenodd;stroke:none"
           d="m 215275.89,112982.06 20046.11,5843.64 786,-2697 3821.89,6966.36 -6965.89,3821.64 786,-2697 -20046.11,-5843.64 z" /></g></g><g
       id="g594"
       transform="matrix(0.0019685,0,0,-0.0019685,0,405)"><g
         id="g596"><path
           inkscape:connector-curvature="0"
           id="path598"
           style="fill:#6aa84f;fill-opacity:1;fill-rule:evenodd;stroke:none"
           d="m 215275.89,135585.06 20046.11,5843.63 786,-2697 3821.89,6966.37 -6965.89,3821.63 786,-2697 -20046.11,-5843.63 z" /></g></g><g
       id="g600"
       transform="matrix(0.0019685,0,0,-0.0019685,0,405)"><g
         id="g602"><path
           inkscape:connector-curvature="0"
           id="path604"
           style="fill:#6aa84f;fill-opacity:1;fill-rule:evenodd;stroke:none"
           d="m 215275.89,90398.06 20046.11,5843.635 786,-2697 3821.89,6966.365 -6965.89,3821.64 786,-2697 -20046.11,-5843.64 z" /></g></g></g></svg>