<?xml version="1.0" encoding="UTF-8" standalone="no"?>
<!-- Created with Inkscape (http://www.inkscape.org/) -->

<svg
   xmlns:dc="http://purl.org/dc/elements/1.1/"
   xmlns:cc="http://creativecommons.org/ns#"
   xmlns:rdf="http://www.w3.org/1999/02/22-rdf-syntax-ns#"
   xmlns:svg="http://www.w3.org/2000/svg"
   xmlns="http://www.w3.org/2000/svg"
   xmlns:sodipodi="http://sodipodi.sourceforge.net/DTD/sodipodi-0.dtd"
   xmlns:inkscape="http://www.inkscape.org/namespaces/inkscape"
   version="1.1"
   id="svg2"
   xml:space="preserve"
   width="713.89075"
   height="280.24771"
   viewBox="0 0 713.89075 280.24771"
   sodipodi:docname="slide4.svg"
   inkscape:version="0.92.4 5da689c313, 2019-01-14"><metadata
     id="metadata8"><rdf:RDF><cc:Work
         rdf:about=""><dc:format>image/svg+xml</dc:format><dc:type
           rdf:resource="http://purl.org/dc/dcmitype/StillImage" /><dc:title></dc:title></cc:Work></rdf:RDF></metadata><defs
     id="defs6"><clipPath
       clipPathUnits="userSpaceOnUse"
       id="clipPath20"><path
         d="M 0,0 H 365760 V 205740 H 0 Z"
         id="path18"
         inkscape:connector-curvature="0" /></clipPath></defs><sodipodi:namedview
     pagecolor="#ffffff"
     bordercolor="#666666"
     borderopacity="1"
     objecttolerance="10"
     gridtolerance="10"
     guidetolerance="10"
     inkscape:pageopacity="0"
     inkscape:pageshadow="2"
     inkscape:window-width="1920"
     inkscape:window-height="983"
     id="namedview4"
     showgrid="false"
     fit-margin-top="0"
     fit-margin-left="0"
     fit-margin-right="0"
     fit-margin-bottom="0"
     inkscape:zoom="0.6180637"
     inkscape:cx="422.89653"
     inkscape:cy="69.296875"
     inkscape:window-x="0"
     inkscape:window-y="27"
     inkscape:window-maximized="1"
     inkscape:current-layer="g10" /><g
     id="g10"
     inkscape:groupmode="layer"
     inkscape:label="mlr3Pipelines_graphics"
     transform="matrix(1.3333333,0,0,-1.3333333,-88.096999,458.1747)"><g
       transform="matrix(0.7499985,0,0,-0.7499985,0,405)"
       id="g46" /><g
       transform="matrix(0.7499985,0,0,-0.7499985,0,405)"
       id="g82" /><g
       transform="matrix(0.7499985,0,0,-0.7499985,0,405)"
       id="g650" /><g
       id="g28"
       transform="matrix(0.0019685,0,0,-0.0019685,17.189278,518.58523)"><g
         id="g30"><g
           id="g32"><path
             inkscape:connector-curvature="0"
             id="path34"
             style="fill:#000000;fill-opacity:0;fill-rule:evenodd;stroke:none"
             d="m 127650.72,137491 h 36840 v 10392 h -36840 z" /></g></g></g><g
       transform="matrix(0.7499985,0,0,-0.7499985,17.189278,518.58523)"
       id="g36"><g
         transform="translate(335.04126,360.86877)"
         id="g38"><g
           id="g40"><text
             id="text44"
             style="font-variant:normal;font-weight:bold;font-size:64px;font-family:'Source Code Pro';-inkscape-font-specification:SourceCodePro-Bold;writing-mode:lr-tb;fill:#000000;fill-opacity:1;fill-rule:nonzero;stroke:none"
             transform="translate(29.146492,36.577793)"><tspan
               id="tspan42"
               y="0"
               x="0">,</tspan></text>
</g></g></g><g
       id="g48"
       transform="matrix(0.0019685,0,0,-0.0019685,17.189278,518.58523)"><g
         id="g50"><path
           inkscape:connector-curvature="0"
           id="path52"
           style="fill:#efefef;fill-opacity:1;fill-rule:evenodd;stroke:none"
           d="m 218873.52,154589 v -5430 h -11448 v -10860 h 11448 v -5430 l 10860,10860 z" /></g><path
         inkscape:connector-curvature="0"
         id="path54"
         style="fill:none;stroke:#cccccc;stroke-width:381;stroke-linecap:butt;stroke-linejoin:round;stroke-miterlimit:8;stroke-dasharray:none;stroke-opacity:1"
         d="m 218873.52,154589 v -5430 h -11448 v -10860 h 11448 v -5430 l 10860,10860 z" /></g><g
       id="g56"
       transform="matrix(0.0019685,0,0,-0.0019685,17.189278,518.58523)"><g
         id="g58"><path
           inkscape:connector-curvature="0"
           id="path60"
           style="fill:#f3f3f3;fill-opacity:1;fill-rule:evenodd;stroke:none"
           d="m 235555.28,185280.8 v 0 c 0,5622.37 4557.83,10180.2 10180.2,10180.2 h 40719.58 v 0 c 2699.97,0 5289.34,-1072.55 7198.5,-2981.72 1909.16,-1909.16 2981.72,-4498.53 2981.72,-7198.48 v -83103.6 c 0,-5622.364 -4557.84,-10180.2 -10180.22,-10180.2 h -40719.58 c -5622.37,0 -10180.2,4557.836 -10180.2,10180.2 z" /></g><path
         inkscape:connector-curvature="0"
         id="path62"
         style="fill:none;stroke:#595959;stroke-width:381;stroke-linecap:butt;stroke-linejoin:round;stroke-miterlimit:8;stroke-dasharray:none;stroke-opacity:1"
         d="m 235555.28,185280.8 v 0 c 0,5622.37 4557.83,10180.2 10180.2,10180.2 h 40719.58 v 0 c 2699.97,0 5289.34,-1072.55 7198.5,-2981.72 1909.16,-1909.16 2981.72,-4498.53 2981.72,-7198.48 v -83103.6 c 0,-5622.364 -4557.84,-10180.2 -10180.22,-10180.2 h -40719.58 c -5622.37,0 -10180.2,4557.836 -10180.2,10180.2 z" /></g><g
       id="g64"
       transform="matrix(0.0019685,0,0,-0.0019685,17.189278,518.58523)"><g
         id="g66"><g
           id="g68"><path
             inkscape:connector-curvature="0"
             id="path70"
             style="fill:#000000;fill-opacity:0;fill-rule:evenodd;stroke:none"
             d="M 24832.854,138014 H 70816.85 v 10392 H 24832.854 Z" /></g></g></g><g
       transform="matrix(0.7499985,0,0,-0.7499985,17.189278,518.58523)"
       id="g72"><g
         transform="translate(65.17809,362.24146)"
         id="g74"><g
           id="g76"><text
             id="text80"
             style="font-variant:normal;font-weight:bold;font-size:24px;font-family:'Source Code Pro';-inkscape-font-specification:SourceCodePro-Bold;writing-mode:lr-tb;fill:#000000;fill-opacity:1;fill-rule:nonzero;stroke:none"
             transform="translate(17.146568,22.177794)"><tspan
               id="tspan78"
               sodipodi:role="line"
               y="0"
               x="0 14.4 28.799999 43.200001 57.599998 72">gunion</tspan></text>
</g></g></g><g
       id="g84"
       transform="matrix(0.0019685,0,0,-0.0019685,17.189278,518.58523)"><g
         id="g86"><path
           inkscape:connector-curvature="0"
           id="path88"
           style="fill:#f3f3f3;fill-opacity:1;fill-rule:evenodd;stroke:none"
           d="m 151348.92,121555.13 v 0 c 0,-3449.65 2796.48,-6246.13 6246.13,-6246.13 h 24983.75 v 0 c 1656.56,0 3245.3,658.07 4416.67,1829.44 1171.37,1171.38 1829.45,2760.11 1829.45,4416.69 v 42263.75 c 0,3449.64 -2796.48,6246.12 -6246.12,6246.12 h -24983.75 c -3449.65,0 -6246.13,-2796.48 -6246.13,-6246.12 z" /></g><path
         inkscape:connector-curvature="0"
         id="path90"
         style="fill:none;stroke:#595959;stroke-width:381;stroke-linecap:butt;stroke-linejoin:round;stroke-miterlimit:8;stroke-dasharray:none;stroke-opacity:1"
         d="m 151348.92,121555.13 v 0 c 0,-3449.65 2796.48,-6246.13 6246.13,-6246.13 h 24983.75 v 0 c 1656.56,0 3245.3,658.07 4416.67,1829.44 1171.37,1171.38 1829.45,2760.11 1829.45,4416.69 v 42263.75 c 0,3449.64 -2796.48,6246.12 -6246.12,6246.12 h -24983.75 c -3449.65,0 -6246.13,-2796.48 -6246.13,-6246.12 z" /></g><g
       id="g92"
       transform="matrix(0.0019685,0,0,-0.0019685,17.189278,518.58523)"><g
         id="g94"><path
           inkscape:connector-curvature="0"
           id="path96"
           style="fill:#d0e0e3;fill-opacity:1;fill-rule:evenodd;stroke:none"
           d="m 161339.92,124166.06 v 0 c 0,-1644.74 1333.31,-2978.06 2978.05,-2978.06 h 11911.89 v 0 c 789.83,0 1547.31,313.76 2105.8,872.25 558.5,558.5 872.26,1315.98 872.26,2105.81 v 38083.88 c 0,1644.73 -1333.32,2978.06 -2978.06,2978.06 h -11911.89 c -1644.74,0 -2978.05,-1333.33 -2978.05,-2978.06 z" /></g><path
         inkscape:connector-curvature="0"
         id="path98"
         style="fill:none;stroke:#000000;stroke-width:762;stroke-linecap:butt;stroke-linejoin:round;stroke-miterlimit:8;stroke-dasharray:none;stroke-opacity:1"
         d="m 161339.92,124166.06 v 0 c 0,-1644.74 1333.31,-2978.06 2978.05,-2978.06 h 11911.89 v 0 c 789.83,0 1547.31,313.76 2105.8,872.25 558.5,558.5 872.26,1315.98 872.26,2105.81 v 38083.88 c 0,1644.73 -1333.32,2978.06 -2978.06,2978.06 h -11911.89 c -1644.74,0 -2978.05,-1333.33 -2978.05,-2978.06 z" /></g><g
       id="g100"
       transform="matrix(0.0019685,0,0,-0.0019685,17.189278,518.58523)"><g
         id="g102"><path
           inkscape:connector-curvature="0"
           id="path104"
           style="fill:#eeeeee;fill-opacity:1;fill-rule:evenodd;stroke:none"
           d="m 162230.58,152971.5 h -5197.33 c -717.61,0 -1299.33,1365.75 -1299.33,3050.5 0,1684.75 581.72,3050.5 1299.33,3050.5 h 5197.33 v 0 c 717.61,0 1299.34,-1365.75 1299.34,-3050.5 0,-1684.75 -581.73,-3050.5 -1299.34,-3050.5 z" /></g><g
         id="g106"><g
           id="g108"><path
             inkscape:connector-curvature="0"
             id="path110"
             style="fill:#000000;fill-opacity:0;fill-rule:evenodd;stroke:none"
             d="m 157033.25,159072.5 c 717.61,0 1299.33,-1365.75 1299.33,-3050.5 0,-1684.75 -581.72,-3050.5 -1299.33,-3050.5" /></g></g><g
         id="g112"><g
           id="g114"><path
             inkscape:connector-curvature="0"
             id="path116"
             style="fill:#000000;fill-opacity:0;fill-rule:evenodd;stroke:none"
             d="m 162230.58,152971.5 h -5197.33 c -717.61,0 -1299.33,1365.75 -1299.33,3050.5 0,1684.75 581.72,3050.5 1299.33,3050.5 h 5197.33 v 0 c 717.61,0 1299.34,-1365.75 1299.34,-3050.5 0,-1684.75 -581.73,-3050.5 -1299.34,-3050.5 z" /></g></g><path
         inkscape:connector-curvature="0"
         id="path118"
         style="fill:none;stroke:#595959;stroke-width:381;stroke-linecap:butt;stroke-linejoin:round;stroke-miterlimit:8;stroke-dasharray:none;stroke-opacity:1"
         d="m 157033.25,159072.5 c 717.61,0 1299.33,-1365.75 1299.33,-3050.5 0,-1684.75 -581.72,-3050.5 -1299.33,-3050.5" /><path
         inkscape:connector-curvature="0"
         id="path120"
         style="fill:none;stroke:#595959;stroke-width:381;stroke-linecap:butt;stroke-linejoin:round;stroke-miterlimit:8;stroke-dasharray:none;stroke-opacity:1"
         d="m 162230.58,152971.5 h -5197.33 c -717.61,0 -1299.33,1365.75 -1299.33,3050.5 0,1684.75 581.72,3050.5 1299.33,3050.5 h 5197.33 v 0 c 717.61,0 1299.34,-1365.75 1299.34,-3050.5 0,-1684.75 -581.73,-3050.5 -1299.34,-3050.5 z" /></g><g
       id="g122"
       transform="matrix(0.0019685,0,0,-0.0019685,17.189278,518.58523)"><g
         id="g124"><path
           inkscape:connector-curvature="0"
           id="path126"
           style="fill:#eeeeee;fill-opacity:1;fill-rule:evenodd;stroke:none"
           d="m 162230.58,127347.5 h -5197.33 c -717.61,0 -1299.33,1365.76 -1299.33,3050.5 0,1684.75 581.72,3050.5 1299.33,3050.5 h 5197.33 v 0 c 717.61,0 1299.34,-1365.75 1299.34,-3050.5 0,-1684.74 -581.73,-3050.5 -1299.34,-3050.5 z" /></g><g
         id="g128"><g
           id="g130"><path
             inkscape:connector-curvature="0"
             id="path132"
             style="fill:#000000;fill-opacity:0;fill-rule:evenodd;stroke:none"
             d="m 157033.25,133448.5 c 717.61,0 1299.33,-1365.75 1299.33,-3050.5 0,-1684.74 -581.72,-3050.5 -1299.33,-3050.5" /></g></g><g
         id="g134"><g
           id="g136"><path
             inkscape:connector-curvature="0"
             id="path138"
             style="fill:#000000;fill-opacity:0;fill-rule:evenodd;stroke:none"
             d="m 162230.58,127347.5 h -5197.33 c -717.61,0 -1299.33,1365.76 -1299.33,3050.5 0,1684.75 581.72,3050.5 1299.33,3050.5 h 5197.33 v 0 c 717.61,0 1299.34,-1365.75 1299.34,-3050.5 0,-1684.74 -581.73,-3050.5 -1299.34,-3050.5 z" /></g></g><path
         inkscape:connector-curvature="0"
         id="path140"
         style="fill:none;stroke:#595959;stroke-width:381;stroke-linecap:butt;stroke-linejoin:round;stroke-miterlimit:8;stroke-dasharray:none;stroke-opacity:1"
         d="m 157033.25,133448.5 c 717.61,0 1299.33,-1365.75 1299.33,-3050.5 0,-1684.74 -581.72,-3050.5 -1299.33,-3050.5" /><path
         inkscape:connector-curvature="0"
         id="path142"
         style="fill:none;stroke:#595959;stroke-width:381;stroke-linecap:butt;stroke-linejoin:round;stroke-miterlimit:8;stroke-dasharray:none;stroke-opacity:1"
         d="m 162230.58,127347.5 h -5197.33 c -717.61,0 -1299.33,1365.76 -1299.33,3050.5 0,1684.75 581.72,3050.5 1299.33,3050.5 h 5197.33 v 0 c 717.61,0 1299.34,-1365.75 1299.34,-3050.5 0,-1684.74 -581.73,-3050.5 -1299.34,-3050.5 z" /></g><g
       id="g144"
       transform="matrix(0.0019685,0,0,-0.0019685,17.189278,518.58523)"><g
         id="g146"><path
           inkscape:connector-curvature="0"
           id="path148"
           style="fill:#f3f3f3;fill-opacity:1;fill-rule:evenodd;stroke:none"
           d="m 139794.92,124435.18 v 0 c 0,-5040.25 -4085.94,-9126.18 -9126.19,-9126.18 H 87841.1 c -2420.41,0 -4741.69,961.51 -6453.186,2673 -1711.494,1711.48 -2673,4032.77 -2673,6453.18 v 36503.63 c 0,5040.25 4085.936,9126.19 9126.186,9126.19 h 42827.63 c 5040.25,0 9126.19,-4085.94 9126.19,-9126.19 z" /></g><path
         inkscape:connector-curvature="0"
         id="path150"
         style="fill:none;stroke:#595959;stroke-width:381;stroke-linecap:butt;stroke-linejoin:round;stroke-miterlimit:8;stroke-dasharray:none;stroke-opacity:1"
         d="m 139794.92,124435.18 v 0 c 0,-5040.25 -4085.94,-9126.18 -9126.19,-9126.18 H 87841.1 c -2420.41,0 -4741.69,961.51 -6453.186,2673 -1711.494,1711.48 -2673,4032.77 -2673,6453.18 v 36503.63 c 0,5040.25 4085.936,9126.19 9126.186,9126.19 h 42827.63 c 5040.25,0 9126.19,-4085.94 9126.19,-9126.19 z" /></g><g
       id="g152"
       transform="matrix(0.0019685,0,0,-0.0019685,17.189278,518.58523)"><g
         id="g154"><path
           inkscape:connector-curvature="0"
           id="path156"
           style="fill:#d0e0e3;fill-opacity:1;fill-rule:evenodd;stroke:none"
           d="m 130704.05,124166.06 v 0 c 0,-1644.74 -1333.33,-2978.06 -2978.07,-2978.06 H 115814.1 v 0 c -789.83,0 -1547.31,313.76 -2105.8,872.25 -558.49,558.5 -872.25,1315.98 -872.25,2105.81 v 12463.88 c 0,1644.73 1333.32,2978.06 2978.05,2978.06 h 11911.88 c 1644.74,0 2978.07,-1333.33 2978.07,-2978.06 z" /></g><path
         inkscape:connector-curvature="0"
         id="path158"
         style="fill:none;stroke:#000000;stroke-width:762;stroke-linecap:butt;stroke-linejoin:round;stroke-miterlimit:8;stroke-dasharray:none;stroke-opacity:1"
         d="m 130704.05,124166.06 v 0 c 0,-1644.74 -1333.33,-2978.06 -2978.07,-2978.06 H 115814.1 v 0 c -789.83,0 -1547.31,313.76 -2105.8,872.25 -558.49,558.5 -872.25,1315.98 -872.25,2105.81 v 12463.88 c 0,1644.73 1333.32,2978.06 2978.05,2978.06 h 11911.88 c 1644.74,0 2978.07,-1333.33 2978.07,-2978.06 z" /></g><g
       id="g160"
       transform="matrix(0.0019685,0,0,-0.0019685,17.189278,518.58523)"><g
         id="g162"><path
           inkscape:connector-curvature="0"
           id="path164"
           style="fill:#eeeeee;fill-opacity:1;fill-rule:evenodd;stroke:none"
           d="m 113726.59,127347.5 h -5197.34 c -717.6,0 -1299.34,1365.76 -1299.34,3050.5 0,1684.75 581.74,3050.5 1299.34,3050.5 h 5197.34 v 0 c 717.6,0 1299.32,-1365.75 1299.32,-3050.5 0,-1684.74 -581.72,-3050.5 -1299.32,-3050.5 z" /></g><g
         id="g166"><g
           id="g168"><path
             inkscape:connector-curvature="0"
             id="path170"
             style="fill:#000000;fill-opacity:0;fill-rule:evenodd;stroke:none"
             d="m 108529.25,133448.5 c 717.6,0 1299.34,-1365.75 1299.34,-3050.5 0,-1684.74 -581.74,-3050.5 -1299.34,-3050.5" /></g></g><g
         id="g172"><g
           id="g174"><path
             inkscape:connector-curvature="0"
             id="path176"
             style="fill:#000000;fill-opacity:0;fill-rule:evenodd;stroke:none"
             d="m 113726.59,127347.5 h -5197.34 c -717.6,0 -1299.34,1365.76 -1299.34,3050.5 0,1684.75 581.74,3050.5 1299.34,3050.5 h 5197.34 v 0 c 717.6,0 1299.32,-1365.75 1299.32,-3050.5 0,-1684.74 -581.72,-3050.5 -1299.32,-3050.5 z" /></g></g><path
         inkscape:connector-curvature="0"
         id="path178"
         style="fill:none;stroke:#595959;stroke-width:381;stroke-linecap:butt;stroke-linejoin:round;stroke-miterlimit:8;stroke-dasharray:none;stroke-opacity:1"
         d="m 108529.25,133448.5 c 717.6,0 1299.34,-1365.75 1299.34,-3050.5 0,-1684.74 -581.74,-3050.5 -1299.34,-3050.5" /><path
         inkscape:connector-curvature="0"
         id="path180"
         style="fill:none;stroke:#595959;stroke-width:381;stroke-linecap:butt;stroke-linejoin:round;stroke-miterlimit:8;stroke-dasharray:none;stroke-opacity:1"
         d="m 113726.59,127347.5 h -5197.34 c -717.6,0 -1299.34,1365.76 -1299.34,3050.5 0,1684.75 581.74,3050.5 1299.34,3050.5 h 5197.34 v 0 c 717.6,0 1299.32,-1365.75 1299.32,-3050.5 0,-1684.74 -581.72,-3050.5 -1299.32,-3050.5 z" /></g><g
       id="g182"
       transform="matrix(0.0019685,0,0,-0.0019685,17.189278,518.58523)"><g
         id="g184"><path
           inkscape:connector-curvature="0"
           id="path186"
           style="fill:#eeeeee;fill-opacity:1;fill-rule:evenodd;stroke:none"
           d="m 130057.25,126824.5 h 5197.33 c 717.61,0 1299.34,1365.76 1299.34,3050.5 0,1684.75 -581.73,3050.5 -1299.34,3050.5 h -5197.33 v 0 c -717.6,0 -1299.34,-1365.75 -1299.34,-3050.5 0,-1684.74 581.74,-3050.5 1299.34,-3050.5 z" /></g><g
         id="g188"><g
           id="g190"><path
             inkscape:connector-curvature="0"
             id="path192"
             style="fill:#000000;fill-opacity:0;fill-rule:evenodd;stroke:none"
             d="m 135254.58,132925.5 c -717.6,0 -1299.33,-1365.75 -1299.33,-3050.5 0,-1684.74 581.73,-3050.5 1299.33,-3050.5" /></g></g><g
         id="g194"><g
           id="g196"><path
             inkscape:connector-curvature="0"
             id="path198"
             style="fill:#000000;fill-opacity:0;fill-rule:evenodd;stroke:none"
             d="m 130057.25,126824.5 h 5197.33 c 717.61,0 1299.34,1365.76 1299.34,3050.5 0,1684.75 -581.73,3050.5 -1299.34,3050.5 h -5197.33 v 0 c -717.6,0 -1299.34,-1365.75 -1299.34,-3050.5 0,-1684.74 581.74,-3050.5 1299.34,-3050.5 z" /></g></g><path
         inkscape:connector-curvature="0"
         id="path200"
         style="fill:none;stroke:#595959;stroke-width:381;stroke-linecap:butt;stroke-linejoin:round;stroke-miterlimit:8;stroke-dasharray:none;stroke-opacity:1"
         d="m 135254.58,132925.5 c -717.6,0 -1299.33,-1365.75 -1299.33,-3050.5 0,-1684.74 581.73,-3050.5 1299.33,-3050.5" /><path
         inkscape:connector-curvature="0"
         id="path202"
         style="fill:none;stroke:#595959;stroke-width:381;stroke-linecap:butt;stroke-linejoin:round;stroke-miterlimit:8;stroke-dasharray:none;stroke-opacity:1"
         d="m 130057.25,126824.5 h 5197.33 c 717.61,0 1299.34,1365.76 1299.34,3050.5 0,1684.75 -581.73,3050.5 -1299.34,3050.5 h -5197.33 v 0 c -717.6,0 -1299.34,-1365.75 -1299.34,-3050.5 0,-1684.74 581.74,-3050.5 1299.34,-3050.5 z" /></g><g
       id="g204"
       transform="matrix(0.0019685,0,0,-0.0019685,17.189278,518.58523)"><g
         id="g206"><path
           inkscape:connector-curvature="0"
           id="path208"
           style="fill:#d0e0e3;fill-opacity:1;fill-rule:evenodd;stroke:none"
           d="m 130704.05,149790.06 v 0 c 0,-1644.73 -1333.32,-2978.06 -2978.07,-2978.06 H 115814.1 v 0 c -789.83,0 -1547.3,313.77 -2105.8,872.25 -558.49,558.5 -872.25,1315.98 -872.25,2105.81 v 12463.88 c 0,1644.73 1333.32,2978.06 2978.05,2978.06 h 11911.88 c 1644.75,0 2978.07,-1333.33 2978.07,-2978.06 z" /></g><path
         inkscape:connector-curvature="0"
         id="path210"
         style="fill:none;stroke:#000000;stroke-width:762;stroke-linecap:butt;stroke-linejoin:round;stroke-miterlimit:8;stroke-dasharray:none;stroke-opacity:1"
         d="m 130704.05,149790.06 v 0 c 0,-1644.73 -1333.32,-2978.06 -2978.07,-2978.06 H 115814.1 v 0 c -789.83,0 -1547.3,313.77 -2105.8,872.25 -558.49,558.5 -872.25,1315.98 -872.25,2105.81 v 12463.88 c 0,1644.73 1333.32,2978.06 2978.05,2978.06 h 11911.88 c 1644.75,0 2978.07,-1333.33 2978.07,-2978.06 z" /></g><g
       id="g212"
       transform="matrix(0.0019685,0,0,-0.0019685,17.189278,518.58523)"><g
         id="g214"><path
           inkscape:connector-curvature="0"
           id="path216"
           style="fill:#eeeeee;fill-opacity:1;fill-rule:evenodd;stroke:none"
           d="m 130057.25,152448.5 h 5197.33 c 717.61,0 1299.34,1365.75 1299.34,3050.5 0,1684.75 -581.73,3050.5 -1299.34,3050.5 h -5197.33 v 0 c -717.6,0 -1299.34,-1365.75 -1299.34,-3050.5 0,-1684.75 581.74,-3050.5 1299.34,-3050.5 z" /></g><g
         id="g218"><g
           id="g220"><path
             inkscape:connector-curvature="0"
             id="path222"
             style="fill:#000000;fill-opacity:0;fill-rule:evenodd;stroke:none"
             d="m 135254.58,158549.5 c -717.6,0 -1299.33,-1365.75 -1299.33,-3050.5 0,-1684.75 581.73,-3050.5 1299.33,-3050.5" /></g></g><g
         id="g224"><g
           id="g226"><path
             inkscape:connector-curvature="0"
             id="path228"
             style="fill:#000000;fill-opacity:0;fill-rule:evenodd;stroke:none"
             d="m 130057.25,152448.5 h 5197.33 c 717.61,0 1299.34,1365.75 1299.34,3050.5 0,1684.75 -581.73,3050.5 -1299.34,3050.5 h -5197.33 v 0 c -717.6,0 -1299.34,-1365.75 -1299.34,-3050.5 0,-1684.75 581.74,-3050.5 1299.34,-3050.5 z" /></g></g><path
         inkscape:connector-curvature="0"
         id="path230"
         style="fill:none;stroke:#595959;stroke-width:381;stroke-linecap:butt;stroke-linejoin:round;stroke-miterlimit:8;stroke-dasharray:none;stroke-opacity:1"
         d="m 135254.58,158549.5 c -717.6,0 -1299.33,-1365.75 -1299.33,-3050.5 0,-1684.75 581.73,-3050.5 1299.33,-3050.5" /><path
         inkscape:connector-curvature="0"
         id="path232"
         style="fill:none;stroke:#595959;stroke-width:381;stroke-linecap:butt;stroke-linejoin:round;stroke-miterlimit:8;stroke-dasharray:none;stroke-opacity:1"
         d="m 130057.25,152448.5 h 5197.33 c 717.61,0 1299.34,1365.75 1299.34,3050.5 0,1684.75 -581.73,3050.5 -1299.34,3050.5 h -5197.33 v 0 c -717.6,0 -1299.34,-1365.75 -1299.34,-3050.5 0,-1684.75 581.74,-3050.5 1299.34,-3050.5 z" /></g><g
       id="g234"
       transform="matrix(0.0019685,0,0,-0.0019685,17.189278,518.58523)"><g
         id="g236"><path
           inkscape:connector-curvature="0"
           id="path238"
           style="fill:#d0e0e3;fill-opacity:1;fill-rule:evenodd;stroke:none"
           d="m 104441.91,124166.06 v 0 c 0,-1644.74 -1333.32,-2978.06 -2978.05,-2978.06 H 89551.98 v 0 c -789.83,0 -1547.316,313.76 -2105.81,872.25 -558.5,558.5 -872.256,1315.98 -872.256,2105.81 v 38083.88 c 0,1644.73 1333.326,2978.06 2978.066,2978.06 h 11911.88 c 1644.73,0 2978.05,-1333.33 2978.05,-2978.06 z" /></g><path
         inkscape:connector-curvature="0"
         id="path240"
         style="fill:none;stroke:#000000;stroke-width:762;stroke-linecap:butt;stroke-linejoin:round;stroke-miterlimit:8;stroke-dasharray:none;stroke-opacity:1"
         d="m 104441.91,124166.06 v 0 c 0,-1644.74 -1333.32,-2978.06 -2978.05,-2978.06 H 89551.98 v 0 c -789.83,0 -1547.316,313.76 -2105.81,872.25 -558.5,558.5 -872.256,1315.98 -872.256,2105.81 v 38083.88 c 0,1644.73 1333.326,2978.06 2978.066,2978.06 h 11911.88 c 1644.73,0 2978.05,-1333.33 2978.05,-2978.06 z" /></g><g
       id="g242"
       transform="matrix(0.0019685,0,0,-0.0019685,17.189278,518.58523)"><g
         id="g244"><path
           inkscape:connector-curvature="0"
           id="path246"
           style="fill:#eeeeee;fill-opacity:1;fill-rule:evenodd;stroke:none"
           d="M 87322.586,140157.5 H 82125.25 c -717.6,0 -1299.336,1365.75 -1299.336,3050.5 0,1684.75 581.736,3050.5 1299.336,3050.5 h 5197.336 v 0 c 717.604,0 1299.328,-1365.75 1299.328,-3050.5 0,-1684.75 -581.724,-3050.5 -1299.328,-3050.5 z" /></g><g
         id="g248"><g
           id="g250"><path
             inkscape:connector-curvature="0"
             id="path252"
             style="fill:#000000;fill-opacity:0;fill-rule:evenodd;stroke:none"
             d="m 82125.25,146258.5 c 717.6,0 1299.336,-1365.75 1299.336,-3050.5 0,-1684.75 -581.736,-3050.5 -1299.336,-3050.5" /></g></g><g
         id="g254"><g
           id="g256"><path
             inkscape:connector-curvature="0"
             id="path258"
             style="fill:#000000;fill-opacity:0;fill-rule:evenodd;stroke:none"
             d="M 87322.586,140157.5 H 82125.25 c -717.6,0 -1299.336,1365.75 -1299.336,3050.5 0,1684.75 581.736,3050.5 1299.336,3050.5 h 5197.336 v 0 c 717.604,0 1299.328,-1365.75 1299.328,-3050.5 0,-1684.75 -581.724,-3050.5 -1299.328,-3050.5 z" /></g></g><path
         inkscape:connector-curvature="0"
         id="path260"
         style="fill:none;stroke:#595959;stroke-width:381;stroke-linecap:butt;stroke-linejoin:round;stroke-miterlimit:8;stroke-dasharray:none;stroke-opacity:1"
         d="m 82125.25,146258.5 c 717.6,0 1299.336,-1365.75 1299.336,-3050.5 0,-1684.75 -581.736,-3050.5 -1299.336,-3050.5" /><path
         inkscape:connector-curvature="0"
         id="path262"
         style="fill:none;stroke:#595959;stroke-width:381;stroke-linecap:butt;stroke-linejoin:round;stroke-miterlimit:8;stroke-dasharray:none;stroke-opacity:1"
         d="M 87322.586,140157.5 H 82125.25 c -717.6,0 -1299.336,1365.75 -1299.336,3050.5 0,1684.75 581.736,3050.5 1299.336,3050.5 h 5197.336 v 0 c 717.604,0 1299.328,-1365.75 1299.328,-3050.5 0,-1684.75 -581.724,-3050.5 -1299.328,-3050.5 z" /></g><g
       id="g264"
       transform="matrix(0.0019685,0,0,-0.0019685,17.189278,518.58523)"><g
         id="g266"><path
           inkscape:connector-curvature="0"
           id="path268"
           style="fill:#eeeeee;fill-opacity:1;fill-rule:evenodd;stroke:none"
           d="m 103551.25,127347.5 h 5197.34 c 717.6,0 1299.32,1365.76 1299.32,3050.5 0,1684.75 -581.72,3050.5 -1299.32,3050.5 h -5197.34 v 0 c -717.6,0 -1299.34,-1365.75 -1299.34,-3050.5 0,-1684.74 581.74,-3050.5 1299.34,-3050.5 z" /></g><g
         id="g270"><g
           id="g272"><path
             inkscape:connector-curvature="0"
             id="path274"
             style="fill:#000000;fill-opacity:0;fill-rule:evenodd;stroke:none"
             d="m 108748.59,133448.5 c -717.61,0 -1299.34,-1365.75 -1299.34,-3050.5 0,-1684.74 581.73,-3050.5 1299.34,-3050.5" /></g></g><g
         id="g276"><g
           id="g278"><path
             inkscape:connector-curvature="0"
             id="path280"
             style="fill:#000000;fill-opacity:0;fill-rule:evenodd;stroke:none"
             d="m 103551.25,127347.5 h 5197.34 c 717.6,0 1299.32,1365.76 1299.32,3050.5 0,1684.75 -581.72,3050.5 -1299.32,3050.5 h -5197.34 v 0 c -717.6,0 -1299.34,-1365.75 -1299.34,-3050.5 0,-1684.74 581.74,-3050.5 1299.34,-3050.5 z" /></g></g><path
         inkscape:connector-curvature="0"
         id="path282"
         style="fill:none;stroke:#595959;stroke-width:381;stroke-linecap:butt;stroke-linejoin:round;stroke-miterlimit:8;stroke-dasharray:none;stroke-opacity:1"
         d="m 108748.59,133448.5 c -717.61,0 -1299.34,-1365.75 -1299.34,-3050.5 0,-1684.74 581.73,-3050.5 1299.34,-3050.5" /><path
         inkscape:connector-curvature="0"
         id="path284"
         style="fill:none;stroke:#595959;stroke-width:381;stroke-linecap:butt;stroke-linejoin:round;stroke-miterlimit:8;stroke-dasharray:none;stroke-opacity:1"
         d="m 103551.25,127347.5 h 5197.34 c 717.6,0 1299.32,1365.76 1299.32,3050.5 0,1684.75 -581.72,3050.5 -1299.32,3050.5 h -5197.34 v 0 c -717.6,0 -1299.34,-1365.75 -1299.34,-3050.5 0,-1684.74 581.74,-3050.5 1299.34,-3050.5 z" /></g><g
       id="g286"
       transform="matrix(0.0019685,0,0,-0.0019685,17.189278,518.58523)"><g
         id="g288"><path
           inkscape:connector-curvature="0"
           id="path290"
           style="fill:#efefef;fill-opacity:1;fill-rule:evenodd;stroke:none"
           d="m 111984.91,127483 h -6144 v 5808 h 6144 z" /></g></g><g
       id="g292"
       transform="matrix(0.0019685,0,0,-0.0019685,17.189278,518.58523)"><g
         id="g294"><path
           inkscape:connector-curvature="0"
           id="path296"
           style="fill:#eeeeee;fill-opacity:1;fill-rule:evenodd;stroke:none"
           d="m 113526.59,152971.5 h -5197.34 c -717.6,0 -1299.34,1365.75 -1299.34,3050.5 0,1684.75 581.74,3050.5 1299.34,3050.5 h 5197.34 v 0 c 717.6,0 1299.32,-1365.75 1299.32,-3050.5 0,-1684.75 -581.72,-3050.5 -1299.32,-3050.5 z" /></g><g
         id="g298"><g
           id="g300"><path
             inkscape:connector-curvature="0"
             id="path302"
             style="fill:#000000;fill-opacity:0;fill-rule:evenodd;stroke:none"
             d="m 108329.25,159072.5 c 717.6,0 1299.34,-1365.75 1299.34,-3050.5 0,-1684.75 -581.74,-3050.5 -1299.34,-3050.5" /></g></g><g
         id="g304"><g
           id="g306"><path
             inkscape:connector-curvature="0"
             id="path308"
             style="fill:#000000;fill-opacity:0;fill-rule:evenodd;stroke:none"
             d="m 113526.59,152971.5 h -5197.34 c -717.6,0 -1299.34,1365.75 -1299.34,3050.5 0,1684.75 581.74,3050.5 1299.34,3050.5 h 5197.34 v 0 c 717.6,0 1299.32,-1365.75 1299.32,-3050.5 0,-1684.75 -581.72,-3050.5 -1299.32,-3050.5 z" /></g></g><path
         inkscape:connector-curvature="0"
         id="path310"
         style="fill:none;stroke:#595959;stroke-width:381;stroke-linecap:butt;stroke-linejoin:round;stroke-miterlimit:8;stroke-dasharray:none;stroke-opacity:1"
         d="m 108329.25,159072.5 c 717.6,0 1299.34,-1365.75 1299.34,-3050.5 0,-1684.75 -581.74,-3050.5 -1299.34,-3050.5" /><path
         inkscape:connector-curvature="0"
         id="path312"
         style="fill:none;stroke:#595959;stroke-width:381;stroke-linecap:butt;stroke-linejoin:round;stroke-miterlimit:8;stroke-dasharray:none;stroke-opacity:1"
         d="m 113526.59,152971.5 h -5197.34 c -717.6,0 -1299.34,1365.75 -1299.34,3050.5 0,1684.75 581.74,3050.5 1299.34,3050.5 h 5197.34 v 0 c 717.6,0 1299.32,-1365.75 1299.32,-3050.5 0,-1684.75 -581.72,-3050.5 -1299.32,-3050.5 z" /></g><g
       id="g314"
       transform="matrix(0.0019685,0,0,-0.0019685,17.189278,518.58523)"><g
         id="g316"><path
           inkscape:connector-curvature="0"
           id="path318"
           style="fill:#eeeeee;fill-opacity:1;fill-rule:evenodd;stroke:none"
           d="m 103351.25,152971.5 h 5197.34 c 717.6,0 1299.32,1365.75 1299.32,3050.5 0,1684.75 -581.72,3050.5 -1299.32,3050.5 h -5197.34 v 0 c -717.6,0 -1299.34,-1365.75 -1299.34,-3050.5 0,-1684.75 581.74,-3050.5 1299.34,-3050.5 z" /></g><g
         id="g320"><g
           id="g322"><path
             inkscape:connector-curvature="0"
             id="path324"
             style="fill:#000000;fill-opacity:0;fill-rule:evenodd;stroke:none"
             d="m 108548.59,159072.5 c -717.61,0 -1299.34,-1365.75 -1299.34,-3050.5 0,-1684.75 581.73,-3050.5 1299.34,-3050.5" /></g></g><g
         id="g326"><g
           id="g328"><path
             inkscape:connector-curvature="0"
             id="path330"
             style="fill:#000000;fill-opacity:0;fill-rule:evenodd;stroke:none"
             d="m 103351.25,152971.5 h 5197.34 c 717.6,0 1299.32,1365.75 1299.32,3050.5 0,1684.75 -581.72,3050.5 -1299.32,3050.5 h -5197.34 v 0 c -717.6,0 -1299.34,-1365.75 -1299.34,-3050.5 0,-1684.75 581.74,-3050.5 1299.34,-3050.5 z" /></g></g><path
         inkscape:connector-curvature="0"
         id="path332"
         style="fill:none;stroke:#595959;stroke-width:381;stroke-linecap:butt;stroke-linejoin:round;stroke-miterlimit:8;stroke-dasharray:none;stroke-opacity:1"
         d="m 108548.59,159072.5 c -717.61,0 -1299.34,-1365.75 -1299.34,-3050.5 0,-1684.75 581.73,-3050.5 1299.34,-3050.5" /><path
         inkscape:connector-curvature="0"
         id="path334"
         style="fill:none;stroke:#595959;stroke-width:381;stroke-linecap:butt;stroke-linejoin:round;stroke-miterlimit:8;stroke-dasharray:none;stroke-opacity:1"
         d="m 103351.25,152971.5 h 5197.34 c 717.6,0 1299.32,1365.75 1299.32,3050.5 0,1684.75 -581.72,3050.5 -1299.32,3050.5 h -5197.34 v 0 c -717.6,0 -1299.34,-1365.75 -1299.34,-3050.5 0,-1684.75 581.74,-3050.5 1299.34,-3050.5 z" /></g><g
       id="g336"
       transform="matrix(0.0019685,0,0,-0.0019685,17.189278,518.58523)"><g
         id="g338"><path
           inkscape:connector-curvature="0"
           id="path340"
           style="fill:#efefef;fill-opacity:1;fill-rule:evenodd;stroke:none"
           d="m 111784.91,153107 h -6144 v 5808 h 6144 z" /></g></g><g
       id="g342"
       transform="matrix(0.0019685,0,0,-0.0019685,17.189278,518.58523)"><g
         id="g344"><path
           inkscape:connector-curvature="0"
           id="path346"
           style="fill:#d0e0e3;fill-opacity:1;fill-rule:evenodd;stroke:none"
           d="m 288109.12,100803.06 v 0 c 0,-1644.74 -1333.32,-2978.06 -2978.06,-2978.06 H 273219.2 v 0 c -789.86,0 -1547.32,313.76 -2105.82,872.25 -558.5,558.5 -872.26,1315.98 -872.26,2105.81 v 12463.88 c 0,1644.74 1333.32,2978.06 2978.08,2978.06 h 11911.86 c 1644.74,0 2978.06,-1333.32 2978.06,-2978.06 z" /></g><path
         inkscape:connector-curvature="0"
         id="path348"
         style="fill:none;stroke:#000000;stroke-width:762;stroke-linecap:butt;stroke-linejoin:round;stroke-miterlimit:8;stroke-dasharray:none;stroke-opacity:1"
         d="m 288109.12,100803.06 v 0 c 0,-1644.74 -1333.32,-2978.06 -2978.06,-2978.06 H 273219.2 v 0 c -789.86,0 -1547.32,313.76 -2105.82,872.25 -558.5,558.5 -872.26,1315.98 -872.26,2105.81 v 12463.88 c 0,1644.74 1333.32,2978.06 2978.08,2978.06 h 11911.86 c 1644.74,0 2978.06,-1333.32 2978.06,-2978.06 z" /></g><g
       id="g350"
       transform="matrix(0.0019685,0,0,-0.0019685,17.189278,518.58523)"><g
         id="g352"><path
           inkscape:connector-curvature="0"
           id="path354"
           style="fill:#eeeeee;fill-opacity:1;fill-rule:evenodd;stroke:none"
           d="m 271131.66,103984.5 h -5197.32 c -717.62,0 -1299.34,1365.76 -1299.34,3050.5 0,1684.74 581.72,3050.5 1299.34,3050.5 h 5197.32 v 0 c 717.62,0 1299.34,-1365.76 1299.34,-3050.5 0,-1684.74 -581.72,-3050.5 -1299.34,-3050.5 z" /></g><g
         id="g356"><g
           id="g358"><path
             inkscape:connector-curvature="0"
             id="path360"
             style="fill:#000000;fill-opacity:0;fill-rule:evenodd;stroke:none"
             d="m 265934.34,110085.5 c 717.6,0 1299.32,-1365.76 1299.32,-3050.5 0,-1684.74 -581.72,-3050.5 -1299.32,-3050.5" /></g></g><g
         id="g362"><g
           id="g364"><path
             inkscape:connector-curvature="0"
             id="path366"
             style="fill:#000000;fill-opacity:0;fill-rule:evenodd;stroke:none"
             d="m 271131.66,103984.5 h -5197.32 c -717.62,0 -1299.34,1365.76 -1299.34,3050.5 0,1684.74 581.72,3050.5 1299.34,3050.5 h 5197.32 v 0 c 717.62,0 1299.34,-1365.76 1299.34,-3050.5 0,-1684.74 -581.72,-3050.5 -1299.34,-3050.5 z" /></g></g><path
         inkscape:connector-curvature="0"
         id="path368"
         style="fill:none;stroke:#595959;stroke-width:381;stroke-linecap:butt;stroke-linejoin:round;stroke-miterlimit:8;stroke-dasharray:none;stroke-opacity:1"
         d="m 265934.34,110085.5 c 717.6,0 1299.32,-1365.76 1299.32,-3050.5 0,-1684.74 -581.72,-3050.5 -1299.32,-3050.5" /><path
         inkscape:connector-curvature="0"
         id="path370"
         style="fill:none;stroke:#595959;stroke-width:381;stroke-linecap:butt;stroke-linejoin:round;stroke-miterlimit:8;stroke-dasharray:none;stroke-opacity:1"
         d="m 271131.66,103984.5 h -5197.32 c -717.62,0 -1299.34,1365.76 -1299.34,3050.5 0,1684.74 581.72,3050.5 1299.34,3050.5 h 5197.32 v 0 c 717.62,0 1299.34,-1365.76 1299.34,-3050.5 0,-1684.74 -581.72,-3050.5 -1299.34,-3050.5 z" /></g><g
       id="g372"
       transform="matrix(0.0019685,0,0,-0.0019685,17.189278,518.58523)"><g
         id="g374"><path
           inkscape:connector-curvature="0"
           id="path376"
           style="fill:#eeeeee;fill-opacity:1;fill-rule:evenodd;stroke:none"
           d="m 287462.34,103461.5 h 5197.32 c 717.62,0 1299.34,1365.76 1299.34,3050.5 0,1684.74 -581.72,3050.5 -1299.34,3050.5 h -5197.32 v 0 c -717.62,0 -1299.34,-1365.76 -1299.34,-3050.5 0,-1684.74 581.72,-3050.5 1299.34,-3050.5 z" /></g><g
         id="g378"><g
           id="g380"><path
             inkscape:connector-curvature="0"
             id="path382"
             style="fill:#000000;fill-opacity:0;fill-rule:evenodd;stroke:none"
             d="m 292659.66,109562.5 c -717.6,0 -1299.32,-1365.76 -1299.32,-3050.5 0,-1684.74 581.72,-3050.5 1299.32,-3050.5" /></g></g><g
         id="g384"><g
           id="g386"><path
             inkscape:connector-curvature="0"
             id="path388"
             style="fill:#000000;fill-opacity:0;fill-rule:evenodd;stroke:none"
             d="m 287462.34,103461.5 h 5197.32 c 717.62,0 1299.34,1365.76 1299.34,3050.5 0,1684.74 -581.72,3050.5 -1299.34,3050.5 h -5197.32 v 0 c -717.62,0 -1299.34,-1365.76 -1299.34,-3050.5 0,-1684.74 581.72,-3050.5 1299.34,-3050.5 z" /></g></g><path
         inkscape:connector-curvature="0"
         id="path390"
         style="fill:none;stroke:#595959;stroke-width:381;stroke-linecap:butt;stroke-linejoin:round;stroke-miterlimit:8;stroke-dasharray:none;stroke-opacity:1"
         d="m 292659.66,109562.5 c -717.6,0 -1299.32,-1365.76 -1299.32,-3050.5 0,-1684.74 581.72,-3050.5 1299.32,-3050.5" /><path
         inkscape:connector-curvature="0"
         id="path392"
         style="fill:none;stroke:#595959;stroke-width:381;stroke-linecap:butt;stroke-linejoin:round;stroke-miterlimit:8;stroke-dasharray:none;stroke-opacity:1"
         d="m 287462.34,103461.5 h 5197.32 c 717.62,0 1299.34,1365.76 1299.34,3050.5 0,1684.74 -581.72,3050.5 -1299.34,3050.5 h -5197.32 v 0 c -717.62,0 -1299.34,-1365.76 -1299.34,-3050.5 0,-1684.74 581.72,-3050.5 1299.34,-3050.5 z" /></g><g
       id="g394"
       transform="matrix(0.0019685,0,0,-0.0019685,17.189278,518.58523)"><g
         id="g396"><path
           inkscape:connector-curvature="0"
           id="path398"
           style="fill:#d0e0e3;fill-opacity:1;fill-rule:evenodd;stroke:none"
           d="m 288109.12,126427.06 v 0 c 0,-1644.74 -1333.32,-2978.06 -2978.06,-2978.06 H 273219.2 v 0 c -789.86,0 -1547.32,313.76 -2105.82,872.25 -558.5,558.5 -872.26,1315.98 -872.26,2105.81 v 12463.88 c 0,1644.73 1333.32,2978.06 2978.08,2978.06 h 11911.86 c 1644.74,0 2978.06,-1333.33 2978.06,-2978.06 z" /></g><path
         inkscape:connector-curvature="0"
         id="path400"
         style="fill:none;stroke:#000000;stroke-width:762;stroke-linecap:butt;stroke-linejoin:round;stroke-miterlimit:8;stroke-dasharray:none;stroke-opacity:1"
         d="m 288109.12,126427.06 v 0 c 0,-1644.74 -1333.32,-2978.06 -2978.06,-2978.06 H 273219.2 v 0 c -789.86,0 -1547.32,313.76 -2105.82,872.25 -558.5,558.5 -872.26,1315.98 -872.26,2105.81 v 12463.88 c 0,1644.73 1333.32,2978.06 2978.08,2978.06 h 11911.86 c 1644.74,0 2978.06,-1333.33 2978.06,-2978.06 z" /></g><g
       id="g402"
       transform="matrix(0.0019685,0,0,-0.0019685,17.189278,518.58523)"><g
         id="g404"><path
           inkscape:connector-curvature="0"
           id="path406"
           style="fill:#eeeeee;fill-opacity:1;fill-rule:evenodd;stroke:none"
           d="m 287462.34,129085.5 h 5197.32 c 717.62,0 1299.34,1365.76 1299.34,3050.5 0,1684.75 -581.72,3050.5 -1299.34,3050.5 h -5197.32 v 0 c -717.62,0 -1299.34,-1365.75 -1299.34,-3050.5 0,-1684.74 581.72,-3050.5 1299.34,-3050.5 z" /></g><g
         id="g408"><g
           id="g410"><path
             inkscape:connector-curvature="0"
             id="path412"
             style="fill:#000000;fill-opacity:0;fill-rule:evenodd;stroke:none"
             d="m 292659.66,135186.5 c -717.6,0 -1299.32,-1365.75 -1299.32,-3050.5 0,-1684.74 581.72,-3050.5 1299.32,-3050.5" /></g></g><g
         id="g414"><g
           id="g416"><path
             inkscape:connector-curvature="0"
             id="path418"
             style="fill:#000000;fill-opacity:0;fill-rule:evenodd;stroke:none"
             d="m 287462.34,129085.5 h 5197.32 c 717.62,0 1299.34,1365.76 1299.34,3050.5 0,1684.75 -581.72,3050.5 -1299.34,3050.5 h -5197.32 v 0 c -717.62,0 -1299.34,-1365.75 -1299.34,-3050.5 0,-1684.74 581.72,-3050.5 1299.34,-3050.5 z" /></g></g><path
         inkscape:connector-curvature="0"
         id="path420"
         style="fill:none;stroke:#595959;stroke-width:381;stroke-linecap:butt;stroke-linejoin:round;stroke-miterlimit:8;stroke-dasharray:none;stroke-opacity:1"
         d="m 292659.66,135186.5 c -717.6,0 -1299.32,-1365.75 -1299.32,-3050.5 0,-1684.74 581.72,-3050.5 1299.32,-3050.5" /><path
         inkscape:connector-curvature="0"
         id="path422"
         style="fill:none;stroke:#595959;stroke-width:381;stroke-linecap:butt;stroke-linejoin:round;stroke-miterlimit:8;stroke-dasharray:none;stroke-opacity:1"
         d="m 287462.34,129085.5 h 5197.32 c 717.62,0 1299.34,1365.76 1299.34,3050.5 0,1684.75 -581.72,3050.5 -1299.34,3050.5 h -5197.32 v 0 c -717.62,0 -1299.34,-1365.75 -1299.34,-3050.5 0,-1684.74 581.72,-3050.5 1299.34,-3050.5 z" /></g><g
       id="g424"
       transform="matrix(0.0019685,0,0,-0.0019685,17.189278,518.58523)"><g
         id="g426"><path
           inkscape:connector-curvature="0"
           id="path428"
           style="fill:#d0e0e3;fill-opacity:1;fill-rule:evenodd;stroke:none"
           d="m 261847,100803.06 v 0 c 0,-1644.74 -1333.33,-2978.06 -2978.06,-2978.06 h -11911.88 v 0 c -789.83,0 -1547.31,313.76 -2105.81,872.25 -558.48,558.5 -872.25,1315.98 -872.25,2105.81 v 38083.88 c 0,1644.73 1333.33,2978.06 2978.06,2978.06 h 11911.88 c 1644.73,0 2978.06,-1333.33 2978.06,-2978.06 z" /></g><path
         inkscape:connector-curvature="0"
         id="path430"
         style="fill:none;stroke:#000000;stroke-width:762;stroke-linecap:butt;stroke-linejoin:round;stroke-miterlimit:8;stroke-dasharray:none;stroke-opacity:1"
         d="m 261847,100803.06 v 0 c 0,-1644.74 -1333.33,-2978.06 -2978.06,-2978.06 h -11911.88 v 0 c -789.83,0 -1547.31,313.76 -2105.81,872.25 -558.48,558.5 -872.25,1315.98 -872.25,2105.81 v 38083.88 c 0,1644.73 1333.33,2978.06 2978.06,2978.06 h 11911.88 c 1644.73,0 2978.06,-1333.33 2978.06,-2978.06 z" /></g><g
       id="g432"
       transform="matrix(0.0019685,0,0,-0.0019685,17.189278,518.58523)"><g
         id="g434"><path
           inkscape:connector-curvature="0"
           id="path436"
           style="fill:#eeeeee;fill-opacity:1;fill-rule:evenodd;stroke:none"
           d="m 244727.67,116794.5 h -5197.34 c -717.6,0 -1299.33,1365.76 -1299.33,3050.5 0,1684.74 581.73,3050.5 1299.33,3050.5 h 5197.34 v 0 c 717.6,0 1299.33,-1365.76 1299.33,-3050.5 0,-1684.74 -581.73,-3050.5 -1299.33,-3050.5 z" /></g><g
         id="g438"><g
           id="g440"><path
             inkscape:connector-curvature="0"
             id="path442"
             style="fill:#000000;fill-opacity:0;fill-rule:evenodd;stroke:none"
             d="m 239530.33,122895.5 c 717.61,0 1299.34,-1365.76 1299.34,-3050.5 0,-1684.74 -581.73,-3050.5 -1299.34,-3050.5" /></g></g><g
         id="g444"><g
           id="g446"><path
             inkscape:connector-curvature="0"
             id="path448"
             style="fill:#000000;fill-opacity:0;fill-rule:evenodd;stroke:none"
             d="m 244727.67,116794.5 h -5197.34 c -717.6,0 -1299.33,1365.76 -1299.33,3050.5 0,1684.74 581.73,3050.5 1299.33,3050.5 h 5197.34 v 0 c 717.6,0 1299.33,-1365.76 1299.33,-3050.5 0,-1684.74 -581.73,-3050.5 -1299.33,-3050.5 z" /></g></g><path
         inkscape:connector-curvature="0"
         id="path450"
         style="fill:none;stroke:#595959;stroke-width:381;stroke-linecap:butt;stroke-linejoin:round;stroke-miterlimit:8;stroke-dasharray:none;stroke-opacity:1"
         d="m 239530.33,122895.5 c 717.61,0 1299.34,-1365.76 1299.34,-3050.5 0,-1684.74 -581.73,-3050.5 -1299.34,-3050.5" /><path
         inkscape:connector-curvature="0"
         id="path452"
         style="fill:none;stroke:#595959;stroke-width:381;stroke-linecap:butt;stroke-linejoin:round;stroke-miterlimit:8;stroke-dasharray:none;stroke-opacity:1"
         d="m 244727.67,116794.5 h -5197.34 c -717.6,0 -1299.33,1365.76 -1299.33,3050.5 0,1684.74 581.73,3050.5 1299.33,3050.5 h 5197.34 v 0 c 717.6,0 1299.33,-1365.76 1299.33,-3050.5 0,-1684.74 -581.73,-3050.5 -1299.33,-3050.5 z" /></g><g
       id="g454"
       transform="matrix(0.0019685,0,0,-0.0019685,17.189278,518.58523)"><g
         id="g456"><path
           inkscape:connector-curvature="0"
           id="path458"
           style="fill:#eeeeee;fill-opacity:1;fill-rule:evenodd;stroke:none"
           d="m 260956.33,103984.5 h 5197.33 c 717.62,0 1299.34,1365.76 1299.34,3050.5 0,1684.74 -581.72,3050.5 -1299.34,3050.5 h -5197.33 v 0 c -717.6,0 -1299.33,-1365.76 -1299.33,-3050.5 0,-1684.74 581.73,-3050.5 1299.33,-3050.5 z" /></g><g
         id="g460"><g
           id="g462"><path
             inkscape:connector-curvature="0"
             id="path464"
             style="fill:#000000;fill-opacity:0;fill-rule:evenodd;stroke:none"
             d="m 266153.66,110085.5 c -717.6,0 -1299.32,-1365.76 -1299.32,-3050.5 0,-1684.74 581.72,-3050.5 1299.32,-3050.5" /></g></g><g
         id="g466"><g
           id="g468"><path
             inkscape:connector-curvature="0"
             id="path470"
             style="fill:#000000;fill-opacity:0;fill-rule:evenodd;stroke:none"
             d="m 260956.33,103984.5 h 5197.33 c 717.62,0 1299.34,1365.76 1299.34,3050.5 0,1684.74 -581.72,3050.5 -1299.34,3050.5 h -5197.33 v 0 c -717.6,0 -1299.33,-1365.76 -1299.33,-3050.5 0,-1684.74 581.73,-3050.5 1299.33,-3050.5 z" /></g></g><path
         inkscape:connector-curvature="0"
         id="path472"
         style="fill:none;stroke:#595959;stroke-width:381;stroke-linecap:butt;stroke-linejoin:round;stroke-miterlimit:8;stroke-dasharray:none;stroke-opacity:1"
         d="m 266153.66,110085.5 c -717.6,0 -1299.32,-1365.76 -1299.32,-3050.5 0,-1684.74 581.72,-3050.5 1299.32,-3050.5" /><path
         inkscape:connector-curvature="0"
         id="path474"
         style="fill:none;stroke:#595959;stroke-width:381;stroke-linecap:butt;stroke-linejoin:round;stroke-miterlimit:8;stroke-dasharray:none;stroke-opacity:1"
         d="m 260956.33,103984.5 h 5197.33 c 717.62,0 1299.34,1365.76 1299.34,3050.5 0,1684.74 -581.72,3050.5 -1299.34,3050.5 h -5197.33 v 0 c -717.6,0 -1299.33,-1365.76 -1299.33,-3050.5 0,-1684.74 581.73,-3050.5 1299.33,-3050.5 z" /></g><g
       id="g476"
       transform="matrix(0.0019685,0,0,-0.0019685,17.189278,518.58523)"><g
         id="g478"><path
           inkscape:connector-curvature="0"
           id="path480"
           style="fill:#efefef;fill-opacity:1;fill-rule:evenodd;stroke:none"
           d="m 269390,104120 h -6144 v 5808 h 6144 z" /></g></g><g
       id="g482"
       transform="matrix(0.0019685,0,0,-0.0019685,17.189278,518.58523)"><g
         id="g484"><path
           inkscape:connector-curvature="0"
           id="path486"
           style="fill:#eeeeee;fill-opacity:1;fill-rule:evenodd;stroke:none"
           d="m 270931.66,129608.5 h -5197.32 c -717.62,0 -1299.34,1365.76 -1299.34,3050.5 0,1684.75 581.72,3050.5 1299.34,3050.5 h 5197.32 v 0 c 717.62,0 1299.34,-1365.75 1299.34,-3050.5 0,-1684.74 -581.72,-3050.5 -1299.34,-3050.5 z" /></g><g
         id="g488"><g
           id="g490"><path
             inkscape:connector-curvature="0"
             id="path492"
             style="fill:#000000;fill-opacity:0;fill-rule:evenodd;stroke:none"
             d="m 265734.34,135709.5 c 717.6,0 1299.32,-1365.75 1299.32,-3050.5 0,-1684.74 -581.72,-3050.5 -1299.32,-3050.5" /></g></g><g
         id="g494"><g
           id="g496"><path
             inkscape:connector-curvature="0"
             id="path498"
             style="fill:#000000;fill-opacity:0;fill-rule:evenodd;stroke:none"
             d="m 270931.66,129608.5 h -5197.32 c -717.62,0 -1299.34,1365.76 -1299.34,3050.5 0,1684.75 581.72,3050.5 1299.34,3050.5 h 5197.32 v 0 c 717.62,0 1299.34,-1365.75 1299.34,-3050.5 0,-1684.74 -581.72,-3050.5 -1299.34,-3050.5 z" /></g></g><path
         inkscape:connector-curvature="0"
         id="path500"
         style="fill:none;stroke:#595959;stroke-width:381;stroke-linecap:butt;stroke-linejoin:round;stroke-miterlimit:8;stroke-dasharray:none;stroke-opacity:1"
         d="m 265734.34,135709.5 c 717.6,0 1299.32,-1365.75 1299.32,-3050.5 0,-1684.74 -581.72,-3050.5 -1299.32,-3050.5" /><path
         inkscape:connector-curvature="0"
         id="path502"
         style="fill:none;stroke:#595959;stroke-width:381;stroke-linecap:butt;stroke-linejoin:round;stroke-miterlimit:8;stroke-dasharray:none;stroke-opacity:1"
         d="m 270931.66,129608.5 h -5197.32 c -717.62,0 -1299.34,1365.76 -1299.34,3050.5 0,1684.75 581.72,3050.5 1299.34,3050.5 h 5197.32 v 0 c 717.62,0 1299.34,-1365.75 1299.34,-3050.5 0,-1684.74 -581.72,-3050.5 -1299.34,-3050.5 z" /></g><g
       id="g504"
       transform="matrix(0.0019685,0,0,-0.0019685,17.189278,518.58523)"><g
         id="g506"><path
           inkscape:connector-curvature="0"
           id="path508"
           style="fill:#eeeeee;fill-opacity:1;fill-rule:evenodd;stroke:none"
           d="m 260756.33,129608.5 h 5197.33 c 717.62,0 1299.34,1365.76 1299.34,3050.5 0,1684.75 -581.72,3050.5 -1299.34,3050.5 h -5197.33 v 0 c -717.6,0 -1299.33,-1365.75 -1299.33,-3050.5 0,-1684.74 581.73,-3050.5 1299.33,-3050.5 z" /></g><g
         id="g510"><g
           id="g512"><path
             inkscape:connector-curvature="0"
             id="path514"
             style="fill:#000000;fill-opacity:0;fill-rule:evenodd;stroke:none"
             d="m 265953.66,135709.5 c -717.6,0 -1299.32,-1365.75 -1299.32,-3050.5 0,-1684.74 581.72,-3050.5 1299.32,-3050.5" /></g></g><g
         id="g516"><g
           id="g518"><path
             inkscape:connector-curvature="0"
             id="path520"
             style="fill:#000000;fill-opacity:0;fill-rule:evenodd;stroke:none"
             d="m 260756.33,129608.5 h 5197.33 c 717.62,0 1299.34,1365.76 1299.34,3050.5 0,1684.75 -581.72,3050.5 -1299.34,3050.5 h -5197.33 v 0 c -717.6,0 -1299.33,-1365.75 -1299.33,-3050.5 0,-1684.74 581.73,-3050.5 1299.33,-3050.5 z" /></g></g><path
         inkscape:connector-curvature="0"
         id="path522"
         style="fill:none;stroke:#595959;stroke-width:381;stroke-linecap:butt;stroke-linejoin:round;stroke-miterlimit:8;stroke-dasharray:none;stroke-opacity:1"
         d="m 265953.66,135709.5 c -717.6,0 -1299.32,-1365.75 -1299.32,-3050.5 0,-1684.74 581.72,-3050.5 1299.32,-3050.5" /><path
         inkscape:connector-curvature="0"
         id="path524"
         style="fill:none;stroke:#595959;stroke-width:381;stroke-linecap:butt;stroke-linejoin:round;stroke-miterlimit:8;stroke-dasharray:none;stroke-opacity:1"
         d="m 260756.33,129608.5 h 5197.33 c 717.62,0 1299.34,1365.76 1299.34,3050.5 0,1684.75 -581.72,3050.5 -1299.34,3050.5 h -5197.33 v 0 c -717.6,0 -1299.33,-1365.75 -1299.33,-3050.5 0,-1684.74 581.73,-3050.5 1299.33,-3050.5 z" /></g><g
       id="g526"
       transform="matrix(0.0019685,0,0,-0.0019685,17.189278,518.58523)"><g
         id="g528"><path
           inkscape:connector-curvature="0"
           id="path530"
           style="fill:#efefef;fill-opacity:1;fill-rule:evenodd;stroke:none"
           d="m 269190,129744 h -6144 v 5808 h 6144 z" /></g></g><g
       id="g532"
       transform="matrix(0.0019685,0,0,-0.0019685,17.189278,518.58523)"><g
         id="g534"><path
           inkscape:connector-curvature="0"
           id="path536"
           style="fill:#d0e0e3;fill-opacity:1;fill-rule:evenodd;stroke:none"
           d="m 243837,151384.06 v 0 c 0,-1644.73 1333.33,-2978.06 2978.06,-2978.06 h 11911.88 v 0 c 789.83,0 1547.31,313.77 2105.81,872.25 558.48,558.5 872.25,1315.98 872.25,2105.81 v 38083.88 c 0,1644.73 -1333.33,2978.06 -2978.06,2978.06 h -11911.88 c -1644.73,0 -2978.06,-1333.33 -2978.06,-2978.06 z" /></g><path
         inkscape:connector-curvature="0"
         id="path538"
         style="fill:none;stroke:#000000;stroke-width:762;stroke-linecap:butt;stroke-linejoin:round;stroke-miterlimit:8;stroke-dasharray:none;stroke-opacity:1"
         d="m 243837,151384.06 v 0 c 0,-1644.73 1333.33,-2978.06 2978.06,-2978.06 h 11911.88 v 0 c 789.83,0 1547.31,313.77 2105.81,872.25 558.48,558.5 872.25,1315.98 872.25,2105.81 v 38083.88 c 0,1644.73 -1333.33,2978.06 -2978.06,2978.06 h -11911.88 c -1644.73,0 -2978.06,-1333.33 -2978.06,-2978.06 z" /></g><g
       id="g540"
       transform="matrix(0.0019685,0,0,-0.0019685,17.189278,518.58523)"><g
         id="g542"><path
           inkscape:connector-curvature="0"
           id="path544"
           style="fill:#eeeeee;fill-opacity:1;fill-rule:evenodd;stroke:none"
           d="m 244727.67,180189.5 h -5197.34 c -717.6,0 -1299.33,1365.75 -1299.33,3050.5 0,1684.75 581.73,3050.5 1299.33,3050.5 h 5197.34 v 0 c 717.6,0 1299.33,-1365.75 1299.33,-3050.5 0,-1684.75 -581.73,-3050.5 -1299.33,-3050.5 z" /></g><g
         id="g546"><g
           id="g548"><path
             inkscape:connector-curvature="0"
             id="path550"
             style="fill:#000000;fill-opacity:0;fill-rule:evenodd;stroke:none"
             d="m 239530.33,186290.5 c 717.61,0 1299.34,-1365.75 1299.34,-3050.5 0,-1684.75 -581.73,-3050.5 -1299.34,-3050.5" /></g></g><g
         id="g552"><g
           id="g554"><path
             inkscape:connector-curvature="0"
             id="path556"
             style="fill:#000000;fill-opacity:0;fill-rule:evenodd;stroke:none"
             d="m 244727.67,180189.5 h -5197.34 c -717.6,0 -1299.33,1365.75 -1299.33,3050.5 0,1684.75 581.73,3050.5 1299.33,3050.5 h 5197.34 v 0 c 717.6,0 1299.33,-1365.75 1299.33,-3050.5 0,-1684.75 -581.73,-3050.5 -1299.33,-3050.5 z" /></g></g><path
         inkscape:connector-curvature="0"
         id="path558"
         style="fill:none;stroke:#595959;stroke-width:381;stroke-linecap:butt;stroke-linejoin:round;stroke-miterlimit:8;stroke-dasharray:none;stroke-opacity:1"
         d="m 239530.33,186290.5 c 717.61,0 1299.34,-1365.75 1299.34,-3050.5 0,-1684.75 -581.73,-3050.5 -1299.34,-3050.5" /><path
         inkscape:connector-curvature="0"
         id="path560"
         style="fill:none;stroke:#595959;stroke-width:381;stroke-linecap:butt;stroke-linejoin:round;stroke-miterlimit:8;stroke-dasharray:none;stroke-opacity:1"
         d="m 244727.67,180189.5 h -5197.34 c -717.6,0 -1299.33,1365.75 -1299.33,3050.5 0,1684.75 581.73,3050.5 1299.33,3050.5 h 5197.34 v 0 c 717.6,0 1299.33,-1365.75 1299.33,-3050.5 0,-1684.75 -581.73,-3050.5 -1299.33,-3050.5 z" /></g><g
       id="g562"
       transform="matrix(0.0019685,0,0,-0.0019685,17.189278,518.58523)"><g
         id="g564"><path
           inkscape:connector-curvature="0"
           id="path566"
           style="fill:#eeeeee;fill-opacity:1;fill-rule:evenodd;stroke:none"
           d="m 244727.67,154565.5 h -5197.34 c -717.6,0 -1299.33,1365.75 -1299.33,3050.5 0,1684.75 581.73,3050.5 1299.33,3050.5 h 5197.34 v 0 c 717.6,0 1299.33,-1365.75 1299.33,-3050.5 0,-1684.75 -581.73,-3050.5 -1299.33,-3050.5 z" /></g><g
         id="g568"><g
           id="g570"><path
             inkscape:connector-curvature="0"
             id="path572"
             style="fill:#000000;fill-opacity:0;fill-rule:evenodd;stroke:none"
             d="m 239530.33,160666.5 c 717.61,0 1299.34,-1365.75 1299.34,-3050.5 0,-1684.75 -581.73,-3050.5 -1299.34,-3050.5" /></g></g><g
         id="g574"><g
           id="g576"><path
             inkscape:connector-curvature="0"
             id="path578"
             style="fill:#000000;fill-opacity:0;fill-rule:evenodd;stroke:none"
             d="m 244727.67,154565.5 h -5197.34 c -717.6,0 -1299.33,1365.75 -1299.33,3050.5 0,1684.75 581.73,3050.5 1299.33,3050.5 h 5197.34 v 0 c 717.6,0 1299.33,-1365.75 1299.33,-3050.5 0,-1684.75 -581.73,-3050.5 -1299.33,-3050.5 z" /></g></g><path
         inkscape:connector-curvature="0"
         id="path580"
         style="fill:none;stroke:#595959;stroke-width:381;stroke-linecap:butt;stroke-linejoin:round;stroke-miterlimit:8;stroke-dasharray:none;stroke-opacity:1"
         d="m 239530.33,160666.5 c 717.61,0 1299.34,-1365.75 1299.34,-3050.5 0,-1684.75 -581.73,-3050.5 -1299.34,-3050.5" /><path
         inkscape:connector-curvature="0"
         id="path582"
         style="fill:none;stroke:#595959;stroke-width:381;stroke-linecap:butt;stroke-linejoin:round;stroke-miterlimit:8;stroke-dasharray:none;stroke-opacity:1"
         d="m 244727.67,154565.5 h -5197.34 c -717.6,0 -1299.33,1365.75 -1299.33,3050.5 0,1684.75 581.73,3050.5 1299.33,3050.5 h 5197.34 v 0 c 717.6,0 1299.33,-1365.75 1299.33,-3050.5 0,-1684.75 -581.73,-3050.5 -1299.33,-3050.5 z" /></g><g
       id="g584"
       transform="matrix(0.0019685,0,0,-0.0019685,17.189278,518.58523)"><g
         id="g586"><path
           inkscape:connector-curvature="0"
           id="path588"
           style="fill:#eeeeee;fill-opacity:1;fill-rule:evenodd;stroke:none"
           d="m 178916.25,140159.5 h 5197.33 c 717.61,0 1299.34,1365.75 1299.34,3050.5 0,1684.75 -581.73,3050.5 -1299.34,3050.5 h -5197.33 v 0 c -717.61,0 -1299.33,-1365.75 -1299.33,-3050.5 0,-1684.75 581.72,-3050.5 1299.33,-3050.5 z" /></g><g
         id="g590"><g
           id="g592"><path
             inkscape:connector-curvature="0"
             id="path594"
             style="fill:#000000;fill-opacity:0;fill-rule:evenodd;stroke:none"
             d="m 184113.58,146260.5 c -717.6,0 -1299.33,-1365.75 -1299.33,-3050.5 0,-1684.75 581.73,-3050.5 1299.33,-3050.5" /></g></g><g
         id="g596"><g
           id="g598"><path
             inkscape:connector-curvature="0"
             id="path600"
             style="fill:#000000;fill-opacity:0;fill-rule:evenodd;stroke:none"
             d="m 178916.25,140159.5 h 5197.33 c 717.61,0 1299.34,1365.75 1299.34,3050.5 0,1684.75 -581.73,3050.5 -1299.34,3050.5 h -5197.33 v 0 c -717.61,0 -1299.33,-1365.75 -1299.33,-3050.5 0,-1684.75 581.72,-3050.5 1299.33,-3050.5 z" /></g></g><path
         inkscape:connector-curvature="0"
         id="path602"
         style="fill:none;stroke:#595959;stroke-width:381;stroke-linecap:butt;stroke-linejoin:round;stroke-miterlimit:8;stroke-dasharray:none;stroke-opacity:1"
         d="m 184113.58,146260.5 c -717.6,0 -1299.33,-1365.75 -1299.33,-3050.5 0,-1684.75 581.73,-3050.5 1299.33,-3050.5" /><path
         inkscape:connector-curvature="0"
         id="path604"
         style="fill:none;stroke:#595959;stroke-width:381;stroke-linecap:butt;stroke-linejoin:round;stroke-miterlimit:8;stroke-dasharray:none;stroke-opacity:1"
         d="m 178916.25,140159.5 h 5197.33 c 717.61,0 1299.34,1365.75 1299.34,3050.5 0,1684.75 -581.73,3050.5 -1299.34,3050.5 h -5197.33 v 0 c -717.61,0 -1299.33,-1365.75 -1299.33,-3050.5 0,-1684.75 581.72,-3050.5 1299.33,-3050.5 z" /></g><g
       id="g606"
       transform="matrix(0.0019685,0,0,-0.0019685,17.189278,518.58523)"><g
         id="g608"><path
           inkscape:connector-curvature="0"
           id="path610"
           style="fill:#eeeeee;fill-opacity:1;fill-rule:evenodd;stroke:none"
           d="m 260956.33,167375.5 h 5197.33 c 717.62,0 1299.34,1365.75 1299.34,3050.5 0,1684.75 -581.72,3050.5 -1299.34,3050.5 h -5197.33 v 0 c -717.6,0 -1299.33,-1365.75 -1299.33,-3050.5 0,-1684.75 581.73,-3050.5 1299.33,-3050.5 z" /></g><g
         id="g612"><g
           id="g614"><path
             inkscape:connector-curvature="0"
             id="path616"
             style="fill:#000000;fill-opacity:0;fill-rule:evenodd;stroke:none"
             d="m 266153.66,173476.5 c -717.6,0 -1299.32,-1365.75 -1299.32,-3050.5 0,-1684.75 581.72,-3050.5 1299.32,-3050.5" /></g></g><g
         id="g618"><g
           id="g620"><path
             inkscape:connector-curvature="0"
             id="path622"
             style="fill:#000000;fill-opacity:0;fill-rule:evenodd;stroke:none"
             d="m 260956.33,167375.5 h 5197.33 c 717.62,0 1299.34,1365.75 1299.34,3050.5 0,1684.75 -581.72,3050.5 -1299.34,3050.5 h -5197.33 v 0 c -717.6,0 -1299.33,-1365.75 -1299.33,-3050.5 0,-1684.75 581.73,-3050.5 1299.33,-3050.5 z" /></g></g><path
         inkscape:connector-curvature="0"
         id="path624"
         style="fill:none;stroke:#595959;stroke-width:381;stroke-linecap:butt;stroke-linejoin:round;stroke-miterlimit:8;stroke-dasharray:none;stroke-opacity:1"
         d="m 266153.66,173476.5 c -717.6,0 -1299.32,-1365.75 -1299.32,-3050.5 0,-1684.75 581.72,-3050.5 1299.32,-3050.5" /><path
         inkscape:connector-curvature="0"
         id="path626"
         style="fill:none;stroke:#595959;stroke-width:381;stroke-linecap:butt;stroke-linejoin:round;stroke-miterlimit:8;stroke-dasharray:none;stroke-opacity:1"
         d="m 260956.33,167375.5 h 5197.33 c 717.62,0 1299.34,1365.75 1299.34,3050.5 0,1684.75 -581.72,3050.5 -1299.34,3050.5 h -5197.33 v 0 c -717.6,0 -1299.33,-1365.75 -1299.33,-3050.5 0,-1684.75 581.73,-3050.5 1299.33,-3050.5 z" /></g><g
       id="g628"
       transform="matrix(0.0019685,0,0,-0.0019685,17.189278,518.58523)"><g
         id="g630"><g
           id="g632"><path
             inkscape:connector-curvature="0"
             id="path634"
             style="fill:#000000;fill-opacity:0;fill-rule:evenodd;stroke:none"
             d="M 58811.855,104557 H 226115.86 v 76260 H 58811.855 Z" /></g></g></g><g
       transform="matrix(0.7499985,0,0,-0.7499985,17.189278,518.58523)"
       id="g636"><g
         transform="translate(154.36182,274.42783)"
         id="g638"><g
           id="g640"><text
             id="text644"
             style="font-variant:normal;font-weight:normal;font-size:128px;font-family:Arial;-inkscape-font-specification:ArialMT;writing-mode:lr-tb;fill:#000000;fill-opacity:1;fill-rule:nonzero;stroke:none"
             transform="translate(9,131.88)"><tspan
               id="tspan642"
               sodipodi:role="line"
               y="0"
               x="0 42.624001">(</tspan></text>
<text
             id="text648"
             style="font-variant:normal;font-weight:normal;font-size:128px;font-family:Arial;-inkscape-font-specification:ArialMT;writing-mode:lr-tb;fill:#000000;fill-opacity:1;fill-rule:nonzero;stroke:none"
             transform="translate(340.4638,131.88)"><tspan
               id="tspan646"
               y="0"
               x="0">)</tspan></text>
</g></g></g><g
       id="g652"
       transform="matrix(0.0019685,0,0,-0.0019685,17.189278,518.58523)"><g
         id="g654"><g
           id="g656"><path
             inkscape:connector-curvature="0"
             id="path658"
             style="fill:#000000;fill-opacity:0;fill-rule:evenodd;stroke:none"
             d="m 119970,111955 c 9806.9,-3562.66 39131.52,-19683.664 58841.39,-21376 19709.86,-1692.336 49514.86,9351.664 59417.83,11222" /></g></g><path
         inkscape:connector-curvature="0"
         id="path660"
         style="fill:none;stroke:#6aa84f;stroke-width:3048;stroke-linecap:butt;stroke-linejoin:round;stroke-miterlimit:8;stroke-dasharray:none;stroke-opacity:1"
         d="m 119970,111955 c 9806.9,-3562.66 39131.52,-19683.664 58841.39,-21376 9854.92,-846.17 22233.64,1491.75 33386.5,4275 2788.22,695.81 5499.81,1419.45 8076.21,2128.14 l 291.62,80.524" /><path
         inkscape:connector-curvature="0"
         id="path662"
         style="fill:#6aa84f;fill-opacity:1;fill-rule:evenodd;stroke:#6aa84f;stroke-width:3048;stroke-linecap:butt;stroke-linejoin:miter;stroke-miterlimit:10;stroke-dasharray:none;stroke-opacity:1"
         d="M 219261.31,101925.23 233925.5,100646.5 221870.14,92200.1 Z" /></g><g
       id="g664"
       transform="matrix(0.0019685,0,0,-0.0019685,17.189278,518.58523)"><g
         id="g666"><g
           id="g668"><path
             inkscape:connector-curvature="0"
             id="path670"
             style="fill:#000000;fill-opacity:0;fill-rule:evenodd;stroke:none"
             d="m 172323.11,174461.05 c 5243.67,1952.68 20923.29,10788.61 31462.01,11716.17 10538.71,927.58 26475.21,-5125.64 31770.24,-6150.77" /></g></g><path
         inkscape:connector-curvature="0"
         id="path672"
         style="fill:none;stroke:#6aa84f;stroke-width:3048;stroke-linecap:butt;stroke-linejoin:round;stroke-miterlimit:8;stroke-dasharray:none;stroke-opacity:1"
         d="m 172323.11,174461.05 c 5243.67,1952.68 20923.29,10788.61 31462.01,11716.17 2634.68,231.89 5606.72,27.48 8665.5,-425.58 1529.4,-226.53 3080.48,-515.24 4621.93,-842.64 192.67,-40.92 385.2,-82.45 577.51,-124.55 l 233.22,-51.76" /><path
         inkscape:connector-curvature="0"
         id="path674"
         style="fill:#6aa84f;fill-opacity:1;fill-rule:evenodd;stroke:#6aa84f;stroke-width:3048;stroke-linecap:butt;stroke-linejoin:miter;stroke-miterlimit:10;stroke-dasharray:none;stroke-opacity:1"
         d="m 219178.86,189597.61 12070.69,-8424.49 -14661.85,-1305.35 z" /></g></g></svg>