<?xml version="1.0" encoding="UTF-8" standalone="no"?>
<!-- Created with Inkscape (http://www.inkscape.org/) -->

<svg
   xmlns:dc="http://purl.org/dc/elements/1.1/"
   xmlns:cc="http://creativecommons.org/ns#"
   xmlns:rdf="http://www.w3.org/1999/02/22-rdf-syntax-ns#"
   xmlns:svg="http://www.w3.org/2000/svg"
   xmlns="http://www.w3.org/2000/svg"
   xmlns:sodipodi="http://sodipodi.sourceforge.net/DTD/sodipodi-0.dtd"
   xmlns:inkscape="http://www.inkscape.org/namespaces/inkscape"
   version="1.1"
   id="svg2"
   xml:space="preserve"
   width="501.58167"
   height="264.15958"
   viewBox="0 0 501.58167 264.15958"
   sodipodi:docname="mlr3pipelines-slide6.svg"
   inkscape:version="0.92.4 5da689c313, 2019-01-14"><metadata
     id="metadata8"><rdf:RDF><cc:Work
         rdf:about=""><dc:format>image/svg+xml</dc:format><dc:type
           rdf:resource="http://purl.org/dc/dcmitype/StillImage" /><dc:title></dc:title></cc:Work></rdf:RDF></metadata><defs
     id="defs6"><clipPath
       clipPathUnits="userSpaceOnUse"
       id="clipPath20"><path
         d="M 0,0 H 365760 V 205740 H 0 Z"
         id="path18"
         inkscape:connector-curvature="0" /></clipPath></defs><sodipodi:namedview
     pagecolor="#ffffff"
     bordercolor="#666666"
     borderopacity="1"
     objecttolerance="10"
     gridtolerance="10"
     guidetolerance="10"
     inkscape:pageopacity="0"
     inkscape:pageshadow="2"
     inkscape:window-width="1920"
     inkscape:window-height="1145"
     id="namedview4"
     showgrid="false"
     fit-margin-top="0"
     fit-margin-left="0"
     fit-margin-right="0"
     fit-margin-bottom="0"
     inkscape:zoom="0.87407407"
     inkscape:cx="-26.074225"
     inkscape:cy="203.35712"
     inkscape:window-x="0"
     inkscape:window-y="360"
     inkscape:window-maximized="1"
     inkscape:current-layer="g10" /><g
     id="g10"
     inkscape:groupmode="layer"
     inkscape:label="mlr3Pipelines_graphics"
     transform="matrix(1.3333333,0,0,-1.3333333,-206.81717,289.2347)"><g
       id="g28"
       transform="matrix(0.0019685,0,0,-0.0019685,0,405)"><g
         id="g30"><path
           inkscape:connector-curvature="0"
           id="path32"
           style="fill:#d0e0e3;fill-opacity:1;fill-rule:evenodd;stroke:none"
           d="m 222896,156413.9 v 0 c 0,-3793.17 3074.97,-6868.13 6868.14,-6868.13 h 27471.72 v 0 c 1821.54,0 3568.48,723.61 4856.52,2011.62 1288.02,1288.03 2011.62,3034.97 2011.62,4856.51 v 32523.72 c 0,3793.18 -3074.97,6868.15 -6868.14,6868.15 h -27471.72 c -3793.17,0 -6868.14,-3074.97 -6868.14,-6868.15 z" /></g><path
         inkscape:connector-curvature="0"
         id="path34"
         style="fill:none;stroke:#000000;stroke-width:762;stroke-linecap:butt;stroke-linejoin:round;stroke-miterlimit:8;stroke-dasharray:none;stroke-opacity:1"
         d="m 222896,156413.9 v 0 c 0,-3793.17 3074.97,-6868.13 6868.14,-6868.13 h 27471.72 v 0 c 1821.54,0 3568.48,723.61 4856.52,2011.62 1288.02,1288.03 2011.62,3034.97 2011.62,4856.51 v 32523.72 c 0,3793.18 -3074.97,6868.15 -6868.14,6868.15 h -27471.72 c -3793.17,0 -6868.14,-3074.97 -6868.14,-6868.15 z" /></g><g
       transform="matrix(0.7499985,0,0,-0.7499985,0,405)"
       id="g36"><g
         transform="translate(590.30865,397.7884)"
         id="g38"><g
           id="g40"><text
   id="text44"
   style="font-variant:normal;font-weight:normal;font-size:15.33333302px;font-family:FiraSans;-inkscape-font-specification:FiraSans-Regular;writing-mode:lr-tb;fill:#000000;fill-opacity:1;fill-rule:nonzero;stroke:none"
   transform="translate(27.354828,52.14885)"><tspan
     id="tspan42"
     sodipodi:role="line"
     y="0"
     x="0 11.929333 20.883999 30.053333 38.41 42.902664">Model </tspan></text>

<text
   id="text48"
   style="font-variant:normal;font-weight:normal;font-size:15.33333302px;font-family:FiraSans;-inkscape-font-specification:FiraSans-Regular;writing-mode:lr-tb;fill:#000000;fill-opacity:1;fill-rule:nonzero;stroke:none"
   transform="translate(15.084763,70.14885)"><tspan
     id="tspan46"
     sodipodi:role="line"
     y="0"
     x="0 8.7860003 16.268667 24.625332 30.007332 38.195332 46.168667 50.492664 59.477997">Averaging</tspan></text>

</g></g></g><g
       transform="matrix(0.7499985,0,0,-0.7499985,0,405)"
       id="g50" /><g
       id="g52"
       transform="matrix(0.0019685,0,0,-0.0019685,0,405)"><g
         id="g54"><path
           inkscape:connector-curvature="0"
           id="path56"
           style="fill:#eeeeee;fill-opacity:1;fill-rule:evenodd;stroke:none"
           d="m 263213.34,169625.5 h 5197.32 c 717.62,0 1299.34,1365.75 1299.34,3050.5 0,1684.75 -581.72,3050.5 -1299.34,3050.5 h -5197.32 v 0 c -717.62,0 -1299.34,-1365.75 -1299.34,-3050.5 0,-1684.75 581.72,-3050.5 1299.34,-3050.5 z" /></g><g
         id="g58"><g
           id="g60"><path
             inkscape:connector-curvature="0"
             id="path62"
             style="fill:#000000;fill-opacity:0;fill-rule:evenodd;stroke:none"
             d="m 268410.66,175726.5 c -717.6,0 -1299.32,-1365.75 -1299.32,-3050.5 0,-1684.75 581.72,-3050.5 1299.32,-3050.5" /></g></g><g
         id="g64"><g
           id="g66"><path
             inkscape:connector-curvature="0"
             id="path68"
             style="fill:#000000;fill-opacity:0;fill-rule:evenodd;stroke:none"
             d="m 263213.34,169625.5 h 5197.32 c 717.62,0 1299.34,1365.75 1299.34,3050.5 0,1684.75 -581.72,3050.5 -1299.34,3050.5 h -5197.32 v 0 c -717.62,0 -1299.34,-1365.75 -1299.34,-3050.5 0,-1684.75 581.72,-3050.5 1299.34,-3050.5 z" /></g></g><path
         inkscape:connector-curvature="0"
         id="path70"
         style="fill:none;stroke:#595959;stroke-width:381;stroke-linecap:butt;stroke-linejoin:round;stroke-miterlimit:8;stroke-dasharray:none;stroke-opacity:1"
         d="m 268410.66,175726.5 c -717.6,0 -1299.32,-1365.75 -1299.32,-3050.5 0,-1684.75 581.72,-3050.5 1299.32,-3050.5" /><path
         inkscape:connector-curvature="0"
         id="path72"
         style="fill:none;stroke:#595959;stroke-width:381;stroke-linecap:butt;stroke-linejoin:round;stroke-miterlimit:8;stroke-dasharray:none;stroke-opacity:1"
         d="m 263213.34,169625.5 h 5197.32 c 717.62,0 1299.34,1365.75 1299.34,3050.5 0,1684.75 -581.72,3050.5 -1299.34,3050.5 h -5197.32 v 0 c -717.62,0 -1299.34,-1365.75 -1299.34,-3050.5 0,-1684.75 581.72,-3050.5 1299.34,-3050.5 z" /></g><g
       id="g74"
       transform="matrix(0.0019685,0,0,-0.0019685,0,405)"><g
         id="g76"><path
           inkscape:connector-curvature="0"
           id="path78"
           style="fill:#eeeeee;fill-opacity:1;fill-rule:evenodd;stroke:none"
           d="m 223786.67,169625.5 h -5197.34 c -717.6,0 -1299.33,1365.75 -1299.33,3050.5 0,1684.75 581.73,3050.5 1299.33,3050.5 h 5197.34 v 0 c 717.6,0 1299.33,-1365.75 1299.33,-3050.5 0,-1684.75 -581.73,-3050.5 -1299.33,-3050.5 z" /></g><g
         id="g80"><g
           id="g82"><path
             inkscape:connector-curvature="0"
             id="path84"
             style="fill:#000000;fill-opacity:0;fill-rule:evenodd;stroke:none"
             d="m 218589.33,175726.5 c 717.61,0 1299.34,-1365.75 1299.34,-3050.5 0,-1684.75 -581.73,-3050.5 -1299.34,-3050.5" /></g></g><g
         id="g86"><g
           id="g88"><path
             inkscape:connector-curvature="0"
             id="path90"
             style="fill:#000000;fill-opacity:0;fill-rule:evenodd;stroke:none"
             d="m 223786.67,169625.5 h -5197.34 c -717.6,0 -1299.33,1365.75 -1299.33,3050.5 0,1684.75 581.73,3050.5 1299.33,3050.5 h 5197.34 v 0 c 717.6,0 1299.33,-1365.75 1299.33,-3050.5 0,-1684.75 -581.73,-3050.5 -1299.33,-3050.5 z" /></g></g><path
         inkscape:connector-curvature="0"
         id="path92"
         style="fill:none;stroke:#595959;stroke-width:381;stroke-linecap:butt;stroke-linejoin:round;stroke-miterlimit:8;stroke-dasharray:none;stroke-opacity:1"
         d="m 218589.33,175726.5 c 717.61,0 1299.34,-1365.75 1299.34,-3050.5 0,-1684.75 -581.73,-3050.5 -1299.34,-3050.5" /><path
         inkscape:connector-curvature="0"
         id="path94"
         style="fill:none;stroke:#595959;stroke-width:381;stroke-linecap:butt;stroke-linejoin:round;stroke-miterlimit:8;stroke-dasharray:none;stroke-opacity:1"
         d="m 223786.67,169625.5 h -5197.34 c -717.6,0 -1299.33,1365.75 -1299.33,3050.5 0,1684.75 581.73,3050.5 1299.33,3050.5 h 5197.34 v 0 c 717.6,0 1299.33,-1365.75 1299.33,-3050.5 0,-1684.75 -581.73,-3050.5 -1299.33,-3050.5 z" /></g><g
       id="g96"
       transform="matrix(0.0019685,0,0,-0.0019685,0,405)"><g
         id="g98"><path
           inkscape:connector-curvature="0"
           id="path100"
           style="fill:#d0e0e3;fill-opacity:1;fill-rule:evenodd;stroke:none"
           d="m 84593.77,99954.22 v 0 c 0,-1695.55 1374.52,-3070.06 3070.066,-3070.06 h 35067.874 c 814.23,0 1595.12,323.45 2170.87,899.19 575.74,575.75 899.19,1356.634 899.19,2170.87 v 12279.87 c 0,1695.55 -1374.51,3070.07 -3070.06,3070.07 H 87663.836 c -1695.546,0 -3070.066,-1374.52 -3070.066,-3070.07 z" /></g><path
         inkscape:connector-curvature="0"
         id="path102"
         style="fill:none;stroke:#000000;stroke-width:762;stroke-linecap:butt;stroke-linejoin:round;stroke-miterlimit:8;stroke-dasharray:none;stroke-opacity:1"
         d="m 84593.77,99954.22 v 0 c 0,-1695.55 1374.52,-3070.06 3070.066,-3070.06 h 35067.874 c 814.23,0 1595.12,323.45 2170.87,899.19 575.74,575.75 899.19,1356.634 899.19,2170.87 v 12279.87 c 0,1695.55 -1374.51,3070.07 -3070.06,3070.07 H 87663.836 c -1695.546,0 -3070.066,-1374.52 -3070.066,-3070.07 z" /></g><g
       transform="matrix(0.7499985,0,0,-0.7499985,0,405)"
       id="g104"><g
         transform="translate(224.39099,256.6492)"
         id="g106"><g
           id="g108"><text
   id="text112"
   style="font-variant:normal;font-weight:normal;font-size:15.33333302px;font-family:FiraSans;-inkscape-font-specification:FiraSans-Regular;writing-mode:lr-tb;fill:#000000;fill-opacity:1;fill-rule:nonzero;stroke:none"
   transform="translate(26.979061,27.533148)"><tspan
     id="tspan110"
     sodipodi:role="line"
     y="0"
     x="0 8.3566666 15.532666 23.720667 28.213333 32.537334 41.522667">Scaling</tspan></text>

</g></g></g><g
       transform="matrix(0.7499985,0,0,-0.7499985,0,405)"
       id="g114" /><g
       id="g116"
       transform="matrix(0.0019685,0,0,-0.0019685,0,405)"><g
         id="g118"><path
           inkscape:connector-curvature="0"
           id="path120"
           style="fill:#eeeeee;fill-opacity:1;fill-rule:evenodd;stroke:none"
           d="m 124911.34,103043.5 h 5197.32 c 717.61,0 1299.34,1365.76 1299.34,3050.5 0,1684.74 -581.73,3050.5 -1299.34,3050.5 h -5197.32 v 0 c -717.61,0 -1299.34,-1365.76 -1299.34,-3050.5 0,-1684.74 581.73,-3050.5 1299.34,-3050.5 z" /></g><g
         id="g122"><g
           id="g124"><path
             inkscape:connector-curvature="0"
             id="path126"
             style="fill:#000000;fill-opacity:0;fill-rule:evenodd;stroke:none"
             d="m 130108.66,109144.5 c -717.6,0 -1299.32,-1365.76 -1299.32,-3050.5 0,-1684.74 581.72,-3050.5 1299.32,-3050.5" /></g></g><g
         id="g128"><g
           id="g130"><path
             inkscape:connector-curvature="0"
             id="path132"
             style="fill:#000000;fill-opacity:0;fill-rule:evenodd;stroke:none"
             d="m 124911.34,103043.5 h 5197.32 c 717.61,0 1299.34,1365.76 1299.34,3050.5 0,1684.74 -581.73,3050.5 -1299.34,3050.5 h -5197.32 v 0 c -717.61,0 -1299.34,-1365.76 -1299.34,-3050.5 0,-1684.74 581.73,-3050.5 1299.34,-3050.5 z" /></g></g><path
         inkscape:connector-curvature="0"
         id="path134"
         style="fill:none;stroke:#595959;stroke-width:381;stroke-linecap:butt;stroke-linejoin:round;stroke-miterlimit:8;stroke-dasharray:none;stroke-opacity:1"
         d="m 130108.66,109144.5 c -717.6,0 -1299.32,-1365.76 -1299.32,-3050.5 0,-1684.74 581.72,-3050.5 1299.32,-3050.5" /><path
         inkscape:connector-curvature="0"
         id="path136"
         style="fill:none;stroke:#595959;stroke-width:381;stroke-linecap:butt;stroke-linejoin:round;stroke-miterlimit:8;stroke-dasharray:none;stroke-opacity:1"
         d="m 124911.34,103043.5 h 5197.32 c 717.61,0 1299.34,1365.76 1299.34,3050.5 0,1684.74 -581.73,3050.5 -1299.34,3050.5 h -5197.32 v 0 c -717.61,0 -1299.34,-1365.76 -1299.34,-3050.5 0,-1684.74 581.73,-3050.5 1299.34,-3050.5 z" /></g><g
       id="g138"
       transform="matrix(0.0019685,0,0,-0.0019685,0,405)"><g
         id="g140"><path
           inkscape:connector-curvature="0"
           id="path142"
           style="fill:#eeeeee;fill-opacity:1;fill-rule:evenodd;stroke:none"
           d="m 85484.664,103043.5 h -5197.328 c -717.602,0 -1299.336,1365.76 -1299.336,3050.5 0,1684.74 581.734,3050.5 1299.336,3050.5 h 5197.328 v 0 c 717.602,0 1299.336,-1365.76 1299.336,-3050.5 0,-1684.74 -581.734,-3050.5 -1299.336,-3050.5 z" /></g><g
         id="g144"><g
           id="g146"><path
             inkscape:connector-curvature="0"
             id="path148"
             style="fill:#000000;fill-opacity:0;fill-rule:evenodd;stroke:none"
             d="m 80287.336,109144.5 c 717.604,0 1299.328,-1365.76 1299.328,-3050.5 0,-1684.74 -581.724,-3050.5 -1299.328,-3050.5" /></g></g><g
         id="g150"><g
           id="g152"><path
             inkscape:connector-curvature="0"
             id="path154"
             style="fill:#000000;fill-opacity:0;fill-rule:evenodd;stroke:none"
             d="m 85484.664,103043.5 h -5197.328 c -717.602,0 -1299.336,1365.76 -1299.336,3050.5 0,1684.74 581.734,3050.5 1299.336,3050.5 h 5197.328 v 0 c 717.602,0 1299.336,-1365.76 1299.336,-3050.5 0,-1684.74 -581.734,-3050.5 -1299.336,-3050.5 z" /></g></g><path
         inkscape:connector-curvature="0"
         id="path156"
         style="fill:none;stroke:#595959;stroke-width:381;stroke-linecap:butt;stroke-linejoin:round;stroke-miterlimit:8;stroke-dasharray:none;stroke-opacity:1"
         d="m 80287.336,109144.5 c 717.604,0 1299.328,-1365.76 1299.328,-3050.5 0,-1684.74 -581.724,-3050.5 -1299.328,-3050.5" /><path
         inkscape:connector-curvature="0"
         id="path158"
         style="fill:none;stroke:#595959;stroke-width:381;stroke-linecap:butt;stroke-linejoin:round;stroke-miterlimit:8;stroke-dasharray:none;stroke-opacity:1"
         d="m 85484.664,103043.5 h -5197.328 c -717.602,0 -1299.336,1365.76 -1299.336,3050.5 0,1684.74 581.734,3050.5 1299.336,3050.5 h 5197.328 v 0 c 717.602,0 1299.336,-1365.76 1299.336,-3050.5 0,-1684.74 -581.734,-3050.5 -1299.336,-3050.5 z" /></g><g
       id="g160"
       transform="matrix(0.0019685,0,0,-0.0019685,0,405)"><g
         id="g162"><path
           inkscape:connector-curvature="0"
           id="path164"
           style="fill:#eeeeee;fill-opacity:1;fill-rule:evenodd;stroke:none"
           d="m 223786.67,181822.5 h -5197.34 c -717.6,0 -1299.33,1365.75 -1299.33,3050.5 0,1684.75 581.73,3050.5 1299.33,3050.5 h 5197.34 v 0 c 717.6,0 1299.33,-1365.75 1299.33,-3050.5 0,-1684.75 -581.73,-3050.5 -1299.33,-3050.5 z" /></g><g
         id="g166"><g
           id="g168"><path
             inkscape:connector-curvature="0"
             id="path170"
             style="fill:#000000;fill-opacity:0;fill-rule:evenodd;stroke:none"
             d="m 218589.33,187923.5 c 717.61,0 1299.34,-1365.75 1299.34,-3050.5 0,-1684.75 -581.73,-3050.5 -1299.34,-3050.5" /></g></g><g
         id="g172"><g
           id="g174"><path
             inkscape:connector-curvature="0"
             id="path176"
             style="fill:#000000;fill-opacity:0;fill-rule:evenodd;stroke:none"
             d="m 223786.67,181822.5 h -5197.34 c -717.6,0 -1299.33,1365.75 -1299.33,3050.5 0,1684.75 581.73,3050.5 1299.33,3050.5 h 5197.34 v 0 c 717.6,0 1299.33,-1365.75 1299.33,-3050.5 0,-1684.75 -581.73,-3050.5 -1299.33,-3050.5 z" /></g></g><path
         inkscape:connector-curvature="0"
         id="path178"
         style="fill:none;stroke:#595959;stroke-width:381;stroke-linecap:butt;stroke-linejoin:round;stroke-miterlimit:8;stroke-dasharray:none;stroke-opacity:1"
         d="m 218589.33,187923.5 c 717.61,0 1299.34,-1365.75 1299.34,-3050.5 0,-1684.75 -581.73,-3050.5 -1299.34,-3050.5" /><path
         inkscape:connector-curvature="0"
         id="path180"
         style="fill:none;stroke:#595959;stroke-width:381;stroke-linecap:butt;stroke-linejoin:round;stroke-miterlimit:8;stroke-dasharray:none;stroke-opacity:1"
         d="m 223786.67,181822.5 h -5197.34 c -717.6,0 -1299.33,1365.75 -1299.33,3050.5 0,1684.75 581.73,3050.5 1299.33,3050.5 h 5197.34 v 0 c 717.6,0 1299.33,-1365.75 1299.33,-3050.5 0,-1684.75 -581.73,-3050.5 -1299.33,-3050.5 z" /></g><g
       id="g182"
       transform="matrix(0.0019685,0,0,-0.0019685,0,405)"><g
         id="g184"><path
           inkscape:connector-curvature="0"
           id="path186"
           style="fill:#eeeeee;fill-opacity:1;fill-rule:evenodd;stroke:none"
           d="m 223786.67,157428.5 h -5197.34 c -717.6,0 -1299.33,1365.75 -1299.33,3050.5 0,1684.75 581.73,3050.5 1299.33,3050.5 h 5197.34 v 0 c 717.6,0 1299.33,-1365.75 1299.33,-3050.5 0,-1684.75 -581.73,-3050.5 -1299.33,-3050.5 z" /></g><g
         id="g188"><g
           id="g190"><path
             inkscape:connector-curvature="0"
             id="path192"
             style="fill:#000000;fill-opacity:0;fill-rule:evenodd;stroke:none"
             d="m 218589.33,163529.5 c 717.61,0 1299.34,-1365.75 1299.34,-3050.5 0,-1684.75 -581.73,-3050.5 -1299.34,-3050.5" /></g></g><g
         id="g194"><g
           id="g196"><path
             inkscape:connector-curvature="0"
             id="path198"
             style="fill:#000000;fill-opacity:0;fill-rule:evenodd;stroke:none"
             d="m 223786.67,157428.5 h -5197.34 c -717.6,0 -1299.33,1365.75 -1299.33,3050.5 0,1684.75 581.73,3050.5 1299.33,3050.5 h 5197.34 v 0 c 717.6,0 1299.33,-1365.75 1299.33,-3050.5 0,-1684.75 -581.73,-3050.5 -1299.33,-3050.5 z" /></g></g><path
         inkscape:connector-curvature="0"
         id="path200"
         style="fill:none;stroke:#595959;stroke-width:381;stroke-linecap:butt;stroke-linejoin:round;stroke-miterlimit:8;stroke-dasharray:none;stroke-opacity:1"
         d="m 218589.33,163529.5 c 717.61,0 1299.34,-1365.75 1299.34,-3050.5 0,-1684.75 -581.73,-3050.5 -1299.34,-3050.5" /><path
         inkscape:connector-curvature="0"
         id="path202"
         style="fill:none;stroke:#595959;stroke-width:381;stroke-linecap:butt;stroke-linejoin:round;stroke-miterlimit:8;stroke-dasharray:none;stroke-opacity:1"
         d="m 223786.67,157428.5 h -5197.34 c -717.6,0 -1299.33,1365.75 -1299.33,3050.5 0,1684.75 581.73,3050.5 1299.33,3050.5 h 5197.34 v 0 c 717.6,0 1299.33,-1365.75 1299.33,-3050.5 0,-1684.75 -581.73,-3050.5 -1299.33,-3050.5 z" /></g><g
       id="g204"
       transform="matrix(0.0019685,0,0,-0.0019685,0,405)"><g
         id="g206"><path
           inkscape:connector-curvature="0"
           id="path208"
           style="fill:#d0e0e3;fill-opacity:1;fill-rule:evenodd;stroke:none"
           d="m 194953,102790.91 v 0 c 0,-3793.176 -3074.97,-6868.144 -6868.14,-6868.144 h -27471.72 v 0 c -1821.54,0 -3568.48,723.604 -4856.52,2011.634 -1288.01,1288.02 -2011.62,3034.96 -2011.62,4856.51 v 32523.71 c 0,3793.18 3074.97,6868.15 6868.14,6868.15 h 27471.72 c 3793.17,0 6868.14,-3074.97 6868.14,-6868.15 z" /></g><path
         inkscape:connector-curvature="0"
         id="path210"
         style="fill:none;stroke:#000000;stroke-width:762;stroke-linecap:butt;stroke-linejoin:round;stroke-miterlimit:8;stroke-dasharray:none;stroke-opacity:1"
         d="m 194953,102790.91 v 0 c 0,-3793.176 -3074.97,-6868.144 -6868.14,-6868.144 h -27471.72 v 0 c -1821.54,0 -3568.48,723.604 -4856.52,2011.634 -1288.01,1288.02 -2011.62,3034.96 -2011.62,4856.51 v 32523.71 c 0,3793.18 3074.97,6868.15 6868.14,6868.15 h 27471.72 c 3793.17,0 6868.14,-3074.97 6868.14,-6868.15 z" /></g><g
       transform="matrix(0.7499985,0,0,-0.7499985,0,405)"
       id="g212"><g
         transform="translate(408.81,257.0456)"
         id="g214"><g
           id="g216"><text
   id="text220"
   style="font-variant:normal;font-weight:normal;font-size:15.33333302px;font-family:FiraSans;-inkscape-font-specification:FiraSans-Regular;writing-mode:lr-tb;fill:#000000;fill-opacity:1;fill-rule:nonzero;stroke:none"
   transform="translate(33.340614,52.14885)"><tspan
     id="tspan218"
     sodipodi:role="line"
     y="0"
     x="0 8.0653334 16.406666 21.941999 30.927332">Path </tspan></text>

<text
   id="text224"
   style="font-variant:normal;font-weight:normal;font-size:15.33333302px;font-family:FiraSans;-inkscape-font-specification:FiraSans-Regular;writing-mode:lr-tb;fill:#000000;fill-opacity:1;fill-rule:nonzero;stroke:none"
   transform="translate(13.996422,70.14885)"><tspan
     id="tspan222"
     sodipodi:role="line"
     y="0"
     x="0 9.3226662 14.704666 23.046 32.031334 39.360664 48.346001 52.669998 61.655331">Branching</tspan></text>

</g></g></g><g
       transform="matrix(0.7499985,0,0,-0.7499985,0,405)"
       id="g226" /><g
       id="g228"
       transform="matrix(0.0019685,0,0,-0.0019685,0,405)"><g
         id="g230"><path
           inkscape:connector-curvature="0"
           id="path232"
           style="fill:#eeeeee;fill-opacity:1;fill-rule:evenodd;stroke:none"
           d="m 154635.67,116002.5 h -5197.34 c -717.6,0 -1299.33,1365.76 -1299.33,3050.5 0,1684.74 581.73,3050.5 1299.33,3050.5 h 5197.34 v 0 c 717.6,0 1299.33,-1365.76 1299.33,-3050.5 0,-1684.74 -581.73,-3050.5 -1299.33,-3050.5 z" /></g><g
         id="g234"><g
           id="g236"><path
             inkscape:connector-curvature="0"
             id="path238"
             style="fill:#000000;fill-opacity:0;fill-rule:evenodd;stroke:none"
             d="m 149438.33,122103.5 c 717.61,0 1299.34,-1365.76 1299.34,-3050.5 0,-1684.74 -581.73,-3050.5 -1299.34,-3050.5" /></g></g><g
         id="g240"><g
           id="g242"><path
             inkscape:connector-curvature="0"
             id="path244"
             style="fill:#000000;fill-opacity:0;fill-rule:evenodd;stroke:none"
             d="m 154635.67,116002.5 h -5197.34 c -717.6,0 -1299.33,1365.76 -1299.33,3050.5 0,1684.74 581.73,3050.5 1299.33,3050.5 h 5197.34 v 0 c 717.6,0 1299.33,-1365.76 1299.33,-3050.5 0,-1684.74 -581.73,-3050.5 -1299.33,-3050.5 z" /></g></g><path
         inkscape:connector-curvature="0"
         id="path246"
         style="fill:none;stroke:#595959;stroke-width:381;stroke-linecap:butt;stroke-linejoin:round;stroke-miterlimit:8;stroke-dasharray:none;stroke-opacity:1"
         d="m 149438.33,122103.5 c 717.61,0 1299.34,-1365.76 1299.34,-3050.5 0,-1684.74 -581.73,-3050.5 -1299.34,-3050.5" /><path
         inkscape:connector-curvature="0"
         id="path248"
         style="fill:none;stroke:#595959;stroke-width:381;stroke-linecap:butt;stroke-linejoin:round;stroke-miterlimit:8;stroke-dasharray:none;stroke-opacity:1"
         d="m 154635.67,116002.5 h -5197.34 c -717.6,0 -1299.33,1365.76 -1299.33,3050.5 0,1684.74 581.73,3050.5 1299.33,3050.5 h 5197.34 v 0 c 717.6,0 1299.33,-1365.76 1299.33,-3050.5 0,-1684.74 -581.73,-3050.5 -1299.33,-3050.5 z" /></g><g
       id="g250"
       transform="matrix(0.0019685,0,0,-0.0019685,0,405)"><g
         id="g252"><path
           inkscape:connector-curvature="0"
           id="path254"
           style="fill:#eeeeee;fill-opacity:1;fill-rule:evenodd;stroke:none"
           d="m 194062.33,116002.5 h 5197.34 c 717.6,0 1299.33,1365.76 1299.33,3050.5 0,1684.74 -581.73,3050.5 -1299.33,3050.5 h -5197.34 v 0 c -717.6,0 -1299.33,-1365.76 -1299.33,-3050.5 0,-1684.74 581.73,-3050.5 1299.33,-3050.5 z" /></g><g
         id="g256"><g
           id="g258"><path
             inkscape:connector-curvature="0"
             id="path260"
             style="fill:#000000;fill-opacity:0;fill-rule:evenodd;stroke:none"
             d="m 199259.67,122103.5 c -717.61,0 -1299.34,-1365.76 -1299.34,-3050.5 0,-1684.74 581.73,-3050.5 1299.34,-3050.5" /></g></g><g
         id="g262"><g
           id="g264"><path
             inkscape:connector-curvature="0"
             id="path266"
             style="fill:#000000;fill-opacity:0;fill-rule:evenodd;stroke:none"
             d="m 194062.33,116002.5 h 5197.34 c 717.6,0 1299.33,1365.76 1299.33,3050.5 0,1684.74 -581.73,3050.5 -1299.33,3050.5 h -5197.34 v 0 c -717.6,0 -1299.33,-1365.76 -1299.33,-3050.5 0,-1684.74 581.73,-3050.5 1299.33,-3050.5 z" /></g></g><path
         inkscape:connector-curvature="0"
         id="path268"
         style="fill:none;stroke:#595959;stroke-width:381;stroke-linecap:butt;stroke-linejoin:round;stroke-miterlimit:8;stroke-dasharray:none;stroke-opacity:1"
         d="m 199259.67,122103.5 c -717.61,0 -1299.34,-1365.76 -1299.34,-3050.5 0,-1684.74 581.73,-3050.5 1299.34,-3050.5" /><path
         inkscape:connector-curvature="0"
         id="path270"
         style="fill:none;stroke:#595959;stroke-width:381;stroke-linecap:butt;stroke-linejoin:round;stroke-miterlimit:8;stroke-dasharray:none;stroke-opacity:1"
         d="m 194062.33,116002.5 h 5197.34 c 717.6,0 1299.33,1365.76 1299.33,3050.5 0,1684.74 -581.73,3050.5 -1299.33,3050.5 h -5197.34 v 0 c -717.6,0 -1299.33,-1365.76 -1299.33,-3050.5 0,-1684.74 581.73,-3050.5 1299.33,-3050.5 z" /></g><g
       id="g272"
       transform="matrix(0.0019685,0,0,-0.0019685,0,405)"><g
         id="g274"><path
           inkscape:connector-curvature="0"
           id="path276"
           style="fill:#eeeeee;fill-opacity:1;fill-rule:evenodd;stroke:none"
           d="m 194062.33,128199.5 h 5197.34 c 717.6,0 1299.33,1365.76 1299.33,3050.5 0,1684.75 -581.73,3050.5 -1299.33,3050.5 h -5197.34 v 0 c -717.6,0 -1299.33,-1365.75 -1299.33,-3050.5 0,-1684.74 581.73,-3050.5 1299.33,-3050.5 z" /></g><g
         id="g278"><g
           id="g280"><path
             inkscape:connector-curvature="0"
             id="path282"
             style="fill:#000000;fill-opacity:0;fill-rule:evenodd;stroke:none"
             d="m 199259.67,134300.5 c -717.61,0 -1299.34,-1365.75 -1299.34,-3050.5 0,-1684.74 581.73,-3050.5 1299.34,-3050.5" /></g></g><g
         id="g284"><g
           id="g286"><path
             inkscape:connector-curvature="0"
             id="path288"
             style="fill:#000000;fill-opacity:0;fill-rule:evenodd;stroke:none"
             d="m 194062.33,128199.5 h 5197.34 c 717.6,0 1299.33,1365.76 1299.33,3050.5 0,1684.75 -581.73,3050.5 -1299.33,3050.5 h -5197.34 v 0 c -717.6,0 -1299.33,-1365.75 -1299.33,-3050.5 0,-1684.74 581.73,-3050.5 1299.33,-3050.5 z" /></g></g><path
         inkscape:connector-curvature="0"
         id="path290"
         style="fill:none;stroke:#595959;stroke-width:381;stroke-linecap:butt;stroke-linejoin:round;stroke-miterlimit:8;stroke-dasharray:none;stroke-opacity:1"
         d="m 199259.67,134300.5 c -717.61,0 -1299.34,-1365.75 -1299.34,-3050.5 0,-1684.74 581.73,-3050.5 1299.34,-3050.5" /><path
         inkscape:connector-curvature="0"
         id="path292"
         style="fill:none;stroke:#595959;stroke-width:381;stroke-linecap:butt;stroke-linejoin:round;stroke-miterlimit:8;stroke-dasharray:none;stroke-opacity:1"
         d="m 194062.33,128199.5 h 5197.34 c 717.6,0 1299.33,1365.76 1299.33,3050.5 0,1684.75 -581.73,3050.5 -1299.33,3050.5 h -5197.34 v 0 c -717.6,0 -1299.33,-1365.75 -1299.33,-3050.5 0,-1684.74 581.73,-3050.5 1299.33,-3050.5 z" /></g><g
       id="g294"
       transform="matrix(0.0019685,0,0,-0.0019685,0,405)"><g
         id="g296"><path
           inkscape:connector-curvature="0"
           id="path298"
           style="fill:#eeeeee;fill-opacity:1;fill-rule:evenodd;stroke:none"
           d="m 194062.33,103805.5 h 5197.34 c 717.6,0 1299.33,1365.76 1299.33,3050.5 0,1684.74 -581.73,3050.5 -1299.33,3050.5 h -5197.34 v 0 c -717.6,0 -1299.33,-1365.76 -1299.33,-3050.5 0,-1684.74 581.73,-3050.5 1299.33,-3050.5 z" /></g><g
         id="g300"><g
           id="g302"><path
             inkscape:connector-curvature="0"
             id="path304"
             style="fill:#000000;fill-opacity:0;fill-rule:evenodd;stroke:none"
             d="m 199259.67,109906.5 c -717.61,0 -1299.34,-1365.76 -1299.34,-3050.5 0,-1684.74 581.73,-3050.5 1299.34,-3050.5" /></g></g><g
         id="g306"><g
           id="g308"><path
             inkscape:connector-curvature="0"
             id="path310"
             style="fill:#000000;fill-opacity:0;fill-rule:evenodd;stroke:none"
             d="m 194062.33,103805.5 h 5197.34 c 717.6,0 1299.33,1365.76 1299.33,3050.5 0,1684.74 -581.73,3050.5 -1299.33,3050.5 h -5197.34 v 0 c -717.6,0 -1299.33,-1365.76 -1299.33,-3050.5 0,-1684.74 581.73,-3050.5 1299.33,-3050.5 z" /></g></g><path
         inkscape:connector-curvature="0"
         id="path312"
         style="fill:none;stroke:#595959;stroke-width:381;stroke-linecap:butt;stroke-linejoin:round;stroke-miterlimit:8;stroke-dasharray:none;stroke-opacity:1"
         d="m 199259.67,109906.5 c -717.61,0 -1299.34,-1365.76 -1299.34,-3050.5 0,-1684.74 581.73,-3050.5 1299.34,-3050.5" /><path
         inkscape:connector-curvature="0"
         id="path314"
         style="fill:none;stroke:#595959;stroke-width:381;stroke-linecap:butt;stroke-linejoin:round;stroke-miterlimit:8;stroke-dasharray:none;stroke-opacity:1"
         d="m 194062.33,103805.5 h 5197.34 c 717.6,0 1299.33,1365.76 1299.33,3050.5 0,1684.74 -581.73,3050.5 -1299.33,3050.5 h -5197.34 v 0 c -717.6,0 -1299.33,-1365.76 -1299.33,-3050.5 0,-1684.74 581.73,-3050.5 1299.33,-3050.5 z" /></g><g
       id="g316"
       transform="matrix(0.0019685,0,0,-0.0019685,0,405)"><g
         id="g318"><path
           inkscape:connector-curvature="0"
           id="path320"
           style="fill:#d0e0e3;fill-opacity:1;fill-rule:evenodd;stroke:none"
           d="m 222895.5,102790.91 v 0 c 0,-3793.176 3074.97,-6868.144 6868.14,-6868.144 h 27471.72 v 0 c 1821.54,0 3568.48,723.604 4856.52,2011.634 1288.02,1288.02 2011.62,3034.96 2011.62,4856.51 v 32523.71 c 0,3793.18 -3074.97,6868.15 -6868.14,6868.15 h -27471.72 c -3793.17,0 -6868.14,-3074.97 -6868.14,-6868.15 z" /></g><path
         inkscape:connector-curvature="0"
         id="path322"
         style="fill:none;stroke:#000000;stroke-width:762;stroke-linecap:butt;stroke-linejoin:round;stroke-miterlimit:8;stroke-dasharray:none;stroke-opacity:1"
         d="m 222895.5,102790.91 v 0 c 0,-3793.176 3074.97,-6868.144 6868.14,-6868.144 h 27471.72 v 0 c 1821.54,0 3568.48,723.604 4856.52,2011.634 1288.02,1288.02 2011.62,3034.96 2011.62,4856.51 v 32523.71 c 0,3793.18 -3074.97,6868.15 -6868.14,6868.15 h -27471.72 c -3793.17,0 -6868.14,-3074.97 -6868.14,-6868.15 z" /></g><g
       transform="matrix(0.7499985,0,0,-0.7499985,0,405)"
       id="g324"><g
         transform="translate(590.3074,257.0456)"
         id="g326"><g
           id="g328"><text
   id="text332"
   style="font-variant:normal;font-weight:normal;font-size:15.33333302px;font-family:FiraSans;-inkscape-font-specification:FiraSans-Regular;writing-mode:lr-tb;fill:#000000;fill-opacity:1;fill-rule:nonzero;stroke:none"
   transform="translate(33.340614,52.14885)"><tspan
     id="tspan330"
     sodipodi:role="line"
     y="0"
     x="0 8.0653334 16.406666 21.941999 30.927332">Path </tspan></text>

<text
   id="text336"
   style="font-variant:normal;font-weight:normal;font-size:15.33333302px;font-family:FiraSans;-inkscape-font-specification:FiraSans-Regular;writing-mode:lr-tb;fill:#000000;fill-opacity:1;fill-rule:nonzero;stroke:none"
   transform="translate(1.3430252,70.14885)"><tspan
     id="tspan334"
     sodipodi:role="line"
     y="0"
     x="0 10.150666 19.136 25.315332 34.638 40.02 48.361332 57.346664 64.675995 73.661331 77.985329 86.970665">Un-Branching</tspan></text>

</g></g></g><g
       transform="matrix(0.7499985,0,0,-0.7499985,0,405)"
       id="g338" /><g
       id="g340"
       transform="matrix(0.0019685,0,0,-0.0019685,0,405)"><g
         id="g342"><path
           inkscape:connector-curvature="0"
           id="path344"
           style="fill:#eeeeee;fill-opacity:1;fill-rule:evenodd;stroke:none"
           d="m 263212.84,116002.5 h 5197.32 c 717.62,0 1299.34,1365.76 1299.34,3050.5 0,1684.74 -581.72,3050.5 -1299.34,3050.5 h -5197.32 v 0 c -717.62,0 -1299.34,-1365.76 -1299.34,-3050.5 0,-1684.74 581.72,-3050.5 1299.34,-3050.5 z" /></g><g
         id="g346"><g
           id="g348"><path
             inkscape:connector-curvature="0"
             id="path350"
             style="fill:#000000;fill-opacity:0;fill-rule:evenodd;stroke:none"
             d="m 268410.16,122103.5 c -717.6,0 -1299.32,-1365.76 -1299.32,-3050.5 0,-1684.74 581.72,-3050.5 1299.32,-3050.5" /></g></g><g
         id="g352"><g
           id="g354"><path
             inkscape:connector-curvature="0"
             id="path356"
             style="fill:#000000;fill-opacity:0;fill-rule:evenodd;stroke:none"
             d="m 263212.84,116002.5 h 5197.32 c 717.62,0 1299.34,1365.76 1299.34,3050.5 0,1684.74 -581.72,3050.5 -1299.34,3050.5 h -5197.32 v 0 c -717.62,0 -1299.34,-1365.76 -1299.34,-3050.5 0,-1684.74 581.72,-3050.5 1299.34,-3050.5 z" /></g></g><path
         inkscape:connector-curvature="0"
         id="path358"
         style="fill:none;stroke:#595959;stroke-width:381;stroke-linecap:butt;stroke-linejoin:round;stroke-miterlimit:8;stroke-dasharray:none;stroke-opacity:1"
         d="m 268410.16,122103.5 c -717.6,0 -1299.32,-1365.76 -1299.32,-3050.5 0,-1684.74 581.72,-3050.5 1299.32,-3050.5" /><path
         inkscape:connector-curvature="0"
         id="path360"
         style="fill:none;stroke:#595959;stroke-width:381;stroke-linecap:butt;stroke-linejoin:round;stroke-miterlimit:8;stroke-dasharray:none;stroke-opacity:1"
         d="m 263212.84,116002.5 h 5197.32 c 717.62,0 1299.34,1365.76 1299.34,3050.5 0,1684.74 -581.72,3050.5 -1299.34,3050.5 h -5197.32 v 0 c -717.62,0 -1299.34,-1365.76 -1299.34,-3050.5 0,-1684.74 581.72,-3050.5 1299.34,-3050.5 z" /></g><g
       id="g362"
       transform="matrix(0.0019685,0,0,-0.0019685,0,405)"><g
         id="g364"><path
           inkscape:connector-curvature="0"
           id="path366"
           style="fill:#eeeeee;fill-opacity:1;fill-rule:evenodd;stroke:none"
           d="m 223786.17,116002.5 h -5197.34 c -717.6,0 -1299.33,1365.76 -1299.33,3050.5 0,1684.74 581.73,3050.5 1299.33,3050.5 h 5197.34 v 0 c 717.6,0 1299.33,-1365.76 1299.33,-3050.5 0,-1684.74 -581.73,-3050.5 -1299.33,-3050.5 z" /></g><g
         id="g368"><g
           id="g370"><path
             inkscape:connector-curvature="0"
             id="path372"
             style="fill:#000000;fill-opacity:0;fill-rule:evenodd;stroke:none"
             d="m 218588.83,122103.5 c 717.61,0 1299.34,-1365.76 1299.34,-3050.5 0,-1684.74 -581.73,-3050.5 -1299.34,-3050.5" /></g></g><g
         id="g374"><g
           id="g376"><path
             inkscape:connector-curvature="0"
             id="path378"
             style="fill:#000000;fill-opacity:0;fill-rule:evenodd;stroke:none"
             d="m 223786.17,116002.5 h -5197.34 c -717.6,0 -1299.33,1365.76 -1299.33,3050.5 0,1684.74 581.73,3050.5 1299.33,3050.5 h 5197.34 v 0 c 717.6,0 1299.33,-1365.76 1299.33,-3050.5 0,-1684.74 -581.73,-3050.5 -1299.33,-3050.5 z" /></g></g><path
         inkscape:connector-curvature="0"
         id="path380"
         style="fill:none;stroke:#595959;stroke-width:381;stroke-linecap:butt;stroke-linejoin:round;stroke-miterlimit:8;stroke-dasharray:none;stroke-opacity:1"
         d="m 218588.83,122103.5 c 717.61,0 1299.34,-1365.76 1299.34,-3050.5 0,-1684.74 -581.73,-3050.5 -1299.34,-3050.5" /><path
         inkscape:connector-curvature="0"
         id="path382"
         style="fill:none;stroke:#595959;stroke-width:381;stroke-linecap:butt;stroke-linejoin:round;stroke-miterlimit:8;stroke-dasharray:none;stroke-opacity:1"
         d="m 223786.17,116002.5 h -5197.34 c -717.6,0 -1299.33,1365.76 -1299.33,3050.5 0,1684.74 581.73,3050.5 1299.33,3050.5 h 5197.34 v 0 c 717.6,0 1299.33,-1365.76 1299.33,-3050.5 0,-1684.74 -581.73,-3050.5 -1299.33,-3050.5 z" /></g><g
       id="g384"
       transform="matrix(0.0019685,0,0,-0.0019685,0,405)"><g
         id="g386"><path
           inkscape:connector-curvature="0"
           id="path388"
           style="fill:#eeeeee;fill-opacity:1;fill-rule:evenodd;stroke:none"
           d="m 223786.17,128199.5 h -5197.34 c -717.6,0 -1299.33,1365.76 -1299.33,3050.5 0,1684.75 581.73,3050.5 1299.33,3050.5 h 5197.34 v 0 c 717.6,0 1299.33,-1365.75 1299.33,-3050.5 0,-1684.74 -581.73,-3050.5 -1299.33,-3050.5 z" /></g><g
         id="g390"><g
           id="g392"><path
             inkscape:connector-curvature="0"
             id="path394"
             style="fill:#000000;fill-opacity:0;fill-rule:evenodd;stroke:none"
             d="m 218588.83,134300.5 c 717.61,0 1299.34,-1365.75 1299.34,-3050.5 0,-1684.74 -581.73,-3050.5 -1299.34,-3050.5" /></g></g><g
         id="g396"><g
           id="g398"><path
             inkscape:connector-curvature="0"
             id="path400"
             style="fill:#000000;fill-opacity:0;fill-rule:evenodd;stroke:none"
             d="m 223786.17,128199.5 h -5197.34 c -717.6,0 -1299.33,1365.76 -1299.33,3050.5 0,1684.75 581.73,3050.5 1299.33,3050.5 h 5197.34 v 0 c 717.6,0 1299.33,-1365.75 1299.33,-3050.5 0,-1684.74 -581.73,-3050.5 -1299.33,-3050.5 z" /></g></g><path
         inkscape:connector-curvature="0"
         id="path402"
         style="fill:none;stroke:#595959;stroke-width:381;stroke-linecap:butt;stroke-linejoin:round;stroke-miterlimit:8;stroke-dasharray:none;stroke-opacity:1"
         d="m 218588.83,134300.5 c 717.61,0 1299.34,-1365.75 1299.34,-3050.5 0,-1684.74 -581.73,-3050.5 -1299.34,-3050.5" /><path
         inkscape:connector-curvature="0"
         id="path404"
         style="fill:none;stroke:#595959;stroke-width:381;stroke-linecap:butt;stroke-linejoin:round;stroke-miterlimit:8;stroke-dasharray:none;stroke-opacity:1"
         d="m 223786.17,128199.5 h -5197.34 c -717.6,0 -1299.33,1365.76 -1299.33,3050.5 0,1684.75 581.73,3050.5 1299.33,3050.5 h 5197.34 v 0 c 717.6,0 1299.33,-1365.75 1299.33,-3050.5 0,-1684.74 -581.73,-3050.5 -1299.33,-3050.5 z" /></g><g
       id="g406"
       transform="matrix(0.0019685,0,0,-0.0019685,0,405)"><g
         id="g408"><path
           inkscape:connector-curvature="0"
           id="path410"
           style="fill:#eeeeee;fill-opacity:1;fill-rule:evenodd;stroke:none"
           d="m 223786.17,103805.5 h -5197.34 c -717.6,0 -1299.33,1365.76 -1299.33,3050.5 0,1684.74 581.73,3050.5 1299.33,3050.5 h 5197.34 v 0 c 717.6,0 1299.33,-1365.76 1299.33,-3050.5 0,-1684.74 -581.73,-3050.5 -1299.33,-3050.5 z" /></g><g
         id="g412"><g
           id="g414"><path
             inkscape:connector-curvature="0"
             id="path416"
             style="fill:#000000;fill-opacity:0;fill-rule:evenodd;stroke:none"
             d="m 218588.83,109906.5 c 717.61,0 1299.34,-1365.76 1299.34,-3050.5 0,-1684.74 -581.73,-3050.5 -1299.34,-3050.5" /></g></g><g
         id="g418"><g
           id="g420"><path
             inkscape:connector-curvature="0"
             id="path422"
             style="fill:#000000;fill-opacity:0;fill-rule:evenodd;stroke:none"
             d="m 223786.17,103805.5 h -5197.34 c -717.6,0 -1299.33,1365.76 -1299.33,3050.5 0,1684.74 581.73,3050.5 1299.33,3050.5 h 5197.34 v 0 c 717.6,0 1299.33,-1365.76 1299.33,-3050.5 0,-1684.74 -581.73,-3050.5 -1299.33,-3050.5 z" /></g></g><path
         inkscape:connector-curvature="0"
         id="path424"
         style="fill:none;stroke:#595959;stroke-width:381;stroke-linecap:butt;stroke-linejoin:round;stroke-miterlimit:8;stroke-dasharray:none;stroke-opacity:1"
         d="m 218588.83,109906.5 c 717.61,0 1299.34,-1365.76 1299.34,-3050.5 0,-1684.74 -581.73,-3050.5 -1299.34,-3050.5" /><path
         inkscape:connector-curvature="0"
         id="path426"
         style="fill:none;stroke:#595959;stroke-width:381;stroke-linecap:butt;stroke-linejoin:round;stroke-miterlimit:8;stroke-dasharray:none;stroke-opacity:1"
         d="m 223786.17,103805.5 h -5197.34 c -717.6,0 -1299.33,1365.76 -1299.33,3050.5 0,1684.74 581.73,3050.5 1299.33,3050.5 h 5197.34 v 0 c 717.6,0 1299.33,-1365.76 1299.33,-3050.5 0,-1684.74 -581.73,-3050.5 -1299.33,-3050.5 z" /></g><g
       id="g428"
       transform="matrix(0.0019685,0,0,-0.0019685,0,405)"><g
         id="g430"><path
           inkscape:connector-curvature="0"
           id="path432"
           style="fill:#d0e0e3;fill-opacity:1;fill-rule:evenodd;stroke:none"
           d="m 84593.77,125872.22 v 0 c 0,-1695.55 1374.52,-3070.06 3070.066,-3070.06 h 35067.874 c 814.23,0 1595.12,323.45 2170.87,899.19 575.74,575.75 899.19,1356.63 899.19,2170.87 v 12279.88 c 0,1695.54 -1374.51,3070.06 -3070.06,3070.06 H 87663.836 c -1695.546,0 -3070.066,-1374.52 -3070.066,-3070.06 z" /></g><path
         inkscape:connector-curvature="0"
         id="path434"
         style="fill:none;stroke:#000000;stroke-width:762;stroke-linecap:butt;stroke-linejoin:round;stroke-miterlimit:8;stroke-dasharray:none;stroke-opacity:1"
         d="m 84593.77,125872.22 v 0 c 0,-1695.55 1374.52,-3070.06 3070.066,-3070.06 h 35067.874 c 814.23,0 1595.12,323.45 2170.87,899.19 575.74,575.75 899.19,1356.63 899.19,2170.87 v 12279.88 c 0,1695.54 -1374.51,3070.06 -3070.06,3070.06 H 87663.836 c -1695.546,0 -3070.066,-1374.52 -3070.066,-3070.06 z" /></g><g
       transform="matrix(0.7499985,0,0,-0.7499985,0,405)"
       id="g436"><g
         transform="translate(224.39099,324.67545)"
         id="g438"><g
           id="g440"><text
   id="text444"
   style="font-variant:normal;font-weight:normal;font-size:15.33333302px;font-family:FiraSans;-inkscape-font-specification:FiraSans-Regular;writing-mode:lr-tb;fill:#000000;fill-opacity:1;fill-rule:nonzero;stroke:none"
   transform="translate(38.582424,27.533148)"><tspan
     id="tspan442"
     sodipodi:role="line"
     y="0"
     x="0 8.9086666 17.495333">PCA</tspan></text>

</g></g></g><g
       transform="matrix(0.7499985,0,0,-0.7499985,0,405)"
       id="g446" /><g
       id="g448"
       transform="matrix(0.0019685,0,0,-0.0019685,0,405)"><g
         id="g450"><path
           inkscape:connector-curvature="0"
           id="path452"
           style="fill:#eeeeee;fill-opacity:1;fill-rule:evenodd;stroke:none"
           d="m 124911.34,128961.5 h 5197.32 c 717.61,0 1299.34,1365.76 1299.34,3050.5 0,1684.75 -581.73,3050.5 -1299.34,3050.5 h -5197.32 v 0 c -717.61,0 -1299.34,-1365.75 -1299.34,-3050.5 0,-1684.74 581.73,-3050.5 1299.34,-3050.5 z" /></g><g
         id="g454"><g
           id="g456"><path
             inkscape:connector-curvature="0"
             id="path458"
             style="fill:#000000;fill-opacity:0;fill-rule:evenodd;stroke:none"
             d="m 130108.66,135062.5 c -717.6,0 -1299.32,-1365.75 -1299.32,-3050.5 0,-1684.74 581.72,-3050.5 1299.32,-3050.5" /></g></g><g
         id="g460"><g
           id="g462"><path
             inkscape:connector-curvature="0"
             id="path464"
             style="fill:#000000;fill-opacity:0;fill-rule:evenodd;stroke:none"
             d="m 124911.34,128961.5 h 5197.32 c 717.61,0 1299.34,1365.76 1299.34,3050.5 0,1684.75 -581.73,3050.5 -1299.34,3050.5 h -5197.32 v 0 c -717.61,0 -1299.34,-1365.75 -1299.34,-3050.5 0,-1684.74 581.73,-3050.5 1299.34,-3050.5 z" /></g></g><path
         inkscape:connector-curvature="0"
         id="path466"
         style="fill:none;stroke:#595959;stroke-width:381;stroke-linecap:butt;stroke-linejoin:round;stroke-miterlimit:8;stroke-dasharray:none;stroke-opacity:1"
         d="m 130108.66,135062.5 c -717.6,0 -1299.32,-1365.75 -1299.32,-3050.5 0,-1684.74 581.72,-3050.5 1299.32,-3050.5" /><path
         inkscape:connector-curvature="0"
         id="path468"
         style="fill:none;stroke:#595959;stroke-width:381;stroke-linecap:butt;stroke-linejoin:round;stroke-miterlimit:8;stroke-dasharray:none;stroke-opacity:1"
         d="m 124911.34,128961.5 h 5197.32 c 717.61,0 1299.34,1365.76 1299.34,3050.5 0,1684.75 -581.73,3050.5 -1299.34,3050.5 h -5197.32 v 0 c -717.61,0 -1299.34,-1365.75 -1299.34,-3050.5 0,-1684.74 581.73,-3050.5 1299.34,-3050.5 z" /></g><g
       id="g470"
       transform="matrix(0.0019685,0,0,-0.0019685,0,405)"><g
         id="g472"><path
           inkscape:connector-curvature="0"
           id="path474"
           style="fill:#eeeeee;fill-opacity:1;fill-rule:evenodd;stroke:none"
           d="m 85484.664,128961.5 h -5197.328 c -717.602,0 -1299.336,1365.76 -1299.336,3050.5 0,1684.75 581.734,3050.5 1299.336,3050.5 h 5197.328 v 0 c 717.602,0 1299.336,-1365.75 1299.336,-3050.5 0,-1684.74 -581.734,-3050.5 -1299.336,-3050.5 z" /></g><g
         id="g476"><g
           id="g478"><path
             inkscape:connector-curvature="0"
             id="path480"
             style="fill:#000000;fill-opacity:0;fill-rule:evenodd;stroke:none"
             d="m 80287.336,135062.5 c 717.604,0 1299.328,-1365.75 1299.328,-3050.5 0,-1684.74 -581.724,-3050.5 -1299.328,-3050.5" /></g></g><g
         id="g482"><g
           id="g484"><path
             inkscape:connector-curvature="0"
             id="path486"
             style="fill:#000000;fill-opacity:0;fill-rule:evenodd;stroke:none"
             d="m 85484.664,128961.5 h -5197.328 c -717.602,0 -1299.336,1365.76 -1299.336,3050.5 0,1684.75 581.734,3050.5 1299.336,3050.5 h 5197.328 v 0 c 717.602,0 1299.336,-1365.75 1299.336,-3050.5 0,-1684.74 -581.734,-3050.5 -1299.336,-3050.5 z" /></g></g><path
         inkscape:connector-curvature="0"
         id="path488"
         style="fill:none;stroke:#595959;stroke-width:381;stroke-linecap:butt;stroke-linejoin:round;stroke-miterlimit:8;stroke-dasharray:none;stroke-opacity:1"
         d="m 80287.336,135062.5 c 717.604,0 1299.328,-1365.75 1299.328,-3050.5 0,-1684.74 -581.724,-3050.5 -1299.328,-3050.5" /><path
         inkscape:connector-curvature="0"
         id="path490"
         style="fill:none;stroke:#595959;stroke-width:381;stroke-linecap:butt;stroke-linejoin:round;stroke-miterlimit:8;stroke-dasharray:none;stroke-opacity:1"
         d="m 85484.664,128961.5 h -5197.328 c -717.602,0 -1299.336,1365.76 -1299.336,3050.5 0,1684.75 581.734,3050.5 1299.336,3050.5 h 5197.328 v 0 c 717.602,0 1299.336,-1365.75 1299.336,-3050.5 0,-1684.74 -581.734,-3050.5 -1299.336,-3050.5 z" /></g><g
       id="g492"
       transform="matrix(0.0019685,0,0,-0.0019685,0,405)"><g
         id="g494"><path
           inkscape:connector-curvature="0"
           id="path496"
           style="fill:#d0e0e3;fill-opacity:1;fill-rule:evenodd;stroke:none"
           d="m 153745,156413.9 v 0 c 0,-3793.17 3074.97,-6868.13 6868.14,-6868.13 h 27471.72 v 0 c 1821.54,0 3568.48,723.61 4856.52,2011.62 1288.01,1288.03 2011.62,3034.97 2011.62,4856.51 v 32523.72 c 0,3793.18 -3074.97,6868.15 -6868.14,6868.15 h -27471.72 c -3793.17,0 -6868.14,-3074.97 -6868.14,-6868.15 z" /></g><path
         inkscape:connector-curvature="0"
         id="path498"
         style="fill:none;stroke:#000000;stroke-width:762;stroke-linecap:butt;stroke-linejoin:round;stroke-miterlimit:8;stroke-dasharray:none;stroke-opacity:1"
         d="m 153745,156413.9 v 0 c 0,-3793.17 3074.97,-6868.13 6868.14,-6868.13 h 27471.72 v 0 c 1821.54,0 3568.48,723.61 4856.52,2011.62 1288.01,1288.03 2011.62,3034.97 2011.62,4856.51 v 32523.72 c 0,3793.18 -3074.97,6868.15 -6868.14,6868.15 h -27471.72 c -3793.17,0 -6868.14,-3074.97 -6868.14,-6868.15 z" /></g><g
       transform="matrix(0.7499985,0,0,-0.7499985,0,405)"
       id="g500"><g
         transform="translate(408.81,397.7884)"
         id="g502"><g
           id="g504"><text
   id="text508"
   style="font-variant:normal;font-weight:normal;font-size:15.33333302px;font-family:FiraSans;-inkscape-font-specification:FiraSans-Regular;writing-mode:lr-tb;fill:#000000;fill-opacity:1;fill-rule:nonzero;stroke:none"
   transform="translate(22.902184,52.14885)"><tspan
     id="tspan506"
     sodipodi:role="line"
     y="0"
     x="0 6.9919996 15.195333 23.536667 29.071999 37.995998 43.454666">Feature</tspan></text>

<text
   id="text512"
   style="font-variant:normal;font-weight:normal;font-size:15.33333302px;font-family:FiraSans;-inkscape-font-specification:FiraSans-Regular;writing-mode:lr-tb;fill:#000000;fill-opacity:1;fill-rule:nonzero;stroke:none"
   transform="translate(28.105911,70.14885)"><tspan
     id="tspan510"
     sodipodi:role="line"
     y="0"
     x="0 10.150666 19.136 23.459999 32.414665">Union</tspan></text>

</g></g></g><g
       transform="matrix(0.7499985,0,0,-0.7499985,0,405)"
       id="g514" /><g
       id="g516"
       transform="matrix(0.0019685,0,0,-0.0019685,0,405)"><g
         id="g518"><path
           inkscape:connector-curvature="0"
           id="path520"
           style="fill:#eeeeee;fill-opacity:1;fill-rule:evenodd;stroke:none"
           d="m 194062.33,169625.5 h 5197.34 c 717.6,0 1299.33,1365.75 1299.33,3050.5 0,1684.75 -581.73,3050.5 -1299.33,3050.5 h -5197.34 v 0 c -717.6,0 -1299.33,-1365.75 -1299.33,-3050.5 0,-1684.75 581.73,-3050.5 1299.33,-3050.5 z" /></g><g
         id="g522"><g
           id="g524"><path
             inkscape:connector-curvature="0"
             id="path526"
             style="fill:#000000;fill-opacity:0;fill-rule:evenodd;stroke:none"
             d="m 199259.67,175726.5 c -717.61,0 -1299.34,-1365.75 -1299.34,-3050.5 0,-1684.75 581.73,-3050.5 1299.34,-3050.5" /></g></g><g
         id="g528"><g
           id="g530"><path
             inkscape:connector-curvature="0"
             id="path532"
             style="fill:#000000;fill-opacity:0;fill-rule:evenodd;stroke:none"
             d="m 194062.33,169625.5 h 5197.34 c 717.6,0 1299.33,1365.75 1299.33,3050.5 0,1684.75 -581.73,3050.5 -1299.33,3050.5 h -5197.34 v 0 c -717.6,0 -1299.33,-1365.75 -1299.33,-3050.5 0,-1684.75 581.73,-3050.5 1299.33,-3050.5 z" /></g></g><path
         inkscape:connector-curvature="0"
         id="path534"
         style="fill:none;stroke:#595959;stroke-width:381;stroke-linecap:butt;stroke-linejoin:round;stroke-miterlimit:8;stroke-dasharray:none;stroke-opacity:1"
         d="m 199259.67,175726.5 c -717.61,0 -1299.34,-1365.75 -1299.34,-3050.5 0,-1684.75 581.73,-3050.5 1299.34,-3050.5" /><path
         inkscape:connector-curvature="0"
         id="path536"
         style="fill:none;stroke:#595959;stroke-width:381;stroke-linecap:butt;stroke-linejoin:round;stroke-miterlimit:8;stroke-dasharray:none;stroke-opacity:1"
         d="m 194062.33,169625.5 h 5197.34 c 717.6,0 1299.33,1365.75 1299.33,3050.5 0,1684.75 -581.73,3050.5 -1299.33,3050.5 h -5197.34 v 0 c -717.6,0 -1299.33,-1365.75 -1299.33,-3050.5 0,-1684.75 581.73,-3050.5 1299.33,-3050.5 z" /></g><g
       id="g538"
       transform="matrix(0.0019685,0,0,-0.0019685,0,405)"><g
         id="g540"><path
           inkscape:connector-curvature="0"
           id="path542"
           style="fill:#eeeeee;fill-opacity:1;fill-rule:evenodd;stroke:none"
           d="m 154635.67,169625.5 h -5197.34 c -717.6,0 -1299.33,1365.75 -1299.33,3050.5 0,1684.75 581.73,3050.5 1299.33,3050.5 h 5197.34 v 0 c 717.6,0 1299.33,-1365.75 1299.33,-3050.5 0,-1684.75 -581.73,-3050.5 -1299.33,-3050.5 z" /></g><g
         id="g544"><g
           id="g546"><path
             inkscape:connector-curvature="0"
             id="path548"
             style="fill:#000000;fill-opacity:0;fill-rule:evenodd;stroke:none"
             d="m 149438.33,175726.5 c 717.61,0 1299.34,-1365.75 1299.34,-3050.5 0,-1684.75 -581.73,-3050.5 -1299.34,-3050.5" /></g></g><g
         id="g550"><g
           id="g552"><path
             inkscape:connector-curvature="0"
             id="path554"
             style="fill:#000000;fill-opacity:0;fill-rule:evenodd;stroke:none"
             d="m 154635.67,169625.5 h -5197.34 c -717.6,0 -1299.33,1365.75 -1299.33,3050.5 0,1684.75 581.73,3050.5 1299.33,3050.5 h 5197.34 v 0 c 717.6,0 1299.33,-1365.75 1299.33,-3050.5 0,-1684.75 -581.73,-3050.5 -1299.33,-3050.5 z" /></g></g><path
         inkscape:connector-curvature="0"
         id="path556"
         style="fill:none;stroke:#595959;stroke-width:381;stroke-linecap:butt;stroke-linejoin:round;stroke-miterlimit:8;stroke-dasharray:none;stroke-opacity:1"
         d="m 149438.33,175726.5 c 717.61,0 1299.34,-1365.75 1299.34,-3050.5 0,-1684.75 -581.73,-3050.5 -1299.34,-3050.5" /><path
         inkscape:connector-curvature="0"
         id="path558"
         style="fill:none;stroke:#595959;stroke-width:381;stroke-linecap:butt;stroke-linejoin:round;stroke-miterlimit:8;stroke-dasharray:none;stroke-opacity:1"
         d="m 154635.67,169625.5 h -5197.34 c -717.6,0 -1299.33,1365.75 -1299.33,3050.5 0,1684.75 581.73,3050.5 1299.33,3050.5 h 5197.34 v 0 c 717.6,0 1299.33,-1365.75 1299.33,-3050.5 0,-1684.75 -581.73,-3050.5 -1299.33,-3050.5 z" /></g><g
       id="g560"
       transform="matrix(0.0019685,0,0,-0.0019685,0,405)"><g
         id="g562"><path
           inkscape:connector-curvature="0"
           id="path564"
           style="fill:#eeeeee;fill-opacity:1;fill-rule:evenodd;stroke:none"
           d="m 154635.67,181822.5 h -5197.34 c -717.6,0 -1299.33,1365.75 -1299.33,3050.5 0,1684.75 581.73,3050.5 1299.33,3050.5 h 5197.34 v 0 c 717.6,0 1299.33,-1365.75 1299.33,-3050.5 0,-1684.75 -581.73,-3050.5 -1299.33,-3050.5 z" /></g><g
         id="g566"><g
           id="g568"><path
             inkscape:connector-curvature="0"
             id="path570"
             style="fill:#000000;fill-opacity:0;fill-rule:evenodd;stroke:none"
             d="m 149438.33,187923.5 c 717.61,0 1299.34,-1365.75 1299.34,-3050.5 0,-1684.75 -581.73,-3050.5 -1299.34,-3050.5" /></g></g><g
         id="g572"><g
           id="g574"><path
             inkscape:connector-curvature="0"
             id="path576"
             style="fill:#000000;fill-opacity:0;fill-rule:evenodd;stroke:none"
             d="m 154635.67,181822.5 h -5197.34 c -717.6,0 -1299.33,1365.75 -1299.33,3050.5 0,1684.75 581.73,3050.5 1299.33,3050.5 h 5197.34 v 0 c 717.6,0 1299.33,-1365.75 1299.33,-3050.5 0,-1684.75 -581.73,-3050.5 -1299.33,-3050.5 z" /></g></g><path
         inkscape:connector-curvature="0"
         id="path578"
         style="fill:none;stroke:#595959;stroke-width:381;stroke-linecap:butt;stroke-linejoin:round;stroke-miterlimit:8;stroke-dasharray:none;stroke-opacity:1"
         d="m 149438.33,187923.5 c 717.61,0 1299.34,-1365.75 1299.34,-3050.5 0,-1684.75 -581.73,-3050.5 -1299.34,-3050.5" /><path
         inkscape:connector-curvature="0"
         id="path580"
         style="fill:none;stroke:#595959;stroke-width:381;stroke-linecap:butt;stroke-linejoin:round;stroke-miterlimit:8;stroke-dasharray:none;stroke-opacity:1"
         d="m 154635.67,181822.5 h -5197.34 c -717.6,0 -1299.33,1365.75 -1299.33,3050.5 0,1684.75 581.73,3050.5 1299.33,3050.5 h 5197.34 v 0 c 717.6,0 1299.33,-1365.75 1299.33,-3050.5 0,-1684.75 -581.73,-3050.5 -1299.33,-3050.5 z" /></g><g
       id="g582"
       transform="matrix(0.0019685,0,0,-0.0019685,0,405)"><g
         id="g584"><path
           inkscape:connector-curvature="0"
           id="path586"
           style="fill:#eeeeee;fill-opacity:1;fill-rule:evenodd;stroke:none"
           d="m 154635.67,157428.5 h -5197.34 c -717.6,0 -1299.33,1365.75 -1299.33,3050.5 0,1684.75 581.73,3050.5 1299.33,3050.5 h 5197.34 v 0 c 717.6,0 1299.33,-1365.75 1299.33,-3050.5 0,-1684.75 -581.73,-3050.5 -1299.33,-3050.5 z" /></g><g
         id="g588"><g
           id="g590"><path
             inkscape:connector-curvature="0"
             id="path592"
             style="fill:#000000;fill-opacity:0;fill-rule:evenodd;stroke:none"
             d="m 149438.33,163529.5 c 717.61,0 1299.34,-1365.75 1299.34,-3050.5 0,-1684.75 -581.73,-3050.5 -1299.34,-3050.5" /></g></g><g
         id="g594"><g
           id="g596"><path
             inkscape:connector-curvature="0"
             id="path598"
             style="fill:#000000;fill-opacity:0;fill-rule:evenodd;stroke:none"
             d="m 154635.67,157428.5 h -5197.34 c -717.6,0 -1299.33,1365.75 -1299.33,3050.5 0,1684.75 581.73,3050.5 1299.33,3050.5 h 5197.34 v 0 c 717.6,0 1299.33,-1365.75 1299.33,-3050.5 0,-1684.75 -581.73,-3050.5 -1299.33,-3050.5 z" /></g></g><path
         inkscape:connector-curvature="0"
         id="path600"
         style="fill:none;stroke:#595959;stroke-width:381;stroke-linecap:butt;stroke-linejoin:round;stroke-miterlimit:8;stroke-dasharray:none;stroke-opacity:1"
         d="m 149438.33,163529.5 c 717.61,0 1299.34,-1365.75 1299.34,-3050.5 0,-1684.75 -581.73,-3050.5 -1299.34,-3050.5" /><path
         inkscape:connector-curvature="0"
         id="path602"
         style="fill:none;stroke:#595959;stroke-width:381;stroke-linecap:butt;stroke-linejoin:round;stroke-miterlimit:8;stroke-dasharray:none;stroke-opacity:1"
         d="m 154635.67,157428.5 h -5197.34 c -717.6,0 -1299.33,1365.75 -1299.33,3050.5 0,1684.75 581.73,3050.5 1299.33,3050.5 h 5197.34 v 0 c 717.6,0 1299.33,-1365.75 1299.33,-3050.5 0,-1684.75 -581.73,-3050.5 -1299.33,-3050.5 z" /></g><g
       id="g604"
       transform="matrix(0.0019685,0,0,-0.0019685,0,405)"><g
         id="g606"><path
           inkscape:connector-curvature="0"
           id="path608"
           style="fill:#d0e0e3;fill-opacity:1;fill-rule:evenodd;stroke:none"
           d="m 125802,156349.9 v 0 c 0,-3793.17 -3074.97,-6868.13 -6868.14,-6868.13 H 91462.14 v 0 c -1821.55,0 -3568.48,723.61 -4856.51,2011.62 -1288.03,1288.03 -2011.63,3034.97 -2011.63,4856.51 v 32523.72 c 0,3793.18 3074.97,6868.15 6868.14,6868.15 h 27471.72 c 3793.17,0 6868.14,-3074.97 6868.14,-6868.15 z" /></g><path
         inkscape:connector-curvature="0"
         id="path610"
         style="fill:none;stroke:#000000;stroke-width:762;stroke-linecap:butt;stroke-linejoin:round;stroke-miterlimit:8;stroke-dasharray:none;stroke-opacity:1"
         d="m 125802,156349.9 v 0 c 0,-3793.17 -3074.97,-6868.13 -6868.14,-6868.13 H 91462.14 v 0 c -1821.55,0 -3568.48,723.61 -4856.51,2011.62 -1288.03,1288.03 -2011.63,3034.97 -2011.63,4856.51 v 32523.72 c 0,3793.18 3074.97,6868.15 6868.14,6868.15 h 27471.72 c 3793.17,0 6868.14,-3074.97 6868.14,-6868.15 z" /></g><g
       transform="matrix(0.7499985,0,0,-0.7499985,0,405)"
       id="g612"><g
         transform="translate(227.31131,397.6204)"
         id="g614"><g
           id="g616"><text
   id="text620"
   style="font-variant:normal;font-weight:normal;font-size:15.33333302px;font-family:FiraSans;-inkscape-font-specification:FiraSans-Regular;writing-mode:lr-tb;fill:#000000;fill-opacity:1;fill-rule:nonzero;stroke:none"
   transform="translate(31.892029,61.14885)"><tspan
     id="tspan618"
     sodipodi:role="line"
     y="0"
     x="0 8.2799997 17.234667 26.281332">Copy</tspan></text>

</g></g></g><g
       transform="matrix(0.7499985,0,0,-0.7499985,0,405)"
       id="g622" /><g
       id="g624"
       transform="matrix(0.0019685,0,0,-0.0019685,0,405)"><g
         id="g626"><path
           inkscape:connector-curvature="0"
           id="path628"
           style="fill:#eeeeee;fill-opacity:1;fill-rule:evenodd;stroke:none"
           d="m 85484.664,169561.5 h -5197.328 c -717.602,0 -1299.336,1365.75 -1299.336,3050.5 0,1684.75 581.734,3050.5 1299.336,3050.5 h 5197.328 v 0 c 717.602,0 1299.336,-1365.75 1299.336,-3050.5 0,-1684.75 -581.734,-3050.5 -1299.336,-3050.5 z" /></g><g
         id="g630"><g
           id="g632"><path
             inkscape:connector-curvature="0"
             id="path634"
             style="fill:#000000;fill-opacity:0;fill-rule:evenodd;stroke:none"
             d="m 80287.336,175662.5 c 717.604,0 1299.328,-1365.75 1299.328,-3050.5 0,-1684.75 -581.724,-3050.5 -1299.328,-3050.5" /></g></g><g
         id="g636"><g
           id="g638"><path
             inkscape:connector-curvature="0"
             id="path640"
             style="fill:#000000;fill-opacity:0;fill-rule:evenodd;stroke:none"
             d="m 85484.664,169561.5 h -5197.328 c -717.602,0 -1299.336,1365.75 -1299.336,3050.5 0,1684.75 581.734,3050.5 1299.336,3050.5 h 5197.328 v 0 c 717.602,0 1299.336,-1365.75 1299.336,-3050.5 0,-1684.75 -581.734,-3050.5 -1299.336,-3050.5 z" /></g></g><path
         inkscape:connector-curvature="0"
         id="path642"
         style="fill:none;stroke:#595959;stroke-width:381;stroke-linecap:butt;stroke-linejoin:round;stroke-miterlimit:8;stroke-dasharray:none;stroke-opacity:1"
         d="m 80287.336,175662.5 c 717.604,0 1299.328,-1365.75 1299.328,-3050.5 0,-1684.75 -581.724,-3050.5 -1299.328,-3050.5" /><path
         inkscape:connector-curvature="0"
         id="path644"
         style="fill:none;stroke:#595959;stroke-width:381;stroke-linecap:butt;stroke-linejoin:round;stroke-miterlimit:8;stroke-dasharray:none;stroke-opacity:1"
         d="m 85484.664,169561.5 h -5197.328 c -717.602,0 -1299.336,1365.75 -1299.336,3050.5 0,1684.75 581.734,3050.5 1299.336,3050.5 h 5197.328 v 0 c 717.602,0 1299.336,-1365.75 1299.336,-3050.5 0,-1684.75 -581.734,-3050.5 -1299.336,-3050.5 z" /></g><g
       id="g646"
       transform="matrix(0.0019685,0,0,-0.0019685,0,405)"><g
         id="g648"><path
           inkscape:connector-curvature="0"
           id="path650"
           style="fill:#eeeeee;fill-opacity:1;fill-rule:evenodd;stroke:none"
           d="m 124911.34,169561.5 h 5197.32 c 717.61,0 1299.34,1365.75 1299.34,3050.5 0,1684.75 -581.73,3050.5 -1299.34,3050.5 h -5197.32 v 0 c -717.61,0 -1299.34,-1365.75 -1299.34,-3050.5 0,-1684.75 581.73,-3050.5 1299.34,-3050.5 z" /></g><g
         id="g652"><g
           id="g654"><path
             inkscape:connector-curvature="0"
             id="path656"
             style="fill:#000000;fill-opacity:0;fill-rule:evenodd;stroke:none"
             d="m 130108.66,175662.5 c -717.6,0 -1299.32,-1365.75 -1299.32,-3050.5 0,-1684.75 581.72,-3050.5 1299.32,-3050.5" /></g></g><g
         id="g658"><g
           id="g660"><path
             inkscape:connector-curvature="0"
             id="path662"
             style="fill:#000000;fill-opacity:0;fill-rule:evenodd;stroke:none"
             d="m 124911.34,169561.5 h 5197.32 c 717.61,0 1299.34,1365.75 1299.34,3050.5 0,1684.75 -581.73,3050.5 -1299.34,3050.5 h -5197.32 v 0 c -717.61,0 -1299.34,-1365.75 -1299.34,-3050.5 0,-1684.75 581.73,-3050.5 1299.34,-3050.5 z" /></g></g><path
         inkscape:connector-curvature="0"
         id="path664"
         style="fill:none;stroke:#595959;stroke-width:381;stroke-linecap:butt;stroke-linejoin:round;stroke-miterlimit:8;stroke-dasharray:none;stroke-opacity:1"
         d="m 130108.66,175662.5 c -717.6,0 -1299.32,-1365.75 -1299.32,-3050.5 0,-1684.75 581.72,-3050.5 1299.32,-3050.5" /><path
         inkscape:connector-curvature="0"
         id="path666"
         style="fill:none;stroke:#595959;stroke-width:381;stroke-linecap:butt;stroke-linejoin:round;stroke-miterlimit:8;stroke-dasharray:none;stroke-opacity:1"
         d="m 124911.34,169561.5 h 5197.32 c 717.61,0 1299.34,1365.75 1299.34,3050.5 0,1684.75 -581.73,3050.5 -1299.34,3050.5 h -5197.32 v 0 c -717.61,0 -1299.34,-1365.75 -1299.34,-3050.5 0,-1684.75 581.73,-3050.5 1299.34,-3050.5 z" /></g><g
       id="g668"
       transform="matrix(0.0019685,0,0,-0.0019685,0,405)"><g
         id="g670"><path
           inkscape:connector-curvature="0"
           id="path672"
           style="fill:#eeeeee;fill-opacity:1;fill-rule:evenodd;stroke:none"
           d="m 124911.34,181758.5 h 5197.32 c 717.61,0 1299.34,1365.75 1299.34,3050.5 0,1684.75 -581.73,3050.5 -1299.34,3050.5 h -5197.32 v 0 c -717.61,0 -1299.34,-1365.75 -1299.34,-3050.5 0,-1684.75 581.73,-3050.5 1299.34,-3050.5 z" /></g><g
         id="g674"><g
           id="g676"><path
             inkscape:connector-curvature="0"
             id="path678"
             style="fill:#000000;fill-opacity:0;fill-rule:evenodd;stroke:none"
             d="m 130108.66,187859.5 c -717.6,0 -1299.32,-1365.75 -1299.32,-3050.5 0,-1684.75 581.72,-3050.5 1299.32,-3050.5" /></g></g><g
         id="g680"><g
           id="g682"><path
             inkscape:connector-curvature="0"
             id="path684"
             style="fill:#000000;fill-opacity:0;fill-rule:evenodd;stroke:none"
             d="m 124911.34,181758.5 h 5197.32 c 717.61,0 1299.34,1365.75 1299.34,3050.5 0,1684.75 -581.73,3050.5 -1299.34,3050.5 h -5197.32 v 0 c -717.61,0 -1299.34,-1365.75 -1299.34,-3050.5 0,-1684.75 581.73,-3050.5 1299.34,-3050.5 z" /></g></g><path
         inkscape:connector-curvature="0"
         id="path686"
         style="fill:none;stroke:#595959;stroke-width:381;stroke-linecap:butt;stroke-linejoin:round;stroke-miterlimit:8;stroke-dasharray:none;stroke-opacity:1"
         d="m 130108.66,187859.5 c -717.6,0 -1299.32,-1365.75 -1299.32,-3050.5 0,-1684.75 581.72,-3050.5 1299.32,-3050.5" /><path
         inkscape:connector-curvature="0"
         id="path688"
         style="fill:none;stroke:#595959;stroke-width:381;stroke-linecap:butt;stroke-linejoin:round;stroke-miterlimit:8;stroke-dasharray:none;stroke-opacity:1"
         d="m 124911.34,181758.5 h 5197.32 c 717.61,0 1299.34,1365.75 1299.34,3050.5 0,1684.75 -581.73,3050.5 -1299.34,3050.5 h -5197.32 v 0 c -717.61,0 -1299.34,-1365.75 -1299.34,-3050.5 0,-1684.75 581.73,-3050.5 1299.34,-3050.5 z" /></g><g
       id="g690"
       transform="matrix(0.0019685,0,0,-0.0019685,0,405)"><g
         id="g692"><path
           inkscape:connector-curvature="0"
           id="path694"
           style="fill:#eeeeee;fill-opacity:1;fill-rule:evenodd;stroke:none"
           d="m 124911.34,157364.5 h 5197.32 c 717.61,0 1299.34,1365.75 1299.34,3050.5 0,1684.75 -581.73,3050.5 -1299.34,3050.5 h -5197.32 v 0 c -717.61,0 -1299.34,-1365.75 -1299.34,-3050.5 0,-1684.75 581.73,-3050.5 1299.34,-3050.5 z" /></g><g
         id="g696"><g
           id="g698"><path
             inkscape:connector-curvature="0"
             id="path700"
             style="fill:#000000;fill-opacity:0;fill-rule:evenodd;stroke:none"
             d="m 130108.66,163465.5 c -717.6,0 -1299.32,-1365.75 -1299.32,-3050.5 0,-1684.75 581.72,-3050.5 1299.32,-3050.5" /></g></g><g
         id="g702"><g
           id="g704"><path
             inkscape:connector-curvature="0"
             id="path706"
             style="fill:#000000;fill-opacity:0;fill-rule:evenodd;stroke:none"
             d="m 124911.34,157364.5 h 5197.32 c 717.61,0 1299.34,1365.75 1299.34,3050.5 0,1684.75 -581.73,3050.5 -1299.34,3050.5 h -5197.32 v 0 c -717.61,0 -1299.34,-1365.75 -1299.34,-3050.5 0,-1684.75 581.73,-3050.5 1299.34,-3050.5 z" /></g></g><path
         inkscape:connector-curvature="0"
         id="path708"
         style="fill:none;stroke:#595959;stroke-width:381;stroke-linecap:butt;stroke-linejoin:round;stroke-miterlimit:8;stroke-dasharray:none;stroke-opacity:1"
         d="m 130108.66,163465.5 c -717.6,0 -1299.32,-1365.75 -1299.32,-3050.5 0,-1684.75 581.72,-3050.5 1299.32,-3050.5" /><path
         inkscape:connector-curvature="0"
         id="path710"
         style="fill:none;stroke:#595959;stroke-width:381;stroke-linecap:butt;stroke-linejoin:round;stroke-miterlimit:8;stroke-dasharray:none;stroke-opacity:1"
         d="m 124911.34,157364.5 h 5197.32 c 717.61,0 1299.34,1365.75 1299.34,3050.5 0,1684.75 -581.73,3050.5 -1299.34,3050.5 h -5197.32 v 0 c -717.61,0 -1299.34,-1365.75 -1299.34,-3050.5 0,-1684.75 581.73,-3050.5 1299.34,-3050.5 z" /></g></g></svg>